<svg width="52" height="52" viewBox="0 0 52 52" fill="none" xmlns="http://www.w3.org/2000/svg">
<g clip-path="url(#clip0_2137_76)">
<path d="M41.496 0H10.504C4.6995 0 0 4.6995 0 10.504V41.5025C0 47.3005 4.6995 52 10.504 52H41.5025C47.3005 52 52.0065 47.3005 52.0065 41.496V10.504C52 4.6995 47.3005 0 41.496 0Z" fill="url(#paint0_linear_2137_76)"/>
<path d="M25.7797 11.947L26.8327 10.127C27.4827 8.9895 28.9322 8.606 30.0697 9.256C31.2072 9.906 31.5907 11.3555 30.9407 12.493L20.7942 30.056H28.1327C30.5117 30.056 31.8442 32.851 30.8107 34.788H9.29569C7.98269 34.788 6.92969 33.735 6.92969 32.422C6.92969 31.109 7.98269 30.056 9.29569 30.056H15.3277L23.0497 16.6725L20.6382 12.4865C19.9882 11.349 20.3717 9.9125 21.5092 9.2495C22.6467 8.5995 24.0832 8.983 24.7462 10.1205L25.7797 11.947ZM16.6537 37.2255L14.3787 41.171C13.7287 42.3085 12.2792 42.692 11.1417 42.042C10.0042 41.392 9.62069 39.9425 10.2707 38.805L11.9607 35.88C13.8717 35.2885 15.4252 35.7435 16.6537 37.2255ZM36.2447 30.069H42.4002C43.7132 30.069 44.7662 31.122 44.7662 32.435C44.7662 33.748 43.7132 34.801 42.4002 34.801H38.9812L41.2887 38.805C41.9387 39.9425 41.5552 41.379 40.4177 42.042C39.2802 42.692 37.8437 42.3085 37.1807 41.171C33.2937 34.4305 30.3752 29.3865 28.4382 26.026C26.4557 22.607 27.8727 19.175 29.2702 18.0115C30.8237 20.6765 33.1442 24.7 36.2447 30.069Z" fill="white"/>
</g>
<defs>
<linearGradient id="paint0_linear_2137_76" x1="26.0032" y1="0" x2="26.0032" y2="52" gradientUnits="userSpaceOnUse">
<stop stop-color="#18BFFB"/>
<stop offset="1" stop-color="#2072F3"/>
</linearGradient>
<clipPath id="clip0_2137_76">
<rect width="52" height="52" fill="white"/>
</clipPath>
</defs>
</svg>
