<svg width="24" height="24" viewBox="0 0 24 24" fill="none" xmlns="http://www.w3.org/2000/svg">
<path d="M12.4996 10H16.4996C16.7648 10 17.0192 10.1054 17.2067 10.2929C17.3943 10.4804 17.4996 10.7348 17.4996 11V16.5C17.5009 17.74 17.0413 18.9361 16.2102 19.8563C15.3791 20.7765 14.2358 21.3551 13.0021 21.4797C11.7684 21.6043 10.5325 21.2661 9.53414 20.5307C8.53581 19.7953 7.84635 18.7152 7.59961 17.5" stroke="#D9EEE5" stroke-linejoin="round"/>
<path d="M17.4132 17.432C17.9014 17.7665 18.4717 17.9614 19.0626 17.9955C19.6534 18.0297 20.2424 17.9019 20.7659 17.6259C21.2894 17.3499 21.7277 16.9361 22.0333 16.4293C22.3389 15.9225 22.5003 15.3418 22.5002 14.75V10.889C22.5002 10.6532 22.4065 10.4271 22.2398 10.2604C22.0731 10.0937 21.8469 10 21.6112 10H16.8902C16.8266 9.9999 16.7633 10.0066 16.7012 10.02" stroke="#D9EEE5" stroke-linejoin="round"/>
<path d="M18.0126 7.48744C17.6844 7.15925 17.5 6.71413 17.5 6.25C17.5 5.78587 17.6844 5.34075 18.0126 5.01256C18.3408 4.68437 18.7859 4.5 19.25 4.5C19.7141 4.5 20.1592 4.68437 20.4874 5.01256C20.8156 5.34075 21 5.78587 21 6.25C21 6.71413 20.8156 7.15925 20.4874 7.48744C20.1592 7.81563 19.7141 8 19.25 8C18.7859 8 18.3408 7.81563 18.0126 7.48744Z" stroke="#D9EEE5" stroke-linejoin="round"/>
<path d="M4.5 9.5H9.5" stroke="#D9EEE5"/>
<path d="M7 9.5V15" stroke="#D9EEE5"/>
<path d="M1.5 16.5V7.5C1.5 7.23478 1.60536 6.98043 1.79289 6.79289C1.98043 6.60536 2.23478 6.5 2.5 6.5H11.5C11.7652 6.5 12.0196 6.60536 12.2071 6.79289C12.3946 6.98043 12.5 7.23478 12.5 7.5V16.5C12.5 16.7652 12.3946 17.0196 12.2071 17.2071C12.0196 17.3946 11.7652 17.5 11.5 17.5H2.5C2.23478 17.5 1.98043 17.3946 1.79289 17.2071C1.60536 17.0196 1.5 16.7652 1.5 16.5Z" stroke="#D9EEE5"/>
<path d="M12.5 7.5C13.0632 7.5 13.6099 7.30985 14.0515 6.96035C14.4931 6.61086 14.8037 6.12249 14.9331 5.57439C15.0625 5.02628 15.003 4.45054 14.7644 3.94044C14.5257 3.43035 14.1218 3.01579 13.618 2.76394C13.1143 2.51208 12.5403 2.43767 11.989 2.55278C11.4377 2.66788 10.9415 2.96576 10.5806 3.39813C10.2198 3.83051 10.0155 4.37206 10.0008 4.93505C9.98621 5.49803 10.1621 6.04946 10.5 6.5" stroke="#D9EEE5" stroke-linejoin="round"/>
</svg>
