<svg width="20" height="20" viewBox="0 0 20 20" fill="none" xmlns="http://www.w3.org/2000/svg">
<rect width="20" height="20" fill="white"/>
<path d="M3.33268 10.0001C3.33268 6.31818 6.31745 3.33341 9.99935 3.33341C13.6813 3.33341 16.666 6.31818 16.666 10.0001C16.666 13.682 13.6813 16.6667 9.99935 16.6667C6.31745 16.6667 3.33268 13.682 3.33268 10.0001ZM9.99935 1.66675C5.39697 1.66675 1.66602 5.39771 1.66602 10.0001C1.66602 14.6024 5.39697 18.3334 9.99935 18.3334C14.6017 18.3334 18.3327 14.6024 18.3327 10.0001C18.3327 5.39771 14.6017 1.66675 9.99935 1.66675ZM14.5469 7.88101L13.3684 6.70249L9.16602 10.9049L6.83861 8.5775L5.66009 9.756L9.16602 13.2619L14.5469 7.88101Z" fill="#02563D"/>
</svg>
