<svg width="68" height="69" viewBox="0 0 68 69" fill="none" xmlns="http://www.w3.org/2000/svg">
<path d="M68 67.9998C68 49.2155 52.7783 33.9938 33.994 33.9938C15.2097 33.9938 0 49.2275 0 67.9998H68Z" fill="#EE8F7E"/>
<path d="M34.0074 36.1051C43.9776 36.1051 52.06 28.0227 52.06 18.0526C52.06 8.08241 43.9776 0 34.0074 0C24.0372 0 15.9548 8.08241 15.9548 18.0526C15.9548 28.0227 24.0372 36.1051 34.0074 36.1051Z" fill="#EE8F7E"/>
<path d="M40.7217 47.1043L33.9924 40.3751L26.4115 47.0683L19.4304 37.2683L21.5775 36.2847L26.8074 43.6137L34.0884 37.1844L40.4818 43.5777L46.0834 36.2128L48.3025 37.1484L40.7217 47.1043Z" fill="black"/>
<path d="M35.2037 39.0918H32.8047V68.0119H35.2037V39.0918Z" fill="black"/>
</svg>
