<svg width="68" height="68" viewBox="0 0 68 68" fill="none" xmlns="http://www.w3.org/2000/svg">
<path d="M60.2554 0H52.7265H5.89846C2.63752 0 0 2.64951 0 5.91045V67.9881H4.00424C4.1481 65.7702 5.94642 64.0079 8.2003 64.0079C10.4542 64.0079 12.2525 65.7702 12.3964 67.9881H16.1488C16.2927 65.7702 18.091 64.0079 20.3449 64.0079C22.5988 64.0079 24.3971 65.7702 24.541 67.9881H28.2934C28.4373 65.7702 30.2356 64.0079 32.4895 64.0079C34.7434 64.0079 36.5417 65.7702 36.6855 67.9881H40.438C40.5819 65.7702 42.3802 64.0079 44.6341 64.0079C46.888 64.0079 48.6863 65.7702 48.8301 67.9881H52.6665V6.88154L56.7307 2.56559L60.2554 0ZM34.7434 28.6051L31.2427 28.6531C31.2427 28.6531 31.2307 28.725 31.2067 28.8089C30.7751 31.3865 29.2885 33.2088 27.0706 34.4916C25.4881 35.4027 23.7737 35.8703 21.9634 36.0022C21.8914 36.0022 21.6996 36.0501 21.6397 36.0741C25.3802 40.7497 29.1686 45.4613 32.9331 50.1609H28.0537C24.445 45.6651 20.7285 41.0015 17.1319 36.5057C17.1079 35.7145 17.1319 33.9521 17.1319 33.8322H17.5275C18.5586 33.8322 19.5896 33.8562 20.6086 33.8082C22.2991 33.7243 23.9056 33.3527 25.2723 32.2857C26.3872 31.4105 27.0586 30.2836 27.1665 28.8449C27.1665 28.773 27.1665 28.713 27.1665 28.6171H16.1009C16.2088 28.4253 17.9711 25.7638 17.9711 25.7638C17.9711 25.7638 23.6898 25.7638 26.3872 25.7638H26.7948C26.5551 25.1524 26.1954 24.6728 25.7518 24.2652C24.9246 23.5219 23.9056 23.1263 22.8266 22.9944C21.6037 22.8505 20.3809 22.8026 19.158 22.7546C18.1629 22.7187 17.1679 22.7546 16.1009 22.7546L17.9591 19.9013H36.5896C36.1341 20.5967 34.7793 22.7666 34.7793 22.7666C34.7793 22.7666 29.9599 22.7546 29.804 22.7546C29.864 22.8505 29.8879 22.9105 29.9359 22.9584C30.5353 23.7137 30.931 24.5649 31.1467 25.5C31.1947 25.7158 31.2067 25.7638 31.2067 25.7638C32.7892 25.7638 36.4458 25.7638 36.6256 25.7638C36.2899 26.2673 35.0071 28.2095 34.7554 28.6051H34.7434Z" fill="#EE8F7E"/>
<path d="M54.9082 68.0001H52.5105V7.74473C52.5105 3.47673 55.9872 0 60.2552 0C64.5232 0 68 3.47673 68 7.74473V16.5205H54.9082V68.0001ZM54.9082 14.1227H65.6022V7.74473C65.6022 4.7955 63.2045 2.39775 60.2552 2.39775C57.306 2.39775 54.9082 4.7955 54.9082 7.74473V14.1227Z" fill="black"/>
</svg>
