<svg width="67" height="67" viewBox="0 0 67 67" fill="none" xmlns="http://www.w3.org/2000/svg">
<path d="M31.5482 3.6582C16.3401 3.6582 4.00134 15.9878 4.00134 31.2044C4.00134 46.4211 16.3312 58.7418 31.5482 58.7418C46.7651 58.7418 59.095 46.4122 59.095 31.2044C59.095 15.9967 46.7651 3.6582 31.5482 3.6582ZM40.9377 26.4076L37.3755 26.452C37.3755 26.452 37.3578 26.532 37.34 26.6119C36.8958 29.2324 35.3857 31.089 33.1294 32.3859C31.5215 33.3097 29.7804 33.7805 27.9327 33.9226C27.8616 33.9226 27.6662 33.9671 27.604 34.0026C31.406 38.7639 35.2525 43.5341 39.0811 48.322H34.1243C30.4644 43.7561 26.6802 39.0126 23.0292 34.4379C23.0025 33.6295 23.0292 31.844 23.0292 31.7197C23.1802 31.7197 23.3045 31.7197 23.4378 31.7197C24.486 31.7197 25.5253 31.7552 26.5736 31.7019C28.288 31.6219 29.9225 31.24 31.3172 30.1562C32.4542 29.2679 33.1294 28.122 33.2449 26.6563C33.2449 26.5853 33.2449 26.5142 33.2449 26.4165H22.0076C22.1142 26.2211 23.9175 23.5206 23.9175 23.5206C23.9175 23.5206 29.7271 23.5206 32.472 23.5206H32.8806C32.6408 22.8988 32.2766 22.4103 31.8147 22.0016C30.9707 21.2466 29.9403 20.8468 28.8388 20.7136C27.604 20.5715 26.3515 20.5182 25.1078 20.4649C24.0952 20.4293 23.0825 20.4649 21.9987 20.4649L23.882 17.5601H42.821C42.359 18.2708 40.9821 20.4826 40.9821 20.4826C40.9821 20.4826 36.0786 20.4649 35.9187 20.4649C35.9809 20.5626 36.0075 20.6159 36.052 20.6692C36.6649 21.4331 37.0646 22.3037 37.2778 23.2541C37.3311 23.4762 37.34 23.5206 37.34 23.5206C38.9479 23.5206 42.6699 23.5206 42.8476 23.5206C42.51 24.0358 41.1953 25.999 40.9466 26.4076H40.9377Z" fill="#EE8F7E"/>
<path d="M44.003 10.9412C54.3519 3.07086 62.6577 -0.766608 65.2161 1.78282C69.1158 5.68246 58.074 23.0399 40.5563 40.5572C23.0386 58.0745 5.68084 69.1161 1.78111 65.2165C-1.6478 61.7876 6.4981 47.9212 20.4447 32.6957" stroke="black" stroke-width="2" stroke-miterlimit="10"/>
<path d="M23.0391 34.4465C23.0124 33.6381 23.0391 31.8526 23.0391 31.7282H23.4477C24.4959 31.7282 25.5353 31.7549 26.5835 31.7105C28.298 31.6305 29.9325 31.2486 31.3271 30.1648C32.4642 29.2765 33.1393 28.1306 33.2548 26.6738C33.2548 26.6027 33.2548 26.5317 33.2548 26.434H22.0175C22.1241 26.2385 23.9274 23.5381 23.9274 23.5381C23.9274 23.5381 29.737 23.5292 32.4819 23.5292H32.8906C32.6507 22.9074 32.2865 22.4188 31.8246 22.0102C30.9807 21.2552 29.9502 20.8554 28.8487 20.7222C27.8982 20.6067 26.9388 20.5712 25.9883 20.5356L6.19653 41.9704C8.00871 46.2253 10.9313 49.8407 14.4934 52.6833L27.3741 39.874C25.9261 38.053 24.4693 36.2408 23.0391 34.4553V34.4465Z" fill="#EE8F7E"/>
<path d="M37.3773 26.4573C37.3773 26.4573 37.3595 26.5372 37.3417 26.6172C36.8976 29.2376 35.3874 31.0942 33.1311 32.3911C31.5232 33.3149 29.7821 33.7946 27.9433 33.9368C27.8722 33.9368 27.6768 33.9812 27.6146 34.0078C28.4408 35.0471 29.2846 36.0865 30.1197 37.1346L40.9039 26.4128L37.3773 26.4573Z" fill="#EE8F7E"/>
<path d="M53.1144 14.2705C49.8099 10.0689 45.3416 6.88874 40.1539 5.17432L28.7123 17.5661H42.8099C42.348 18.2768 40.9711 20.4798 40.9711 20.4798C40.9711 20.4798 36.0676 20.462 35.9077 20.462C35.9699 20.5597 35.9965 20.6219 36.0409 20.6663C36.6539 21.4302 37.0536 22.3008 37.2668 23.2513C37.3201 23.4733 37.329 23.5178 37.329 23.5178C38.9369 23.5178 42.6589 23.5178 42.8366 23.5178C42.5079 24.0152 41.2998 25.8273 40.9977 26.3159L53.1233 14.2616L53.1144 14.2705Z" fill="#EE8F7E"/>
<path d="M53.64 10.2898H64.5397V21.1893" stroke="black" stroke-width="2" stroke-miterlimit="10"/>
</svg>
