<svg width="68" height="68" viewBox="0 0 68 68" fill="none" xmlns="http://www.w3.org/2000/svg">
<path d="M28.8305 67.9966C44.7532 67.9966 57.6611 55.0743 57.6611 39.1337C57.6611 23.1931 44.7532 10.2708 28.8305 10.2708C12.9079 10.2708 0 23.1931 0 39.1337C0 55.0743 12.9079 67.9966 28.8305 67.9966Z" fill="#EE8F7E"/>
<path d="M55.2203 11.0446L27.9248 38.6199L29.6268 40.3084L56.9223 12.7331L55.2203 11.0446Z" fill="black"/>
<path d="M63.2188 17.8387H50.1113V4.71655H52.5075V15.4398H63.2188V17.8387Z" fill="black"/>
<path d="M67.9997 13.1221H54.8923V0H57.2885V10.7233H67.9997V13.1221Z" fill="black"/>
<path d="M28.8322 55.2333C19.9635 55.2333 12.7559 48.008 12.7559 39.1389C12.7559 30.2697 19.9635 23.0444 28.8322 23.0444C37.701 23.0444 44.9086 30.2602 44.9086 39.1389C44.9086 48.0176 37.701 55.2333 28.8322 55.2333ZM28.8322 25.4433C21.2905 25.4433 15.152 31.5886 15.152 39.1389C15.152 46.6891 21.2905 52.8344 28.8322 52.8344C36.374 52.8344 42.5124 46.6891 42.5124 39.1389C42.5124 31.5886 36.374 25.4433 28.8322 25.4433Z" fill="black"/>
</svg>
