<svg width="68" height="68" viewBox="0 0 68 68" fill="none" xmlns="http://www.w3.org/2000/svg">
<path d="M53.8573 36.9835H51.4569C51.4569 29.3583 46.5703 22.6756 39.2975 20.3623L36.9828 19.6198L38.9689 18.2347C41.2979 16.6069 42.6981 13.9366 42.6981 11.095C42.6981 6.29719 38.7974 2.39893 33.9965 2.39893C29.1956 2.39893 25.2949 6.29719 25.2949 11.095C25.2949 13.9366 26.6952 16.5926 29.0242 18.2347L31.0103 19.6198L28.6956 20.3623C21.4228 22.6756 16.5362 29.3583 16.5362 36.9835H14.1357C14.1357 29.0156 18.8366 21.9473 26.0093 18.8059C24.0233 16.7497 22.8802 13.9937 22.8802 11.095C22.8802 4.96921 27.8668 0 33.9822 0C40.0976 0 45.0843 4.98349 45.0843 11.095C45.0843 13.9937 43.9412 16.7497 41.9551 18.8059C49.1422 21.9473 53.8287 29.0013 53.8287 36.9835H53.8573Z" fill="black"/>
<path d="M0 67.9999C0 57.7045 8.35868 49.3511 18.6606 49.3511C28.9625 49.3511 37.3211 57.7045 37.3211 67.9999" fill="#EE8F7E"/>
<path d="M18.6588 52.0047C24.1274 52.0047 28.5606 47.5743 28.5606 42.1091C28.5606 36.6439 24.1274 32.2135 18.6588 32.2135C13.1902 32.2135 8.75696 36.6439 8.75696 42.1091C8.75696 47.5743 13.1902 52.0047 18.6588 52.0047Z" fill="#EE8F7E"/>
<path d="M30.6788 67.9996C30.6788 57.7042 39.0375 49.3508 49.3394 49.3508C59.6413 49.3508 68 57.7042 68 67.9996" fill="#EE8F7E"/>
<path d="M49.3374 52.005C54.806 52.005 59.2392 47.5746 59.2392 42.1094C59.2392 36.6443 54.806 32.2139 49.3374 32.2139C43.8687 32.2139 39.4355 36.6443 39.4355 42.1094C39.4355 47.5746 43.8687 52.005 49.3374 52.005Z" fill="#EE8F7E"/>
</svg>
