<svg preserveAspectRatio="none" width="100%" height="100%" overflow="visible" style="display: block;" viewBox="0 0 36.9441 36.9441" fill="none" xmlns="http://www.w3.org/2000/svg">
<g id="SVG - user-search">
<path id="Vector" d="M15.3934 18.4721C18.7941 18.4721 21.5508 15.7154 21.5508 12.3148C21.5508 8.91414 18.7941 6.1574 15.3934 6.1574C11.9928 6.1574 9.23609 8.91414 9.23609 12.3148C9.23609 15.7154 11.9928 18.4721 15.3934 18.4721Z" stroke="var(--stroke-0, #015741)" stroke-width="2.61688" stroke-linecap="round" stroke-linejoin="round"/>
<path id="Vector_2" d="M3.07938 32.3262C3.07938 26.1688 9.23673 21.5508 15.3941 21.5508C17.5492 21.5508 19.5503 22.1665 21.2436 23.0901" stroke="var(--stroke-0, #015741)" stroke-width="2.61688" stroke-linecap="round" stroke-linejoin="round"/>
<path id="Vector_3" d="M26.1675 30.7868C28.718 30.7868 30.7856 28.7193 30.7856 26.1688C30.7856 23.6183 28.718 21.5508 26.1675 21.5508C23.6171 21.5508 21.5495 23.6183 21.5495 26.1688C21.5495 28.7193 23.6171 30.7868 26.1675 30.7868Z" stroke="var(--stroke-0, #015741)" stroke-width="2.61688" stroke-linecap="round" stroke-linejoin="round"/>
<path id="Vector_4" d="M32.3246 32.3261L29.2459 29.2474" stroke="var(--stroke-0, #015741)" stroke-width="2.61688" stroke-linecap="round" stroke-linejoin="round"/>
</g>
</svg>
