<svg preserveAspectRatio="none" width="100%" height="100%" overflow="visible" style="display: block;" viewBox="0 0 28.7075 28.7075" fill="none" xmlns="http://www.w3.org/2000/svg">
<g id="Frame">
<path id="Vector" d="M26.3153 20.3345C26.3153 20.9689 26.0633 21.5774 25.6146 22.0261C25.166 22.4747 24.5575 22.7268 23.923 22.7268H8.16739C7.53297 22.7269 6.92458 22.979 6.47604 23.4277L3.84213 26.0616C3.72336 26.1804 3.57204 26.2612 3.40731 26.294C3.24259 26.3268 3.07185 26.3099 2.91668 26.2457C2.76151 26.1814 2.62888 26.0726 2.53556 25.9329C2.44224 25.7933 2.39242 25.6291 2.3924 25.4611V5.98071C2.3924 5.34623 2.64444 4.73775 3.09308 4.2891C3.54173 3.84046 4.15021 3.58842 4.78469 3.58842H23.923C24.5575 3.58842 25.166 3.84046 25.6146 4.2891C26.0633 4.73775 26.3153 5.34623 26.3153 5.98071V20.3345Z" stroke="var(--stroke-0, white)" stroke-width="1.36702" stroke-linecap="round" stroke-linejoin="round"/>
<path id="Vector_2" d="M14.3539 13.1576H14.3664" stroke="var(--stroke-0, white)" stroke-width="2.05054" stroke-linecap="round" stroke-linejoin="round"/>
<path id="Vector_3" d="M19.1384 13.1576H19.151" stroke="var(--stroke-0, white)" stroke-width="2.05054" stroke-linecap="round" stroke-linejoin="round"/>
<path id="Vector_4" d="M9.56927 13.1576H9.58179" stroke="var(--stroke-0, white)" stroke-width="2.05054" stroke-linecap="round" stroke-linejoin="round"/>
</g>
</svg>
