<svg width="42" height="42" viewBox="0 0 42 42" fill="none" xmlns="http://www.w3.org/2000/svg">
<path d="M17.9688 36.75C18.276 37.282 18.7178 37.7238 19.2498 38.031C19.7819 38.3381 20.3854 38.4998 20.9998 38.4998C21.6141 38.4998 22.2176 38.3381 22.7497 38.031C23.2817 37.7238 23.7236 37.282 24.0308 36.75" stroke="#E56046" stroke-width="2" stroke-linecap="round" stroke-linejoin="round"/>
<path d="M20.4407 3.51587C17.7568 3.65921 15.2301 4.82628 13.3809 6.77671C11.5317 8.72715 10.5009 11.3124 10.5007 14.0001C10.5007 21.8734 8.03142 24.4231 5.70917 26.8206C5.48056 27.0712 5.32969 27.3828 5.27492 27.7175C5.22015 28.0523 5.26383 28.3957 5.40066 28.7061C5.53749 29.0164 5.76156 29.2803 6.04562 29.4657C6.32968 29.6511 6.66149 29.7499 7.00067 29.7501H35.0007C35.3398 29.7502 35.6717 29.6518 35.9559 29.4668C36.2402 29.2818 36.4645 29.0182 36.6017 28.708C36.7389 28.3979 36.783 28.0545 36.7287 27.7197C36.6744 27.385 36.5239 27.0732 36.2957 26.8224C34.8537 25.3349 33.3592 23.7931 32.4282 20.9634" stroke="#E56046" stroke-width="2" stroke-linecap="round" stroke-linejoin="round"/>
<path d="M31.5 14C34.3995 14 36.75 11.6495 36.75 8.75C36.75 5.85051 34.3995 3.5 31.5 3.5C28.6005 3.5 26.25 5.85051 26.25 8.75C26.25 11.6495 28.6005 14 31.5 14Z" stroke="#E56046" stroke-width="2" stroke-linecap="round" stroke-linejoin="round"/>
</svg>
