<svg width="42" height="42" viewBox="0 0 42 42" fill="none" xmlns="http://www.w3.org/2000/svg">
<path d="M19.25 29.75L22.75 33.25C23.0947 33.5947 23.504 33.8682 23.9544 34.0547C24.4048 34.2413 24.8875 34.3373 25.375 34.3373C25.8625 34.3373 26.3452 34.2413 26.7956 34.0547C27.246 33.8682 27.6553 33.5947 28 33.25C28.3447 32.9053 28.6182 32.496 28.8047 32.0456C28.9913 31.5952 29.0873 31.1125 29.0873 30.625C29.0873 30.1375 28.9913 29.6548 28.8047 29.2044C28.6182 28.754 28.3447 28.3447 28 28" stroke="#E56046" stroke-width="2" stroke-linecap="round" stroke-linejoin="round"/>
<path d="M24.4994 24.4999L28.8744 28.8749C29.5706 29.5711 30.5149 29.9622 31.4994 29.9622C32.484 29.9622 33.4282 29.5711 34.1244 28.8749C34.8206 28.1787 35.2117 27.2345 35.2117 26.2499C35.2117 25.2653 34.8206 24.3211 34.1244 23.6249L27.3344 16.8349C26.35 15.8518 25.0157 15.2995 23.6244 15.2995C22.2332 15.2995 20.8988 15.8518 19.9144 16.8349L18.3744 18.3749C17.6782 19.0711 16.734 19.4622 15.7494 19.4622C14.7649 19.4622 13.8206 19.0711 13.1244 18.3749C12.4282 17.6787 12.0371 16.7345 12.0371 15.7499C12.0371 14.7653 12.4282 13.8211 13.1244 13.1249L18.0419 8.2074C19.6383 6.61516 21.7202 5.60087 23.958 5.32511C26.1958 5.04934 28.4617 5.52786 30.3969 6.6849L31.2194 7.1749C31.9645 7.62463 32.8505 7.78061 33.7044 7.6124L36.7494 6.9999" stroke="#E56046" stroke-width="2" stroke-linecap="round" stroke-linejoin="round"/>
<path d="M36.75 5.25L38.5 24.5H35" stroke="#E56046" stroke-width="2" stroke-linecap="round" stroke-linejoin="round"/>
<path d="M5.25 5.25L3.5 24.5L14.875 35.875C15.5712 36.5712 16.5154 36.9623 17.5 36.9623C18.4846 36.9623 19.4288 36.5712 20.125 35.875C20.8212 35.1788 21.2123 34.2346 21.2123 33.25C21.2123 32.2654 20.8212 31.3212 20.125 30.625" stroke="#E56046" stroke-width="2" stroke-linecap="round" stroke-linejoin="round"/>
<path d="M5.25 7H19.25" stroke="#E56046" stroke-width="2" stroke-linecap="round" stroke-linejoin="round"/>
</svg>
