<svg width="42" height="42" viewBox="0 0 42 42" fill="none" xmlns="http://www.w3.org/2000/svg">
<path d="M35 22.7501C35 31.5001 28.875 35.8751 21.595 38.4126C21.2138 38.5417 20.7997 38.5356 20.4225 38.3951C13.125 35.8751 7 31.5001 7 22.7501V10.5001C7 10.0359 7.18437 9.59081 7.51256 9.26262C7.84075 8.93443 8.28587 8.75005 8.75 8.75005C12.25 8.75005 16.625 6.65005 19.67 3.99005C20.0407 3.6733 20.5124 3.49927 21 3.49927C21.4876 3.49927 21.9593 3.6733 22.33 3.99005C25.3925 6.66755 29.75 8.75005 33.25 8.75005C33.7141 8.75005 34.1592 8.93443 34.4874 9.26262C34.8156 9.59081 35 10.0359 35 10.5001V22.7501Z" stroke="#E56046" stroke-width="2" stroke-linecap="round" stroke-linejoin="round"/>
<path d="M15.75 21L19.25 24.5L26.25 17.5" stroke="#E56046" stroke-width="2" stroke-linecap="round" stroke-linejoin="round"/>
</svg>
