<svg width="31" height="31" viewBox="0 0 31 31" fill="none" xmlns="http://www.w3.org/2000/svg">
<path fill-rule="evenodd" clip-rule="evenodd" d="M0.121982 14.9056C0.125282 6.68572 6.84373 0 15.0985 0C19.1025 0.00165 22.8642 1.55389 25.6915 4.37096C28.5188 7.18793 30.076 10.9349 30.0745 14.9176C30.0712 23.1375 23.3523 29.8239 15.0984 29.8239C12.6533 29.8231 10.2531 29.2303 8.10632 28.1008L0.608116 30.0583C0.246778 30.1527 -0.0811529 29.8204 0.017905 29.4603L2.02029 22.1813C0.774092 19.9619 0.120936 17.4622 0.121982 14.9056ZM15.091 27.1635H15.086C12.9005 27.1627 10.7569 26.5782 8.88682 25.4737L8.44201 25.211L3.83225 26.4146L5.06266 21.9414L4.77309 21.4827C3.55384 19.5527 2.90991 17.3221 2.91091 15.0316C2.91358 8.34804 8.37753 2.91048 15.0959 2.91048C18.3491 2.91157 21.4072 4.17412 23.7069 6.46553C26.0065 8.7567 27.2721 11.8023 27.2708 15.0413C27.2681 21.7255 21.8042 27.1635 15.091 27.1635ZM19.1978 16.7772C19.5315 16.8998 21.3216 17.7873 21.6857 17.9709C21.7568 18.0068 21.8231 18.0391 21.8847 18.0691C22.1387 18.1927 22.3104 18.2763 22.3836 18.3994C22.4746 18.5525 22.4746 19.2871 22.1712 20.1442C21.8678 21.0012 20.4131 21.7834 19.7136 21.8887C19.0862 21.9832 18.2925 22.0226 17.4203 21.7433C16.8915 21.5743 16.2133 21.3485 15.3446 20.9704C11.9315 19.4854 9.62502 16.1523 9.1887 15.5217C9.15802 15.4775 9.13664 15.4465 9.12467 15.4305L9.12177 15.4265C8.92911 15.1676 7.63793 13.4318 7.63793 11.6351C7.63793 9.94517 8.46177 9.05928 8.84104 8.65155C8.86695 8.62354 8.89088 8.59786 8.91226 8.57427C9.2461 8.20709 9.64059 8.1153 9.88332 8.1153C10.1259 8.1153 10.3689 8.1175 10.5811 8.12819C10.6072 8.12947 10.6345 8.12936 10.6627 8.12912C10.8748 8.12796 11.1394 8.12645 11.4003 8.75786C11.5004 9.00048 11.647 9.35988 11.8015 9.73903C12.1151 10.5084 12.4619 11.3593 12.5229 11.4822C12.614 11.6658 12.6746 11.8801 12.5532 12.125C12.5351 12.1617 12.5182 12.1964 12.5021 12.2295C12.411 12.417 12.3439 12.555 12.1891 12.737C12.1286 12.8084 12.066 12.8852 12.0033 12.9621C11.8778 13.1161 11.7522 13.2701 11.643 13.3798C11.4607 13.5627 11.2709 13.7613 11.4834 14.1286C11.6958 14.4959 12.4265 15.6974 13.5088 16.6702C14.6724 17.7161 15.6836 18.1581 16.1962 18.3821C16.2962 18.4258 16.3773 18.4612 16.4368 18.4912C16.8009 18.6751 17.0134 18.6443 17.2257 18.3994C17.4381 18.1546 18.1359 17.3281 18.3786 16.9608C18.6213 16.5937 18.8641 16.6548 19.1978 16.7772Z" fill="white"/>
</svg>
