<svg width="19" height="14" viewBox="0 0 19 14" fill="none" xmlns="http://www.w3.org/2000/svg">
<path d="M5.69734 6.89682C7.35343 6.89682 8.69595 5.5543 8.69595 3.89821C8.69595 2.24212 7.35343 0.899597 5.69734 0.899597C4.04125 0.899597 2.69873 2.24212 2.69873 3.89821C2.69873 5.5543 4.04125 6.89682 5.69734 6.89682Z" stroke="#013B2A" stroke-width="1.79917"/>
<path d="M12.8941 6.89682C14.5502 6.89682 15.8927 5.5543 15.8927 3.89821C15.8927 2.24212 14.5502 0.899597 12.8941 0.899597C11.238 0.899597 9.89551 2.24212 9.89551 3.89821C9.89551 5.5543 11.238 6.89682 12.8941 6.89682Z" stroke="#013B2A" stroke-width="1.79917"/>
<path d="M0.899658 13.4938C0.899658 9.89543 3.29855 8.69598 5.69744 8.69598C8.09633 8.69598 10.4952 9.89543 10.4952 13.4938M8.09633 13.4938C8.09633 10.4952 10.4952 8.69598 12.8941 8.69598C15.293 8.69598 17.6919 9.89543 17.6919 13.4938" stroke="#013B2A" stroke-width="1.79917" stroke-linejoin="round"/>
</svg>
