<svg width="31" height="31" viewBox="0 0 31 31" fill="none" xmlns="http://www.w3.org/2000/svg">
<path d="M26.3137 21.3028L23.612 18.962C23.5227 18.8773 23.4105 18.8208 23.2893 18.7995C23.1681 18.7782 23.0433 18.7931 22.9305 18.8423C22.8177 18.8915 22.7219 18.9728 22.655 19.0761C22.5881 19.1794 22.5531 19.3001 22.5544 19.4231V20.0497C22.5544 20.382 22.4224 20.7007 22.1874 20.9357C21.9524 21.1707 21.6336 21.3028 21.3013 21.3028H18.7951C18.4627 21.3028 18.144 21.1707 17.909 20.9357C17.674 20.7007 17.542 20.382 17.542 20.0497C17.542 16.8605 12.5408 15.0748 6.89058 15.0372C6.05972 15.0372 5.26289 15.3673 4.67538 15.9548C4.08787 16.5423 3.75781 17.3391 3.75781 18.17C3.75781 19.0009 4.08787 19.7977 4.67538 20.3852C5.26289 20.9727 6.05972 21.3028 6.89058 21.3028C12.0947 21.3028 12.8366 7.14894 14.0433 4.38584C14.2472 3.91943 14.5616 3.50971 14.9594 3.19214C15.3572 2.87458 15.8264 2.65873 16.3264 2.56327C16.8264 2.46781 17.3421 2.49563 17.8289 2.6443C18.3157 2.79297 18.759 3.05803 19.1203 3.41654C19.4817 3.77505 19.7502 4.2162 19.9027 4.70183C20.0552 5.18746 20.0871 5.70294 19.9956 6.20366C19.9041 6.70439 19.6919 7.17527 19.3775 7.57556C19.0631 7.97586 18.6559 8.29351 18.1911 8.50104" stroke="white" stroke-width="1.36702" stroke-linecap="round" stroke-linejoin="round"/>
<path d="M3.75781 26.3152H26.3137" stroke="white" stroke-width="1.36702" stroke-linecap="round" stroke-linejoin="round"/>
</svg>
