<svg width="28" height="28" viewBox="0 0 28 28" fill="none" xmlns="http://www.w3.org/2000/svg">
<g clip-path="url(#clip0_1989_324)">
<path d="M16.181 12.5543H23.9926C24.3006 12.5543 24.5506 12.3043 24.5506 11.9963C24.5506 11.6883 24.3006 11.4383 23.9926 11.4383H16.181C15.873 11.4383 15.623 11.6883 15.623 11.9963C15.623 12.3043 15.873 12.5543 16.181 12.5543Z" fill="white"/>
<path d="M11.6035 19.2499H2.78983C1.86693 19.2499 1.11592 18.4989 1.11592 17.576V4.74272H25.6665V15.6934C25.6665 16.0014 25.9165 16.2514 26.2245 16.2514C26.5325 16.2514 26.7825 16.0014 26.7825 15.6934V3.06882C26.7825 1.52992 25.5315 0.278992 23.9927 0.278992H2.78983C1.25098 0.278939 0 1.52992 0 3.06882V17.576C0 19.1149 1.25098 20.3658 2.78983 20.3658H11.6035C11.9126 20.3658 12.1615 20.1158 12.1615 19.8078C12.1615 19.4999 11.9115 19.2499 11.6035 19.2499ZM1.11592 3.06882C1.11592 2.14592 1.86693 1.39491 2.78983 1.39491H23.9926C24.9155 1.39491 25.6665 2.14592 25.6665 3.06882V3.6268H1.11592V3.06882Z" fill="white"/>
<path d="M16.181 9.20649H19.5288C19.8368 9.20649 20.0868 8.9565 20.0868 8.6485C20.0868 8.3405 19.8368 8.09052 19.5288 8.09052H16.181C15.873 8.09052 15.623 8.3405 15.623 8.6485C15.623 8.9565 15.873 9.20649 16.181 9.20649Z" fill="white"/>
<path d="M23.993 7.99347H21.7611C21.4531 7.99347 21.2031 8.24346 21.2031 8.55145C21.2031 8.85945 21.4531 9.10944 21.7611 9.10944H23.993C24.301 9.10944 24.551 8.85945 24.551 8.55145C24.551 8.24346 24.301 7.99347 23.993 7.99347Z" fill="white"/>
<path d="M21.202 21.4818H18.9701C18.6621 21.4818 18.4121 21.7318 18.4121 22.0398C18.4121 22.3478 18.6621 22.5978 18.9701 22.5978H21.202C21.51 22.5978 21.76 22.3478 21.76 22.0398C21.76 21.7317 21.51 21.4818 21.202 21.4818Z" fill="white"/>
<path d="M26.5898 19.6739C26.6679 19.6081 27.3431 19.0044 27.3431 18.1339C27.3431 17.6675 26.996 17.3416 26.4995 17.3416C26.2193 17.3416 25.7395 17.4856 25.3266 17.7233C24.7809 16.5716 23.8882 15.5505 23.2487 15.2325C22.8258 15.0216 21.3851 14.7861 20.0895 14.7861C18.7939 14.7861 17.3532 15.0216 16.9292 15.2325C16.292 15.5505 15.3992 16.5716 14.8524 17.7233C14.4384 17.4856 13.9586 17.3416 13.6784 17.3416C13.4664 17.3416 13.2845 17.3963 13.1383 17.5068C12.9442 17.653 12.8359 17.8761 12.8359 18.1339C12.8359 19.0043 13.5122 19.608 13.5892 19.6739C13.6495 19.7252 13.7187 19.7576 13.7901 19.7799C13.5233 20.5209 13.3939 21.3411 13.3939 22.0397C13.3939 22.8733 13.4709 24.295 13.9519 25.0215V25.9455C13.9519 26.5715 14.4418 27.0614 15.0678 27.0614H16.1838C16.8098 27.0614 17.2997 26.5715 17.2997 25.9455V25.5672C17.9737 25.7357 19.0249 25.9455 20.0895 25.9455C21.1541 25.9455 22.2053 25.7357 22.8793 25.5672V25.9455C22.8793 26.5715 23.3692 27.0614 23.9952 27.0614H25.1112C25.7373 27.0614 26.2271 26.5715 26.2271 25.9455V25.0215C26.7081 24.295 26.7851 22.8733 26.7851 22.0397C26.7851 21.3411 26.6557 20.5198 26.389 19.7799C26.4604 19.7576 26.5296 19.7253 26.5898 19.6739ZM17.4257 16.2324C17.6345 16.1364 18.8251 15.9021 20.0895 15.9021C21.3539 15.9021 22.5445 16.1364 22.7499 16.2301C23.1728 16.4422 24.1549 17.5548 24.5454 18.7678C23.4965 18.9151 21.0168 19.2499 20.0895 19.2499C19.1622 19.2499 16.6814 18.9151 15.6325 18.7678C16.023 17.5548 17.0051 16.4421 17.4257 16.2324ZM14.2743 18.7868C14.2386 18.751 14.184 18.693 14.1192 18.5982C14.1929 18.6328 14.2632 18.6718 14.3291 18.7109C14.3112 18.7366 14.2922 18.7611 14.2743 18.7868ZM16.1826 25.9466H15.0667V25.3875H16.1826V25.9466ZM25.1112 25.9455H23.9953V25.3875H25.1112V25.9455ZM25.3679 24.2716H23.4373C23.3781 24.2716 23.319 24.2816 23.261 24.2995C23.2453 24.3051 21.6473 24.8295 20.0895 24.8295C18.5317 24.8295 16.9336 24.305 16.9169 24.3017C16.9024 24.2972 16.8867 24.3017 16.8711 24.2983C16.8287 24.2883 16.7874 24.2726 16.7416 24.2726H14.8088C14.6626 23.9389 14.5086 23.1701 14.5086 22.0419C14.5086 21.8645 14.522 21.6759 14.5421 21.4851C15.292 21.5062 16.1836 21.7596 16.1836 22.0408C16.1836 22.3488 16.4336 22.5988 16.7416 22.5988C17.0496 22.5988 17.2996 22.3488 17.2996 22.0408C17.2996 20.6771 15.4583 20.426 14.7609 20.3792C14.8234 20.175 14.8981 19.983 14.9829 19.8023C14.984 19.8023 14.9852 19.8034 14.9863 19.8034C15.1425 19.8257 18.8262 20.3658 20.0894 20.3658C21.3527 20.3658 25.0364 19.8257 25.1926 19.8023C25.1937 19.8023 25.1937 19.8012 25.1949 19.8012C25.2797 19.9819 25.3545 20.1739 25.4169 20.3781C24.7195 20.4249 22.8793 20.6771 22.8793 22.0397C22.8793 22.3477 23.1293 22.5977 23.4373 22.5977C23.7453 22.5977 23.9952 22.3477 23.9952 22.0397C23.9952 21.7529 24.8813 21.5074 25.6357 21.484C25.6558 21.6748 25.6691 21.8634 25.6691 22.0397C25.6692 23.1691 25.5141 23.9379 25.3679 24.2716ZM25.9035 18.7856C25.8857 18.7599 25.8678 18.7354 25.8489 18.7109C25.9147 18.6718 25.9861 18.6316 26.0587 18.597C26.004 18.6796 25.9482 18.741 25.9035 18.7856Z" fill="white"/>
<path d="M13.5435 16.1029C13.75 15.873 13.7299 15.5215 13.5011 15.3151C13.1295 14.9814 12.6809 14.7426 12.2044 14.6232L10.7068 14.2494C11.7279 14.0195 12.268 13.707 12.2948 13.6903C12.4488 13.5988 12.5425 13.4314 12.5582 13.2517C12.5738 13.0732 12.4946 12.8901 12.3584 12.773C12.3506 12.7674 11.5974 12.0956 11.5974 9.81241C11.5974 7.51136 11.0014 6.34408 9.82636 6.34408H9.80627C9.42687 6.0037 9.08874 5.85864 8.37006 5.85864C7.35792 5.85864 5.14277 6.85519 5.14277 9.81241C5.14277 12.0889 4.39396 12.7641 4.39621 12.7641C4.24665 12.8757 4.16411 13.0531 4.17415 13.2384C4.1831 13.4236 4.28353 13.5921 4.44308 13.6881C4.47096 13.7048 5.00441 14.0195 6.03104 14.2505L4.53682 14.6232C3.18095 14.9624 2.23242 16.1766 2.23242 17.576C2.23242 17.884 2.48241 18.134 2.79041 18.134H11.2235C11.5315 18.134 11.7815 17.884 11.7815 17.576C11.7815 17.268 11.5315 17.018 11.2235 17.018L3.43094 17.0169C3.62176 16.3797 4.13623 15.873 4.80799 15.7057L6.80773 15.2068C7.0075 15.1566 7.1637 15.0015 7.21391 14.8006L7.42148 13.9726C7.4594 13.8197 7.43152 13.6568 7.34223 13.5263C7.25409 13.3946 7.11348 13.3076 6.95613 13.2852C6.37586 13.2049 5.92501 13.0844 5.60472 12.9761C5.92276 12.4048 6.25979 11.4205 6.25979 9.81356C6.25979 7.46899 8.02299 6.97571 8.37116 6.97571C8.86663 6.97571 8.92245 7.03153 9.19027 7.2982C9.29406 7.40198 9.43576 7.46115 9.58422 7.46115H9.82751C10.1533 7.46115 10.4826 8.18872 10.4826 9.81356C10.4826 11.4183 10.8196 12.4037 11.1365 12.975C10.814 13.0821 10.3632 13.2037 9.78509 13.2841C9.62774 13.3064 9.48823 13.3935 9.40009 13.5251C9.31079 13.6557 9.28291 13.8175 9.32084 13.9715L9.5284 14.8006C9.57862 15.0004 9.73372 15.1566 9.93459 15.2068L11.9343 15.7057C12.239 15.7827 12.5158 15.93 12.7556 16.1453C12.9856 16.3518 13.3382 16.3339 13.5435 16.1029Z" fill="white"/>
</g>
<defs>
<clipPath id="clip0_1989_324">
<rect width="27.3405" height="27.3405" fill="white"/>
</clipPath>
</defs>
</svg>
