<svg width="33" height="33" viewBox="0 0 33 33" fill="none" xmlns="http://www.w3.org/2000/svg">
<path d="M21.873 13.6702H24.6071" stroke="white" stroke-width="1.36702" stroke-linecap="round" stroke-linejoin="round"/>
<path d="M21.873 19.1383H24.6071" stroke="white" stroke-width="1.36702" stroke-linecap="round" stroke-linejoin="round"/>
<path d="M8.43555 20.5053C8.71735 19.7043 9.24086 19.0104 9.93383 18.5196C10.6268 18.0288 11.455 17.7652 12.3042 17.7652C13.1534 17.7652 13.9817 18.0288 14.6746 18.5196C15.3676 19.0104 15.8911 19.7043 16.1729 20.5053" stroke="white" stroke-width="1.36702" stroke-linecap="round" stroke-linejoin="round"/>
<path d="M12.3044 17.7713C13.8143 17.7713 15.0384 16.5472 15.0384 15.0372C15.0384 13.5272 13.8143 12.3032 12.3044 12.3032C10.7944 12.3032 9.57031 13.5272 9.57031 15.0372C9.57031 16.5472 10.7944 17.7713 12.3044 17.7713Z" stroke="white" stroke-width="1.36702" stroke-linecap="round" stroke-linejoin="round"/>
<path d="M27.3408 6.83508H5.46842C3.95845 6.83508 2.73438 8.05916 2.73438 9.56913V23.2394C2.73438 24.7493 3.95845 25.9734 5.46842 25.9734H27.3408C28.8508 25.9734 30.0749 24.7493 30.0749 23.2394V9.56913C30.0749 8.05916 28.8508 6.83508 27.3408 6.83508Z" stroke="white" stroke-width="1.36702" stroke-linecap="round" stroke-linejoin="round"/>
</svg>
