<svg width="24" height="25" viewBox="0 0 24 25" fill="none" xmlns="http://www.w3.org/2000/svg">
<path d="M2 9.21925C2.35068 7.28143 3.26572 5.49028 4.63035 4.07046C5.99499 2.65063 7.74846 1.66533 9.67086 1.23813C11.5933 0.810932 13.599 0.960849 15.4365 1.66908C17.2741 2.37732 18.8616 3.61233 20 5.21925" stroke="#EE5A3C" stroke-width="2" stroke-linecap="round" stroke-linejoin="round"/>
<path d="M21.709 1.21924L20.5355 6.75303L15.0017 5.5795" stroke="#EE5A3C" stroke-width="2" stroke-linecap="round" stroke-linejoin="round"/>
<path d="M22 15.2192C21.6493 17.1571 20.7343 18.9482 19.3696 20.368C18.005 21.7879 16.2515 22.7732 14.3291 23.2004C12.4067 23.6276 10.401 23.4776 8.56346 22.7694C6.72592 22.0612 5.1384 20.8262 4 19.2192" stroke="#EE5A3C" stroke-width="2" stroke-linecap="round" stroke-linejoin="round"/>
<path d="M2.67784 23.5453L2.97311 17.8962L8.62225 18.1914" stroke="#EE5A3C" stroke-width="2" stroke-linecap="round" stroke-linejoin="round"/>
</svg>
