<svg width="26" height="29" viewBox="0 0 26 29" fill="none" xmlns="http://www.w3.org/2000/svg">
<path d="M2 15V12C2 9.08262 3.15893 6.28473 5.22183 4.22183C7.28473 2.15893 10.0826 1 13 1C15.9174 1 18.7153 2.15893 20.7782 4.22183C22.8411 6.28473 24 9.08262 24 12V15" stroke="#EE5A3C" stroke-width="2" stroke-linecap="round" stroke-linejoin="round"/>
<path d="M4.5 15H2.5C1.67157 15 1 15.6716 1 16.5V21.5C1 22.3284 1.67157 23 2.5 23H4.5C5.32843 23 6 22.3284 6 21.5V16.5C6 15.6716 5.32843 15 4.5 15Z" stroke="#EE5A3C" stroke-width="2" stroke-linecap="round" stroke-linejoin="round"/>
<path d="M23.5 15H21.5C20.6716 15 20 15.6716 20 16.5V21.5C20 22.3284 20.6716 23 21.5 23H23.5C24.3284 23 25 22.3284 25 21.5V16.5C25 15.6716 24.3284 15 23.5 15Z" stroke="#EE5A3C" stroke-width="2" stroke-linecap="round" stroke-linejoin="round"/>
<path d="M24 23V24C24 25.0609 23.5786 26.0783 22.8284 26.8284C22.0783 27.5786 21.0609 28 20 28H15" stroke="#EE5A3C" stroke-width="2" stroke-linecap="round" stroke-linejoin="round"/>
</svg>
