<svg width="14" height="21" viewBox="0 0 14 21" fill="none" xmlns="http://www.w3.org/2000/svg">
<path d="M13.9265 5.00332L13.2075 7.74136H-0.000120966L0.709013 5.00332H13.9265ZM7.06167 20.1709L0.324899 12.1537L0.334748 9.69148H3.66374C4.4057 9.69148 5.02619 9.55359 5.52521 9.27782C6.02423 9.00204 6.3985 8.62778 6.64801 8.15502C6.89752 7.68227 7.02555 7.14385 7.03212 6.53978C7.02555 5.63366 6.75963 4.89498 6.23434 4.32373C5.71563 3.74592 4.85876 3.45701 3.66374 3.45701H-0.000120966L0.807503 -1.16984e-05H3.66374C5.33808 -1.16984e-05 6.73336 0.252781 7.84959 0.758367C8.97239 1.25739 9.81284 1.9698 10.371 2.89562C10.9356 3.82143 11.2213 4.92453 11.2278 6.20491C11.2213 7.34083 11.0308 8.33231 10.6566 9.17933C10.2889 10.0263 9.70779 10.7322 8.91329 11.2969C8.12537 11.8616 7.09778 12.2818 5.83053 12.5576L5.67295 12.6167L11.7006 19.9936V20.1709H7.06167ZM13.9462 -1.16984e-05L13.2075 2.77743H2.33411L3.07279 -1.16984e-05H13.9462Z" fill="#EE5A3C"/>
</svg>
