<svg width="49" height="50" viewBox="0 0 49 50" fill="none" xmlns="http://www.w3.org/2000/svg">
<path d="M35.7179 15.4748L28.5 20.8554V32.6008H33.5525C34.7336 32.6008 35.7179 31.6494 35.7179 30.4355V15.4748Z" fill="#4CAF50"/>
<path d="M5.46875 15.4748L12.6538 20.8882V32.6336H7.63412C6.45301 32.6336 5.46875 31.6822 5.46875 30.4683V15.4748Z" fill="#1E88E5"/>
<path d="M28.4993 11.8658L20.5924 17.8041L12.6855 11.8658V20.8553L20.5924 26.7937L28.4993 20.8553V11.8658Z" fill="#E53935"/>
<path d="M5.46875 12.6532V15.4748L12.6538 20.8882V11.8658L10.4228 10.1926C9.89791 9.79887 9.24174 9.56921 8.55276 9.56921C6.84671 9.56921 5.46875 10.9472 5.46875 12.6532Z" fill="#C62828"/>
<path d="M35.7179 12.6532V15.4748L28.5 20.8554V11.8658L30.7638 10.1926C31.2887 9.79887 31.9449 9.56921 32.6339 9.56921C34.3399 9.56921 35.7179 10.9472 35.7179 12.6532Z" fill="#FBC02D"/>
</svg>
