<svg width="31" height="31" viewBox="0 0 31 31" fill="none" xmlns="http://www.w3.org/2000/svg">
<g clip-path="url(#clip0_1989_447)">
<path d="M6.44117 18.9446C6.44117 20.6733 5.044 22.0704 3.31531 22.0704C1.58662 22.0704 0.189453 20.6733 0.189453 18.9446C0.189453 17.2159 1.58662 15.8187 3.31531 15.8187H6.44117V18.9446ZM8.0041 18.9446C8.0041 17.2159 9.40126 15.8187 11.13 15.8187C12.8586 15.8187 14.2558 17.2159 14.2558 18.9446V26.7592C14.2558 28.4879 12.8586 29.8851 11.13 29.8851C9.40126 29.8851 8.0041 28.4879 8.0041 26.7592V18.9446Z" fill="#E01E5A"/>
<path d="M11.1302 6.39377C9.4015 6.39377 8.00434 4.99661 8.00434 3.26792C8.00434 1.53922 9.4015 0.142059 11.1302 0.142059C12.8589 0.142059 14.2561 1.53922 14.2561 3.26792V6.39377H11.1302ZM11.1302 7.98038C12.8589 7.98038 14.2561 9.37755 14.2561 11.1062C14.2561 12.8349 12.8589 14.2321 11.1302 14.2321H3.29187C1.56318 14.2321 0.166016 12.8349 0.166016 11.1062C0.166016 9.37755 1.56318 7.98038 3.29187 7.98038H11.1302Z" fill="#36C5F0"/>
<path d="M23.6584 11.1062C23.6584 9.37755 25.0556 7.98038 26.7842 7.98038C28.5129 7.98038 29.9101 9.37755 29.9101 11.1062C29.9101 12.8349 28.5129 14.2321 26.7842 14.2321H23.6584V11.1062ZM22.0955 11.1062C22.0955 12.8349 20.6983 14.2321 18.9696 14.2321C17.2409 14.2321 15.8438 12.8349 15.8438 11.1062V3.26792C15.8438 1.53922 17.2409 0.142059 18.9696 0.142059C20.6983 0.142059 22.0955 1.53922 22.0955 3.26792V11.1062Z" fill="#2EB67D"/>
<path d="M18.9696 23.6334C20.6983 23.6334 22.0955 25.0305 22.0955 26.7592C22.0955 28.4879 20.6983 29.8851 18.9696 29.8851C17.2409 29.8851 15.8438 28.4879 15.8438 26.7592V23.6334H18.9696ZM18.9696 22.0704C17.2409 22.0704 15.8438 20.6733 15.8438 18.9446C15.8438 17.2159 17.2409 15.8187 18.9696 15.8187H26.8079C28.5366 15.8187 29.9338 17.2159 29.9338 18.9446C29.9338 20.6733 28.5366 22.0704 26.8079 22.0704H18.9696Z" fill="#ECB22E"/>
</g>
<defs>
<clipPath id="clip0_1989_447">
<rect width="30.0745" height="30.0745" fill="white"/>
</clipPath>
</defs>
</svg>
