<svg width="29" height="29" viewBox="0 0 29 29" fill="none" xmlns="http://www.w3.org/2000/svg">
<path d="M26.3155 20.3345C26.3155 20.9689 26.0635 21.5774 25.6148 22.0261C25.1662 22.4747 24.5577 22.7267 23.9232 22.7267H8.16757C7.53315 22.7269 6.92476 22.979 6.47622 23.4277L3.84231 26.0616C3.72354 26.1804 3.57222 26.2612 3.4075 26.294C3.24277 26.3267 3.07203 26.3099 2.91686 26.2457C2.76169 26.1814 2.62906 26.0725 2.53574 25.9329C2.44242 25.7933 2.3926 25.6291 2.39258 25.4611V5.9807C2.39258 5.34623 2.64462 4.73774 3.09326 4.2891C3.54191 3.84045 4.1504 3.58841 4.78487 3.58841H23.9232C24.5577 3.58841 25.1662 3.84045 25.6148 4.2891C26.0635 4.73774 26.3155 5.34623 26.3155 5.9807V20.3345Z" stroke="white" stroke-width="1.36702" stroke-linecap="round" stroke-linejoin="round"/>
<path d="M14.3535 13.1576H14.366" stroke="white" stroke-width="2.05054" stroke-linecap="round" stroke-linejoin="round"/>
<path d="M19.1387 13.1576H19.1512" stroke="white" stroke-width="2.05054" stroke-linecap="round" stroke-linejoin="round"/>
<path d="M9.56836 13.1576H9.58088" stroke="white" stroke-width="2.05054" stroke-linecap="round" stroke-linejoin="round"/>
</svg>
