<svg preserveAspectRatio="none" width="100%" height="100%" overflow="visible" style="display: block;" viewBox="0 0 52.7448 9.1769" fill="none" xmlns="http://www.w3.org/2000/svg">
<g id="Powered by">
<path id="Vector" d="M48.404 2.14707L50.2394 6.31357L52.0749 2.14707H52.7448L49.6337 9.1769H48.9638L49.909 7.06611L47.734 2.14707H48.404Z" fill="var(--fill-0, #02563D)"/>
<path id="Vector_2" d="M44.8193 7.45198C43.874 7.45198 43.1674 7.06654 42.6901 6.32317V7.34185H42.0661V0L42.6901 0V3.16617C43.1674 2.42281 43.874 2.03736 44.8193 2.03736C46.306 2.03736 47.4807 3.23042 47.4807 4.74467C47.4807 6.25893 46.306 7.45198 44.8193 7.45198ZM44.7734 6.84628C45.9481 6.84628 46.8658 5.91937 46.8658 4.74467C46.8658 3.56998 45.9481 2.64307 44.7734 2.64307C43.6079 2.64307 42.6901 3.56998 42.6901 4.74467C42.6901 5.91937 43.6079 6.84628 44.7734 6.84628Z" fill="var(--fill-0, #02563D)"/>
<path id="Vector_3" d="M35.6588 7.45198C34.1721 7.45198 32.9974 6.25893 32.9974 4.74467C32.9974 3.23042 34.1721 2.03736 35.6588 2.03736C36.6041 2.03736 37.3107 2.42281 37.788 3.16617V0L38.412 0V7.34185H37.788V6.32317C37.3107 7.06653 36.6041 7.45198 35.6588 7.45198ZM35.7047 6.84628C36.8702 6.84628 37.788 5.91937 37.788 4.74467C37.788 3.56998 36.8702 2.64307 35.7047 2.64307C34.53 2.64307 33.6123 3.56998 33.6123 4.74467C33.6123 5.91937 34.53 6.84628 35.7047 6.84628Z" fill="var(--fill-0, #02563D)"/>
<path id="Vector_4" d="M29.7254 7.45156C28.2754 7.45156 27.1282 6.25851 27.1282 4.74425C27.1282 3.22999 28.2754 2.03694 29.7254 2.03694C31.1754 2.03694 32.3134 3.22999 32.3134 4.74425C32.3134 4.83602 32.3134 4.9278 32.3042 5.01039H27.7706C27.8899 6.05661 28.7067 6.84586 29.7254 6.84586C30.3953 6.84586 30.9735 6.51547 31.3222 5.99237H32.0381C31.6067 6.86421 30.7441 7.45156 29.7254 7.45156ZM27.7706 4.42304H31.6802C31.5333 3.40436 30.7257 2.64264 29.7254 2.64264C28.7251 2.64264 27.9175 3.40436 27.7706 4.42304Z" fill="var(--fill-0, #02563D)"/>
<path id="Vector_5" d="M24.7037 7.34151H24.0797V2.14715H24.7037V2.9364C24.823 2.70697 24.9882 2.51424 25.181 2.37658C25.4471 2.18386 25.7775 2.07373 26.1446 2.07373C26.4291 2.07373 26.7136 2.13797 26.9797 2.28481L26.631 2.89051C26.4382 2.75285 26.2272 2.69779 26.0161 2.69779C25.6765 2.69779 25.4012 2.81709 25.181 3.00982C24.8781 3.29431 24.7037 3.744 24.7037 4.25793V7.34151Z" fill="var(--fill-0, #02563D)"/>
<path id="Vector_6" d="M20.4858 7.45156C19.0358 7.45156 17.8886 6.25851 17.8886 4.74425C17.8886 3.22999 19.0358 2.03694 20.4858 2.03694C21.9358 2.03694 23.0738 3.22999 23.0738 4.74425C23.0738 4.83602 23.0738 4.9278 23.0646 5.01039H18.531C18.6503 6.05661 19.4671 6.84586 20.4858 6.84586C21.1558 6.84586 21.7339 6.51547 22.0827 5.99237H22.7985C22.3672 6.86421 21.5045 7.45156 20.4858 7.45156ZM18.531 4.42304H22.4406C22.2937 3.40436 21.4861 2.64264 20.4858 2.64264C19.4855 2.64264 18.6779 3.40436 18.531 4.42304Z" fill="var(--fill-0, #02563D)"/>
<path id="Vector_7" d="M12.3612 7.45156H12.1593L10.0485 2.14707H10.6909L12.251 6.09332L13.7378 2.03694H13.9397L15.4264 6.08414L16.9865 2.14707H17.6289L15.5181 7.45156H15.3162L13.8387 3.4686L12.3612 7.45156Z" fill="var(--fill-0, #02563D)"/>
<path id="Vector_8" d="M7.08025 7.45156C5.566 7.45156 4.37294 6.25851 4.37294 4.74425C4.37294 3.22999 5.566 2.03694 7.08025 2.03694C8.59451 2.03694 9.78756 3.22999 9.78756 4.74425C9.78756 6.25851 8.59451 7.45156 7.08025 7.45156ZM7.08025 6.84586C8.25495 6.84586 9.17268 5.91895 9.17268 4.74425C9.17268 3.56955 8.25495 2.64264 7.08025 2.64264C5.91473 2.64264 4.997 3.56955 4.997 4.74425C4.997 5.91895 5.91473 6.84586 7.08025 6.84586Z" fill="var(--fill-0, #02563D)"/>
<path id="Vector_9" d="M0.642412 7.34184H0L0 0.917715H1.83546C3.08358 0.917715 3.85447 1.59684 3.85447 2.70729C3.85447 3.81775 3.08358 4.49687 1.83546 4.49687H0.642412V7.34184ZM0.642412 1.52342V3.89117H1.83546C2.69813 3.89117 3.21206 3.45066 3.21206 2.70729C3.21206 1.96393 2.69813 1.52342 1.83546 1.52342H0.642412Z" fill="var(--fill-0, #02563D)"/>
</g>
</svg>
