<svg preserveAspectRatio="none" width="100%" height="100%" overflow="visible" style="display: block;" viewBox="0 0 40.9565 12" fill="none" xmlns="http://www.w3.org/2000/svg">
<g id="Group 40468">
<path id="Ellipse 546 (Stroke)" d="M6.97824 8.08698C6.97824 6.39412 5.60588 5.02176 3.91302 5.02176C2.22016 5.02176 0.847805 6.39411 0.847805 8.08698C0.847809 9.77983 2.22017 11.1522 3.91302 11.1522V12L3.81203 11.9987C1.73117 11.946 0.0540312 10.2688 0.00131036 8.18797L0 8.08698C0 5.92588 1.75193 4.17395 3.91302 4.17395L4.01402 4.17526C6.12844 4.22883 7.82605 5.95964 7.82605 8.08698L7.82474 8.18797C7.77117 10.3024 6.04035 12 3.91302 12V11.1522C5.60588 11.1522 6.97824 9.77983 6.97824 8.08698Z" fill="var(--fill-0, #02563D)"/>
<g id="Group 40453">
<path id="Vector" d="M8.70619 11.9338V4.18932H9.63922V5.43617C10.2159 4.60365 11.0935 4.17383 12.2879 4.17383C12.9464 4.17383 13.5231 4.30807 14.0167 4.54944C14.4562 4.7908 14.7848 5.11349 15.0329 5.5433C15.2665 5.97312 15.3892 6.47005 15.3892 7.04701V11.9338H14.4562V7.04701C14.4562 6.43004 14.2503 5.94601 13.8385 5.59752C13.4268 5.24902 12.891 5.06057 12.2047 5.06057C11.3812 5.06057 10.7504 5.28903 10.311 5.74466C9.85829 6.20158 9.63791 6.84566 9.63791 7.67819V11.9338H8.70487H8.70619Z" fill="var(--fill-0, #02563D)"/>
<path id="Vector_2" d="M18.1491 11.4484C17.5565 11.1064 17.0986 10.6327 16.7621 10.0402C16.4256 9.44779 16.2645 8.78951 16.2645 8.07831C16.2645 7.36712 16.4256 6.72175 16.7621 6.1293C17.0986 5.53685 17.5565 5.06314 18.1491 4.7211C18.7284 4.37905 19.3738 4.19448 20.0745 4.19448C20.7753 4.19448 21.4075 4.37905 21.9855 4.7211C22.5648 5.06314 23.0215 5.53685 23.358 6.1293C23.6945 6.72175 23.87 7.36712 23.87 8.07831C23.87 8.26289 23.8568 8.38164 23.8568 8.46037H17.2068C17.2609 8.96118 17.4219 9.40777 17.6912 9.80274C17.9604 10.2106 18.2969 10.5268 18.7139 10.7501C19.1178 10.9876 19.5757 11.0922 20.0732 11.0922C20.5708 11.0922 21.0023 10.9864 21.4061 10.7631C21.81 10.5527 22.1465 10.2493 22.4157 9.86728H23.4662C23.1429 10.5126 22.6717 11.0264 22.0792 11.3942C21.4734 11.7763 20.8004 11.9609 20.0732 11.9609C19.3461 11.9609 18.7271 11.7892 18.1478 11.4471L18.1491 11.4484ZM22.941 7.61752C22.8605 7.14382 22.6981 6.70884 22.4289 6.31387C22.1597 5.91891 21.81 5.61558 21.4061 5.39228C21.0023 5.18189 20.5576 5.06315 20.0732 5.06315C19.5889 5.06315 19.131 5.18189 18.7271 5.39228C18.3233 5.61558 17.9868 5.91891 17.7175 6.31387C17.4483 6.70884 17.2728 7.14382 17.2055 7.61752H22.9396H22.941Z" fill="var(--fill-0, #02563D)"/>
<path id="Vector_3" d="M8.34773 4.18945H8.87561V5.09297H8.34773V4.18945Z" fill="var(--fill-0, #02563D)"/>
</g>
<g id="Layer_1" clip-path="url(#clip0_0_30)">
<g id="Exclude">
</g>
<path id="Vector_4" d="M38.0558 1.17385C38.0558 2.46175 37.0734 3.39846 35.8442 3.39846C37.0733 3.39846 38.0558 4.33512 38.0558 5.62307C38.0558 4.33518 39.0382 3.39846 40.2674 3.39846C39.0382 3.39846 38.0558 2.46181 38.0558 1.17385Z" fill="var(--fill-0, #23A578)"/>
</g>
<path id="Subtract" d="M29.6536 4.19613C32.7412 4.19618 33.924 5.47638 33.9241 7.39145V11.87H30.9349C31.0913 11.6395 31.1848 11.3846 31.1878 11.1248V9.62973L30.1615 9.64926C28.735 9.66889 27.4642 10.0891 27.4642 11.3202C27.4642 11.5219 27.5003 11.7052 27.5628 11.87H24.7689C24.7627 11.7829 24.7581 11.6941 24.7581 11.6034C24.7582 9.39504 26.3509 8.2226 29.9271 8.18344L31.1878 8.16391V7.55746C31.1876 6.60995 30.5817 6.11222 29.5169 6.12191C28.6962 6.13178 27.8452 6.49268 27.5618 7.40121H25.1878C25.2955 5.31035 27.1328 4.19623 29.6536 4.19613ZM35.6868 4.44125C36.6934 4.58859 37.4636 5.37935 37.5325 6.44711V11.87H35.4954V4.44125H35.6868Z" fill="url(#paint0_linear_0_30)"/>
<path id="Vector_5" d="M39.8474 0C39.8474 0.679662 39.3549 1.17391 38.7387 1.17391C39.3549 1.17391 39.8474 1.66822 39.8474 2.34781C39.8474 1.66815 40.3399 1.17391 40.9561 1.17391C40.3398 1.17391 39.8474 0.679596 39.8474 0Z" fill="var(--fill-0, #25A468)" fill-opacity="0.6"/>
</g>
<defs>
<linearGradient id="paint0_linear_0_30" x1="36.514" y1="4.44152" x2="36.514" y2="14.4961" gradientUnits="userSpaceOnUse">
<stop stop-color="#02563D"/>
<stop offset="0.629808" stop-color="#23A578"/>
</linearGradient>
<clipPath id="clip0_0_30">
<rect width="5.86954" height="5.3478" fill="white" transform="translate(35.0869 1.17396)"/>
</clipPath>
</defs>
</svg>
