<svg preserveAspectRatio="none" width="100%" height="100%" overflow="visible" style="display: block;" viewBox="0 0 28 28" fill="none" xmlns="http://www.w3.org/2000/svg">
<g id="Frame">
<path id="Vector" d="M11.6667 12.8333C14.244 12.8333 16.3333 10.744 16.3333 8.16667C16.3333 5.58934 14.244 3.5 11.6667 3.5C9.08934 3.5 7 5.58934 7 8.16667C7 10.744 9.08934 12.8333 11.6667 12.8333Z" stroke="var(--stroke-0, #EE5A3C)" stroke-width="2.33333" stroke-linecap="round" stroke-linejoin="round"/>
<path id="Vector_2" d="M12.0167 17.5H8.16667C6.92899 17.5 5.742 17.9917 4.86684 18.8668C3.99167 19.742 3.5 20.929 3.5 22.1667V24.5" stroke="var(--stroke-0, #EE5A3C)" stroke-width="2.33333" stroke-linecap="round" stroke-linejoin="round"/>
<path id="Vector_3" d="M19.8333 23.3333C21.7663 23.3333 23.3333 21.7663 23.3333 19.8333C23.3333 17.9003 21.7663 16.3333 19.8333 16.3333C17.9003 16.3333 16.3333 17.9003 16.3333 19.8333C16.3333 21.7663 17.9003 23.3333 19.8333 23.3333Z" stroke="var(--stroke-0, #EE5A3C)" stroke-width="2.33333" stroke-linecap="round" stroke-linejoin="round"/>
<path id="Vector_4" d="M24.5 24.5L22.2833 22.2833" stroke="var(--stroke-0, #EE5A3C)" stroke-width="2.33333" stroke-linecap="round" stroke-linejoin="round"/>
</g>
</svg>
