<svg preserveAspectRatio="none" width="100%" height="100%" overflow="visible" style="display: block;" viewBox="0 0 80.3949 22.8816" fill="none" xmlns="http://www.w3.org/2000/svg">
<g id="Group 1171275868">
<circle id="mic control" cx="11.4408" cy="11.4408" r="11.4408" fill="var(--fill-0, white)"/>
<circle id="camera control" cx="39.888" cy="11.4408" r="11.4408" fill="var(--fill-0, #2E2E2E)"/>
<circle id="hangup control" cx="68.9541" cy="11.4408" r="11.4408" fill="var(--fill-0, #F24033)"/>
<g id="Group 1171275859">
<path id="Vector" d="M11.1604 14.3811V15.7185" stroke="var(--stroke-0, #2E2E2E)" stroke-width="0.618421" stroke-linecap="round" stroke-linejoin="round"/>
<path id="Vector_2" d="M14.2808 10.3691V11.2607C14.2808 12.0883 13.952 12.882 13.3669 13.4672C12.7817 14.0524 11.988 14.3811 11.1604 14.3811C10.3328 14.3811 9.53907 14.0524 8.95388 13.4672C8.36868 12.882 8.03992 12.0883 8.03992 11.2607V10.3691" stroke="var(--stroke-0, #2E2E2E)" stroke-width="0.618421" stroke-linecap="round" stroke-linejoin="round"/>
<path id="Vector_3" d="M12.4972 8.14007C12.4972 7.40148 11.8985 6.80274 11.1599 6.80274C10.4213 6.80274 9.82256 7.40148 9.82256 8.14007V11.2605C9.82256 11.9991 10.4213 12.5978 11.1599 12.5978C11.8985 12.5978 12.4972 11.9991 12.4972 11.2605V8.14007Z" stroke="var(--stroke-0, #2E2E2E)" stroke-width="0.618421" stroke-linecap="round" stroke-linejoin="round"/>
</g>
<g id="Frame" clip-path="url(#clip0_0_14)">
<path id="Vector_4" d="M42.0525 12.2138L44.4751 13.8288C44.51 13.852 44.5506 13.8654 44.5925 13.8674C44.6344 13.8694 44.676 13.86 44.713 13.8402C44.75 13.8204 44.7809 13.7909 44.8025 13.7549C44.824 13.719 44.8354 13.6778 44.8354 13.6358V9.83441C44.8355 9.79361 44.8247 9.75352 44.8043 9.7182C44.7838 9.68288 44.7544 9.65358 44.7191 9.63325C44.6837 9.61293 44.6436 9.6023 44.6027 9.60244C44.5619 9.60257 44.5219 9.61348 44.4867 9.63404L42.0525 11.0542" stroke="var(--stroke-0, white)" stroke-width="0.618421" stroke-linecap="round" stroke-linejoin="round"/>
<path id="Vector_5" d="M41.1251 8.96725H36.487C35.9746 8.96725 35.5593 9.38257 35.5593 9.89488V13.6054C35.5593 14.1177 35.9746 14.533 36.487 14.533H41.1251C41.6374 14.533 42.0527 14.1177 42.0527 13.6054V9.89488C42.0527 9.38257 41.6374 8.96725 41.1251 8.96725Z" stroke="var(--stroke-0, white)" stroke-width="0.618421" stroke-linecap="round" stroke-linejoin="round"/>
</g>
<g id="Frame_2" clip-path="url(#clip1_0_14)">
<path id="Vector_6" d="M69.6623 13.2065C69.7421 13.2432 69.832 13.2515 69.9173 13.2302C70.0025 13.209 70.0779 13.1593 70.1311 13.0894L70.2683 12.9097C70.3403 12.8137 70.4337 12.7357 70.5411 12.6821C70.6484 12.6284 70.7668 12.6004 70.8868 12.6004H72.0463C72.2513 12.6004 72.4479 12.6819 72.5929 12.8269C72.7379 12.9718 72.8193 13.1685 72.8193 13.3735V14.533C72.8193 14.738 72.7379 14.9347 72.5929 15.0796C72.4479 15.2246 72.2513 15.306 72.0463 15.306C70.2011 15.306 68.4315 14.573 67.1268 13.2683C65.8221 11.9636 65.0891 10.194 65.0891 8.3488C65.0891 8.14378 65.1705 7.94716 65.3155 7.80219C65.4605 7.65722 65.6571 7.57578 65.8621 7.57578H67.0216C67.2267 7.57578 67.4233 7.65722 67.5682 7.80219C67.7132 7.94716 67.7947 8.14378 67.7947 8.3488V9.50834C67.7947 9.62835 67.7667 9.74671 67.7131 9.85405C67.6594 9.96139 67.5815 10.0548 67.4855 10.1268L67.3046 10.2624C67.2336 10.3166 67.1836 10.3937 67.163 10.4806C67.1424 10.5674 67.1526 10.6588 67.1917 10.739C67.7199 11.8119 68.5887 12.6796 69.6623 13.2065Z" stroke="var(--stroke-0, white)" stroke-width="0.618421" stroke-linecap="round" stroke-linejoin="round"/>
</g>
</g>
<defs>
<clipPath id="clip0_0_14">
<rect width="11.1316" height="11.1316" fill="white" transform="translate(34.6316 6.18432)"/>
</clipPath>
<clipPath id="clip1_0_14">
<rect width="9.27631" height="9.27631" fill="white" transform="translate(64.3155 6.80265)"/>
</clipPath>
</defs>
</svg>
