<svg preserveAspectRatio="none" width="100%" height="100%" overflow="visible" style="display: block;" viewBox="0 0 174.775 51.2077" fill="none" xmlns="http://www.w3.org/2000/svg">
<g id="Group 40468">
<path id="Ellipse 546 (Stroke)" d="M29.7785 34.5096C29.7785 27.2856 23.9222 21.4293 16.6982 21.4292C9.47418 21.4292 3.61787 27.2856 3.61787 34.5096C3.61788 41.7335 9.47419 47.5899 16.6982 47.5899V51.2077L16.2672 51.2021C7.38747 50.9772 0.230569 43.8203 0.00559176 34.9405L0 34.5096C0 25.2874 7.47605 17.8114 16.6982 17.8114L17.1291 17.817C26.1521 18.0456 33.3964 25.4315 33.3964 34.5096L33.3908 34.9405C33.1622 43.9635 25.7762 51.2077 16.6982 51.2077V47.5899C23.9222 47.5899 29.7785 41.7335 29.7785 34.5096Z" fill="var(--fill-0, #02563D)"/>
<g id="Group 40453">
<path id="Vector" d="M37.1523 50.9255V17.8774H41.1339V23.1982C43.5949 19.6455 47.34 17.8113 52.4366 17.8113C55.2468 17.8113 57.7078 18.3842 59.8141 19.4142C61.6894 20.4442 63.0917 21.8212 64.1504 23.6553C65.1472 25.4895 65.671 27.6101 65.671 30.0722V50.9255H61.6894V30.0722C61.6894 27.4394 60.8108 25.3738 59.0538 23.8867C57.2967 22.3995 55.0103 21.5953 52.0818 21.5953C48.5677 21.5953 45.8757 22.5703 44.0004 24.5146C42.0687 26.4644 41.1283 29.2129 41.1283 32.7656V50.9255H37.1467H37.1523Z" fill="var(--fill-0, #02563D)"/>
<path id="Vector_2" d="M77.4493 48.8547C74.9207 47.3951 72.9666 45.3736 71.5305 42.8454C70.0944 40.3173 69.4074 37.5082 69.4074 34.4733C69.4074 31.4383 70.0944 28.6843 71.5305 26.1562C72.9666 23.628 74.9207 21.6065 77.4493 20.1469C79.9216 18.6873 82.6755 17.8996 85.6659 17.8996C88.6563 17.8996 91.3538 18.6873 93.8205 20.1469C96.2928 21.6065 98.2414 23.628 99.6774 26.1562C101.113 28.6843 101.862 31.4383 101.862 34.4733C101.862 35.2609 101.806 35.7676 101.806 36.1036H73.4283C73.6592 38.2407 74.3463 40.1465 75.4952 41.832C76.644 43.5725 78.0801 44.922 79.8597 45.8749C81.583 46.8883 83.5371 47.3345 85.6603 47.3345C87.7834 47.3345 89.6249 46.8828 91.3482 45.9299C93.0715 45.0321 94.5076 43.7377 95.6564 42.1074H100.139C98.7595 44.8614 96.749 47.0536 94.2204 48.6234C91.6354 50.2537 88.7633 51.0414 85.6603 51.0414C82.5572 51.0414 79.916 50.3088 77.4437 48.8492L77.4493 48.8547ZM97.8978 32.5069C97.5543 30.4855 96.8616 28.6293 95.7127 26.9438C94.5639 25.2583 93.0715 23.964 91.3482 23.0111C89.6249 22.1133 87.7271 21.6065 85.6603 21.6065C83.5935 21.6065 81.6393 22.1133 79.916 23.0111C78.1927 23.964 76.7566 25.2583 75.6078 26.9438C74.4589 28.6293 73.7099 30.4855 73.4227 32.5069H97.8922H97.8978Z" fill="var(--fill-0, #02563D)"/>
<path id="Vector_3" d="M35.6239 17.8779H37.8765V21.7335H35.6239V17.8779Z" fill="var(--fill-0, #02563D)"/>
</g>
<g id="Layer_1" clip-path="url(#clip0_0_98)">
<g id="Exclude">
</g>
<path id="Vector_4" d="M162.397 5.00929C162.397 10.5052 158.205 14.5024 152.959 14.5024C158.204 14.5024 162.397 18.4995 162.397 23.9956C162.397 18.4997 166.589 14.5024 171.835 14.5024C166.589 14.5024 162.397 10.5054 162.397 5.00929Z" fill="var(--fill-0, #23A578)"/>
</g>
<path id="Subtract" d="M126.538 17.9061C139.715 17.9061 144.761 23.3688 144.761 31.5418V50.6512H132.009C132.675 49.6679 133.073 48.5797 133.085 47.4715V41.0916L128.706 41.1746C122.618 41.2581 117.197 43.0515 117.197 48.3055C117.197 49.1648 117.342 49.9491 117.608 50.6512H105.687C105.66 50.2801 105.647 49.9012 105.647 49.5145C105.647 40.0904 112.444 35.0866 127.706 34.9197L133.085 34.8367V32.2508C133.085 28.206 130.499 26.0792 125.954 26.1209C122.452 26.1627 118.824 27.7059 117.614 31.5838H107.482C107.94 22.6601 115.78 17.9061 126.538 17.9061ZM152.348 18.9529C156.589 19.6012 159.84 22.9377 160.164 27.4344V50.6512H151.471V18.9529H152.348Z" fill="url(#paint0_linear_0_98)"/>
<path id="Vector_5" d="M170.043 0C170.043 2.90034 167.941 5.00946 165.312 5.00946C167.941 5.00946 170.043 7.11885 170.043 10.0189C170.043 7.11857 172.145 5.00946 174.774 5.00946C172.144 5.00946 170.043 2.90006 170.043 0Z" fill="var(--fill-0, #25A468)" fill-opacity="0.6"/>
</g>
<defs>
<linearGradient id="paint0_linear_0_98" x1="155.817" y1="18.9532" x2="155.817" y2="61.8574" gradientUnits="userSpaceOnUse">
<stop stop-color="#02563D"/>
<stop offset="0.629808" stop-color="#23A578"/>
</linearGradient>
<clipPath id="clip0_0_98">
<rect width="25.0473" height="22.8209" fill="white" transform="translate(149.727 5.00928)"/>
</clipPath>
</defs>
</svg>
