<svg width="53" height="51" viewBox="0 0 53 51" fill="none" xmlns="http://www.w3.org/2000/svg">
<path d="M19.7355 22.8281L24.7677 25.367L20.6083 41.4553L18.6364 50.5618C8.3026 47.4151 0 38.0182 0 26.3889C0 24.076 0.301717 21.8384 0.8836 19.703C1.1045 19.789 1.32001 19.8912 1.52475 20.0042L6.58389 22.812C7.79076 23.4843 9.20775 23.7049 10.5547 23.4359L15.9479 22.3332C17.2302 22.0697 18.5664 22.2526 19.7301 22.8335L19.7355 22.8281Z" fill="#02563D"/>
<path d="M17.4349 16.6316L25.9315 20.9186V20.9294L20.1665 18.326C18.7657 17.702 17.1655 17.6428 15.7324 18.1861L10.7486 20.058C9.3101 20.6066 7.71531 20.5474 6.31448 19.9181L1.50317 17.7397C1.76718 17.0027 2.06351 16.2766 2.39755 15.5773L4.28867 16.6262C5.49554 17.2932 6.90714 17.5084 8.25948 17.2287L13.6581 16.126C14.935 15.8678 16.2658 16.0453 17.4295 16.637L17.4349 16.6316Z" fill="#02563D"/>
<path d="M52.3372 25.9586V26.1254C52.3318 27.6369 52.1863 29.1161 51.9331 30.5522C51.9061 30.7028 51.8738 30.8427 51.8522 30.9879C51.8307 31.1063 51.8038 31.2246 51.7768 31.3429C51.7391 31.5151 51.7014 31.6818 51.6637 31.8485C50.8124 35.3664 49.2068 38.626 47.0248 41.4499H31.7073L30.5004 30.5899H44.6757L46.2543 24.7645L25.9315 15.7172L17.866 12.1294C16.4706 11.5001 14.8758 11.4463 13.4426 11.9896L8.45889 13.8668C7.02035 14.4101 5.43095 14.3617 4.03012 13.727L3.52905 13.5011C3.67991 13.2321 3.82538 12.9739 3.98163 12.7104C8.51816 5.09383 16.8315 0 26.341 0C28.6362 0 30.856 0.29584 32.9734 0.855247C32.9788 0.855247 32.9896 0.855247 32.9949 0.855247C43.7113 3.68456 51.7176 13.1622 52.2994 24.6085C52.321 25.055 52.3372 25.5014 52.3372 25.9533V25.9586Z" fill="#02563D"/>
</svg>
