<svg width="17" height="16" viewBox="0 0 17 16" fill="none" xmlns="http://www.w3.org/2000/svg">
<path d="M6.24518 7.22381L7.83759 8.02721L6.52138 13.1183L5.89737 16C2.6273 15.0042 0 12.0306 0 8.35062C0 7.6187 0.0954763 6.91062 0.279609 6.23488C0.349512 6.26211 0.417709 6.29445 0.482497 6.3302L2.08343 7.2187C2.46534 7.43147 2.91373 7.50126 3.33997 7.41615L5.04661 7.06722C5.45238 6.98381 5.87521 7.04168 6.24347 7.22551L6.24518 7.22381Z" fill="#02563D"/>
<path d="M5.51708 5.26297L8.20576 6.61956V6.62296L6.38148 5.79914C5.9382 5.60169 5.43183 5.58297 4.97832 5.75488L3.40125 6.34722C2.94604 6.52084 2.44138 6.50211 1.99809 6.30296L0.475586 5.61361C0.559128 5.38041 0.652899 5.15063 0.758605 4.92935L1.35704 5.26127C1.73894 5.47233 2.18564 5.54041 2.61357 5.4519L4.32192 5.10297C4.72599 5.02127 5.14711 5.07744 5.51537 5.26467L5.51708 5.26297Z" fill="#02563D"/>
<path d="M16.5617 8.21444V8.26721C16.56 8.7455 16.514 9.21359 16.4338 9.66805C16.4253 9.71571 16.4151 9.75997 16.4083 9.80593C16.4014 9.84337 16.3929 9.88082 16.3844 9.91827C16.3725 9.97273 16.3605 10.0255 16.3486 10.0783C16.0792 11.1915 15.5711 12.2229 14.8806 13.1166H10.0335L9.6516 9.67997H14.1373L14.6368 7.83657L8.20582 4.9736L5.65353 3.83829C5.21195 3.63914 4.70729 3.62212 4.25378 3.79403L2.67671 4.38807C2.2215 4.55999 1.71854 4.54467 1.27526 4.34382L1.1167 4.27233C1.16444 4.18722 1.21047 4.10552 1.25991 4.02211C2.69547 1.61191 5.32618 0 8.33539 0C9.0617 0 9.76413 0.0936167 10.4342 0.270637C10.4359 0.270637 10.4393 0.270637 10.441 0.270637C13.8321 1.16595 16.3656 4.16509 16.5498 7.78721C16.5566 7.92848 16.5617 8.06976 16.5617 8.21274V8.21444Z" fill="#02563D"/>
</svg>
