<svg width="44" height="44" viewBox="0 0 44 44" fill="none" xmlns="http://www.w3.org/2000/svg">
<path d="M34 0H10C4.47715 0 0 4.47715 0 10V34C0 39.5228 4.47715 44 10 44H34C39.5228 44 44 39.5228 44 34V10C44 4.47715 39.5228 0 34 0Z" fill="#EF492D"/>
<path d="M31.8692 16.4226H28.1116C28.2128 15.833 28.578 15.503 29.3172 15.129L30.008 14.777C31.2444 14.1434 31.9044 13.4262 31.9044 12.2558C31.9044 11.521 31.6184 10.9402 31.0508 10.5222C30.4832 10.1042 29.8144 9.89737 29.0312 9.89737C28.4253 9.89025 27.8304 10.06 27.3196 10.3858C26.8048 10.7026 26.422 11.1118 26.1844 11.6222L27.2712 12.7134C27.6936 11.8598 28.3052 11.4418 29.1104 11.4418C29.7924 11.4418 30.2104 11.7938 30.2104 12.2822C30.2104 12.6914 30.008 13.0302 29.2248 13.4262L28.7804 13.6418C27.8168 14.1302 27.148 14.689 26.7608 15.3226C26.3736 15.9562 26.1844 16.7526 26.1844 17.7162V17.9802H31.8692V16.4226ZM31.3676 19.7754H25.146L22.0352 25.161H28.2568L31.3676 30.551L34.4784 25.161L31.3676 19.7754Z" fill="white"/>
<path d="M22.5708 28.756C18.6108 28.756 15.3856 25.5308 15.3856 21.5708C15.3856 17.6108 18.6108 14.3856 22.5708 14.3856L25.0304 9.242C24.2204 9.08094 23.3966 8.99988 22.5708 9C15.6276 9 10 14.6276 10 21.5708C10 28.514 15.6276 34.1416 22.5708 34.1416C25.2316 34.1466 27.8244 33.3018 29.9716 31.7304L27.2524 27.0136C25.9515 28.1373 24.2899 28.7558 22.5708 28.756Z" fill="white"/>
</svg>
