<svg width="44" height="44" viewBox="0 0 44 44" fill="none" xmlns="http://www.w3.org/2000/svg">
<path d="M22 44C34.1503 44 44 34.1503 44 22C44 9.84974 34.1503 0 22 0C9.84974 0 0 9.84974 0 22C0 34.1503 9.84974 44 22 44Z" fill="#EF492D"/>
<path d="M31.522 16.8517H27.7644C27.8656 16.2621 28.2308 15.9321 28.97 15.5581L29.6608 15.2061C30.8972 14.5725 31.5572 13.8553 31.5572 12.6849C31.5572 11.9501 31.2712 11.3693 30.7036 10.9513C30.136 10.5333 29.4672 10.3265 28.684 10.3265C28.0781 10.3194 27.4833 10.4891 26.9724 10.8149C26.4576 11.1317 26.0748 11.5409 25.8372 12.0513L26.924 13.1425C27.3464 12.2889 27.958 11.8709 28.7632 11.8709C29.4452 11.8709 29.8632 12.2229 29.8632 12.7113C29.8632 13.1205 29.6608 13.4593 28.8776 13.8553L28.4332 14.0709C27.4696 14.5593 26.8008 15.1181 26.4136 15.7517C26.0264 16.3853 25.8372 17.1817 25.8372 18.1453V18.4093H31.522V16.8517ZM31.0204 20.2045H24.7988L21.688 25.5901H27.9096L31.0204 30.9801L34.1312 25.5901L31.0204 20.2045Z" fill="white"/>
<path d="M22.2241 29.1851C18.2641 29.1851 15.0389 25.9599 15.0389 21.9999C15.0389 18.0399 18.2641 14.8147 22.2241 14.8147L24.6837 9.67108C23.8738 9.51001 23.0499 9.42896 22.2241 9.42908C15.2809 9.42908 9.65332 15.0567 9.65332 21.9999C9.65332 28.9431 15.2809 34.5707 22.2241 34.5707C24.8849 34.5757 27.4777 33.7309 29.6249 32.1595L26.9057 27.4427C25.6048 28.5664 23.9432 29.1848 22.2241 29.1851Z" fill="white"/>
</svg>
