<svg width="44" height="44" viewBox="0 0 44 44" fill="none" xmlns="http://www.w3.org/2000/svg">
<path d="M22 44C34.1503 44 44 34.1503 44 22C44 9.84974 34.1503 0 22 0C9.84974 0 0 9.84974 0 22C0 34.1503 9.84974 44 22 44Z" fill="white"/>
<path d="M21.8078 33.5118C25.5077 33.6193 28.3089 32.7538 31.1133 31.2536V20.113H22.4291L22.1168 24.0052H26.7425V28.7509C25.4443 29.3337 23.9441 29.6149 21.85 29.5626C17.3994 29.4458 14.5524 26.2462 14.6085 21.6035C14.6655 17.3183 17.2498 14.2017 21.5386 14.002C24.1674 13.8829 26.3672 14.6279 27.8623 15.9025L30.7727 12.9582C28.3566 10.8261 25.2654 9.94949 21.811 10.0023C14.9963 10.1098 10 14.6863 10 21.849C10 29.0432 14.9486 33.3024 21.8078 33.5118Z" fill="#002856"/>
</svg>
