<svg width="95" height="22" viewBox="0 0 95 22" fill="none" xmlns="http://www.w3.org/2000/svg">
<g clip-path="url(#clip0_1571_2295)">
<mask id="mask0_1571_2295" style="mask-type:luminance" maskUnits="userSpaceOnUse" x="-170" y="-46" width="335" height="252">
<path d="M-169.439 205.413H164.918V-45.355H-169.439V205.413Z" fill="white"/>
</mask>
<g mask="url(#mask0_1571_2295)">
<path d="M94.0315 7.20209L93.76 10.4595H92.4298C90.3058 10.4595 89.2019 12.1621 89.2019 13.7938V21.151H85.4374V7.20209H89.003L89.0841 8.94311C89.8322 7.74922 91.1413 7.20209 92.7557 7.20209H94.0315ZM67.9329 21.1508H64.165V13.7768C64.165 12.2325 64.0316 10.2889 61.8596 10.2889C59.7677 10.2889 58.9343 11.7985 58.9343 13.5564V21.1508H55.1678V7.20196H58.66L58.7397 8.9852C59.4882 7.79131 60.8823 6.86169 62.9386 6.86169C66.7348 6.86169 67.9329 9.57201 67.9329 12.3925V21.1508ZM53.5249 17.8924L53.2614 21.0663C52.358 21.3086 51.5559 21.3956 50.5853 21.3956C47.0353 21.3956 46.0056 19.7677 46.0056 16.4959V3.26849H49.7731V7.20226H53.5219L53.2614 10.4593H49.7731V16.2126C49.7731 17.5255 50.1332 18.2348 51.4799 18.2348C52.0654 18.2348 52.7168 18.1643 53.5249 17.8924ZM44.7686 7.20209L44.4769 10.4595H43.4531C41.3334 10.4595 40.2792 12.16 40.2792 13.7938V21.151H36.5114V7.20209H40.0787L40.153 8.94311C40.9053 7.74922 42.2145 7.20209 43.8309 7.20209H44.7686ZM19.5096 19.6055C16.9543 20.9725 14.4018 21.7611 11.0304 21.6631C4.78018 21.4723 0.270996 17.5913 0.270996 11.0359C0.270996 4.50915 4.82367 0.33898 11.0333 0.241035C14.181 0.192909 16.9977 0.991653 19.1993 2.93447L16.5473 5.61735C15.185 4.45596 13.1805 3.77712 10.7851 3.88562C6.87709 4.06757 4.52223 6.90749 4.4703 10.8121C4.41922 15.0427 7.01345 17.9582 11.0688 18.0646C12.977 18.1123 14.344 17.856 15.5269 17.3249V13.0007H11.312L11.5965 9.45402H19.5096V19.6055ZM83.7549 15.5021H73.4257C73.72 17.2845 75.1212 18.3568 76.866 18.4053C78.5622 18.4514 79.5113 17.9388 80.752 16.6825L83.2103 18.5569C81.4634 20.7087 79.3669 21.4918 76.9787 21.4918C72.7781 21.4918 69.6313 18.5548 69.6313 14.1761C69.6313 9.80196 72.7625 6.86156 76.8216 6.86156C81.2953 6.86156 83.7549 9.57189 83.7549 14.3829V15.5021ZM79.9807 12.5857C79.8651 10.8236 78.5449 9.70951 76.7267 9.78044C74.8966 9.84967 73.6782 11.0415 73.4257 12.5857H79.9807ZM34.1395 12.0168V21.1508H30.8179L30.7356 19.7754C29.7165 21.0376 28.062 21.4919 26.3586 21.4919C23.7935 21.4919 21.3698 20.2271 21.3191 17.2812C21.2427 12.6509 26.5304 12.322 29.8512 12.322H30.5148V12.1388C30.5148 10.6076 29.5016 9.78053 27.5938 9.78053C26.2243 9.78053 24.8725 10.3298 23.8728 11.267L21.6991 9.05861C23.6727 7.45859 25.7262 6.86165 27.9138 6.86165C32.2347 6.86165 34.1395 8.85851 34.1395 12.0168ZM30.5148 15.0678H29.9909C28.2072 15.0716 25.0743 15.1594 25.0862 17.0245C25.103 19.6521 30.5148 18.817 30.5148 15.6482V15.0678ZM91.0926 19.5282C91.0926 18.6404 91.7626 17.9713 92.6217 17.9713C93.4703 17.9713 94.1415 18.6404 94.1415 19.5282C94.1415 20.4317 93.4703 21.0987 92.6217 21.0987C91.7626 21.0987 91.0926 20.4317 91.0926 19.5282ZM92.6217 21.4107C93.6446 21.4107 94.5173 20.6162 94.5173 19.5282C94.5173 18.4513 93.6446 17.6584 92.6217 17.6584C91.5895 17.6584 90.7161 18.4513 90.7161 19.5282C90.7161 20.6162 91.5895 21.4107 92.6217 21.4107ZM92.2245 19.6785H92.6023L93.1718 20.6162H93.5399L92.9248 19.6633C93.2427 19.6245 93.4855 19.4539 93.4855 19.0668C93.4855 18.6404 93.2326 18.4513 92.7209 18.4513H91.8977V20.6162H92.2245V19.6785ZM92.2245 19.3995V18.7303H92.6707C92.8995 18.7303 93.1427 18.7797 93.1427 19.0478C93.1427 19.38 92.8944 19.3995 92.6175 19.3995H92.2245Z" fill="white"/>
</g>
</g>
<defs>
<clipPath id="clip0_1571_2295">
<rect width="94.6944" height="21.7797" fill="white"/>
</clipPath>
</defs>
</svg>
