<svg width="1517" height="756" viewBox="0 0 1517 756" fill="none" xmlns="http://www.w3.org/2000/svg">
<path opacity="0.4" d="M-0.544492 755.127L-112.075 387.474L201.319 184.595C255.659 149.467 321.895 135.488 385.366 145.957L605.544 182.262C669.172 192.689 735.342 178.884 789.748 143.581L979.643 20.3719C1034.1 -14.9447 1100.22 -28.7358 1163.85 -18.309L1516.03 39.8277L1428.52 100.278L1191.13 61.1001C1120.6 49.4338 1047.31 67.8686 990.614 111.374L797.613 259.228C751.467 294.568 693.818 313.574 635.542 312.86L402.964 309.865C347.791 309.21 293.335 326.104 248.525 357.841L-56.48 571.294L145.55 444.781C199.89 409.653 266.126 395.673 329.597 406.142L549.775 442.448C613.403 452.875 679.573 439.069 733.979 403.767L923.874 280.557C978.332 245.241 1044.45 231.45 1108.13 241.862L1460.32 299.999L1372.8 360.449L1135.41 321.272C1064.89 309.605 991.595 328.04 934.897 371.545L741.896 519.399C695.751 554.739 638.14 573.891 579.826 573.031L347.247 570.036C292.074 569.381 237.619 586.275 192.808 618.012L-0.819322 755.149L-0.544492 755.127Z" fill="#25A468"/>
</svg>
