<svg preserveAspectRatio="none" width="100%" height="100%" overflow="visible" style="display: block;" viewBox="0 0 225 50.5618" fill="none" xmlns="http://www.w3.org/2000/svg">
<g id="Layer_1" clip-path="url(#clip0_0_4)">
<path id="Vector" d="M3.49668 13.4796C3.64754 13.2214 3.80918 12.9578 3.98159 12.6996C3.82534 12.9578 3.67448 13.2267 3.52901 13.4903L3.49668 13.4742V13.4796Z" fill="var(--fill-0, #02563D)"/>
<g id="Group 40052">
<path id="Vector_2" d="M19.7355 22.8281L24.7677 25.367L20.6083 41.4553L18.6364 50.5618C8.3026 47.4151 0 38.0182 0 26.389C0 24.076 0.301717 21.8384 0.8836 19.703C1.1045 19.789 1.32001 19.8912 1.52475 20.0042L6.58389 22.812C7.79076 23.4843 9.20775 23.7049 10.5547 23.4359L15.9479 22.3332C17.2302 22.0697 18.5664 22.2526 19.7301 22.8335L19.7355 22.8281Z" fill="var(--fill-0, #02563D)"/>
<path id="Vector_3" d="M17.4349 16.6316L25.9315 20.9186V20.9294L20.1666 18.326C18.7657 17.702 17.1656 17.6428 15.7324 18.1861L10.7487 20.058C9.31014 20.6066 7.71535 20.5475 6.31452 19.9181L1.50321 17.7397C1.76722 17.0027 2.06354 16.2766 2.39759 15.5773L4.28871 16.6262C5.49558 17.2932 6.90718 17.5084 8.25952 17.2287L13.6581 16.126C14.935 15.8678 16.2658 16.0453 17.4296 16.637L17.4349 16.6316Z" fill="var(--fill-0, #02563D)"/>
<path id="Vector_4" d="M52.3371 25.9586V26.1254C52.3317 27.6369 52.1862 29.1161 51.933 30.5522C51.9061 30.7028 51.8737 30.8427 51.8522 30.9879C51.8306 31.1063 51.8037 31.2246 51.7768 31.3429C51.739 31.5151 51.7013 31.6818 51.6636 31.8485C50.8123 35.3664 49.2068 38.626 47.0247 41.4499H31.7072L30.5003 30.5899H44.6756L46.2543 24.7645L25.9315 15.7172L17.8659 12.1294C16.4705 11.5001 14.8757 11.4463 13.4426 11.9896L8.45884 13.8668C7.02029 14.4101 5.43089 14.3617 4.03006 13.727L3.529 13.5011C3.67986 13.2321 3.82533 12.9739 3.98157 12.7104C8.5181 5.09383 16.8315 0 26.341 0C28.6362 0 30.8559 0.29584 32.9733 0.855247C32.9787 0.855247 32.9895 0.855247 32.9949 0.855247C43.7112 3.68456 51.7175 13.1622 52.2994 24.6085C52.3209 25.055 52.3371 25.5014 52.3371 25.9533V25.9586Z" fill="var(--fill-0, #02563D)"/>
</g>
<path id="Vector_5" d="M66.7387 41.4176V9.14415H75.5154V21.7523H87.1315V9.14415H95.9083V41.4176H87.1315V28.8095H75.5154V41.4176H66.7387Z" fill="var(--fill-0, #02563D)"/>
<path id="Vector_6" d="M99.1841 41.4176V9.14415H113.138C115.536 9.14415 117.637 9.57984 119.437 10.4512C121.236 11.3226 122.637 12.5813 123.634 14.2165C124.636 15.857 125.132 17.8203 125.132 20.1118C125.132 22.4032 124.614 24.3719 123.585 25.9586C122.567 27.5454 121.129 28.7449 119.275 29.5518C117.433 30.3586 115.283 30.7674 112.821 30.7674H104.486V23.9577H111.053C112.082 23.9577 112.961 23.834 113.688 23.5812C114.426 23.3176 114.986 22.9034 115.374 22.3386C115.773 21.7738 115.972 21.0316 115.972 20.1171C115.972 19.2027 115.773 18.4389 115.374 17.8634C114.986 17.2771 114.421 16.8468 113.688 16.5724C112.961 16.2873 112.082 16.1475 111.053 16.1475H107.961V41.423H99.1841V41.4176ZM118.128 26.6041L126.209 41.4176H116.673L108.78 26.6041H118.122H118.128Z" fill="var(--fill-0, #02563D)"/>
<path id="Vector_7" d="M135.465 39.2715C133.003 37.8407 131.085 35.8774 129.652 33.3762C128.219 30.9234 127.551 28.1963 127.551 25.2486C127.551 22.301 128.267 19.5792 129.695 17.0781C131.128 14.6199 133.052 12.6566 135.552 11.2312C138.014 9.80038 140.74 9.09036 143.736 9.09036C146.731 9.09036 149.415 9.80576 151.92 11.2312C154.382 12.662 156.349 14.6253 157.776 17.0781C159.21 19.5792 159.921 22.301 159.921 25.2486C159.921 28.1963 159.204 30.961 157.776 33.4192C156.343 35.9204 154.425 37.8407 151.963 39.2661C149.458 40.6969 146.731 41.4069 143.736 41.4069C140.74 41.4069 137.922 40.6915 135.46 39.2661L135.465 39.2715ZM150.444 36.6358C152.41 35.4739 153.978 33.8656 155.093 31.8593C156.209 29.896 156.79 27.6638 156.79 25.254C156.79 22.8442 156.209 20.655 155.093 18.6487C153.929 16.6854 152.367 15.0771 150.4 13.9153C148.385 12.7534 146.15 12.1295 143.736 12.1295C141.322 12.1295 139.043 12.7104 137.071 13.8722C135.105 15.0341 133.537 16.6424 132.378 18.6487C131.215 20.6604 130.681 22.8442 130.681 25.254C130.681 27.6638 131.22 29.9444 132.378 31.9077C133.494 33.9141 135.061 35.4793 137.028 36.6412C138.995 37.803 141.23 38.3839 143.736 38.3839C146.241 38.3839 148.477 37.803 150.444 36.6412V36.6358Z" fill="var(--fill-0, #02563D)"/>
<path id="Vector_8" d="M163.089 41.4176V9.14415H166.898V14.3402C169.252 10.8708 172.835 9.07961 177.711 9.07961C180.4 9.07961 182.754 9.63901 184.769 10.6449C186.563 11.6507 187.905 12.9955 188.918 14.7866C189.872 16.5778 190.373 18.6487 190.373 21.0531V41.4176H186.563V21.0531C186.563 18.4819 185.723 16.4649 184.042 15.0125C182.361 13.5602 180.173 12.7749 177.372 12.7749C174.01 12.7749 171.434 13.727 169.64 15.6257C167.792 17.5299 166.893 20.214 166.893 23.6834V41.4176H163.083H163.089Z" fill="var(--fill-0, #02563D)"/>
<path id="Vector_9" d="M201.644 39.4005C199.225 37.9751 197.355 36.0011 195.981 33.5322C194.607 31.0632 193.95 28.32 193.95 25.3562C193.95 22.3924 194.607 19.703 195.981 17.234C197.355 14.7651 199.225 12.7911 201.644 11.3656C204.009 9.94023 206.644 9.17105 209.505 9.17105C212.366 9.17105 214.946 9.94023 217.306 11.3656C219.671 12.7911 221.536 14.7651 222.91 17.234C224.283 19.703 225 22.3924 225 25.3562C225 26.1254 224.946 26.6202 224.946 26.9484H197.797C198.018 29.0354 198.675 30.8965 199.774 32.5424C200.873 34.2422 202.247 35.56 203.95 36.4906C205.599 37.4803 207.468 37.916 209.499 37.916C211.531 37.916 213.292 37.4749 214.941 36.5443C216.59 35.6676 217.964 34.4035 219.063 32.8114H223.351C222.031 35.5008 220.108 37.6416 217.689 39.1746C215.216 40.7668 212.468 41.536 209.499 41.536C206.531 41.536 204.004 40.8206 201.639 39.3952L201.644 39.4005ZM221.207 23.4359C220.878 21.4619 220.216 19.6492 219.117 18.0032C218.017 16.3573 216.59 15.0932 214.941 14.1627C213.292 13.2859 211.477 12.7911 209.499 12.7911C207.522 12.7911 205.652 13.2859 204.004 14.1627C202.355 15.0932 200.981 16.3573 199.882 18.0032C198.783 19.6492 198.066 21.4619 197.792 23.4359H221.202H221.207Z" fill="var(--fill-0, #02563D)"/>
<path id="Vector_10" d="M161.634 9.14415H163.789V12.9094H161.634V9.14415Z" fill="var(--fill-0, #02563D)"/>
</g>
<defs>
<clipPath id="clip0_0_4">
<rect width="225" height="50.5618" fill="white"/>
</clipPath>
</defs>
</svg>
