<svg width="47" height="45" viewBox="0 0 47 45" fill="none" xmlns="http://www.w3.org/2000/svg">
<path d="M17.7176 20.3174L22.2354 22.5769L18.5012 36.8956L16.7309 45.0003C7.4534 42.1998 -0.000488281 33.8365 -0.000488281 23.4865C-0.000488281 21.428 0.270386 19.4365 0.792788 17.536C0.991107 17.6126 1.18459 17.7035 1.3684 17.8041L5.91038 20.303C6.99388 20.9014 8.26603 21.0977 9.47529 20.8583L14.3172 19.8769C15.4684 19.6424 16.668 19.8051 17.7128 20.3222L17.7176 20.3174Z" fill="white"/>
<path d="M15.6542 14.8012L23.2823 18.6166V18.6262L18.1066 16.3091C16.849 15.7538 15.4124 15.7012 14.1257 16.1847L9.65145 17.8506C8.35996 18.3389 6.92819 18.2863 5.67056 17.7262L1.35107 15.7873C1.58809 15.1315 1.85413 14.4852 2.15402 13.8629L3.85183 14.7964C4.93533 15.39 6.20263 15.5815 7.41673 15.3325L12.2635 14.3512C13.4098 14.1214 14.6046 14.2794 15.6494 14.8059L15.6542 14.8012Z" fill="white"/>
<path d="M46.9883 23.1032V23.2516C46.9834 24.5968 46.8528 25.9133 46.6255 27.1915C46.6013 27.3255 46.5723 27.45 46.5529 27.5793C46.5336 27.6846 46.5094 27.7899 46.4852 27.8952C46.4513 28.0484 46.4175 28.1968 46.3836 28.3452C45.6194 31.4761 44.1779 34.3771 42.2189 36.8904H28.4672L27.3837 27.225H40.11L41.5272 22.0404L23.2819 13.9883L16.0408 10.7952C14.788 10.2351 13.3563 10.1872 12.0696 10.6707L7.59533 12.3415C6.30384 12.825 4.87691 12.7819 3.61928 12.217L3.16943 12.016C3.30487 11.7766 3.43547 11.5468 3.57575 11.3122C7.64854 4.53351 15.1121 0 23.6495 0C25.7101 0 27.7029 0.263298 29.6039 0.76117C29.6087 0.76117 29.6184 0.76117 29.6233 0.76117C39.2441 3.27926 46.432 11.7144 46.9544 21.9016C46.9738 22.2989 46.9883 22.6963 46.9883 23.0984V23.1032Z" fill="white"/>
</svg>
