<svg width="31" height="31" viewBox="0 0 31 31" fill="none" xmlns="http://www.w3.org/2000/svg">
<path fill-rule="evenodd" clip-rule="evenodd" d="M17.0201 0.21486L16.3837 8.05195C16.0811 8.0174 15.7768 8.00018 15.4722 8.00038C15.0853 8.00038 14.7069 8.02617 14.3371 8.08633L13.976 4.2881C13.9673 4.16778 14.062 4.06465 14.1824 4.06465H14.8273L14.5177 0.223454C14.5091 0.103133 14.6037 0 14.7155 0H16.8223C16.9427 0 17.0373 0.103133 17.0201 0.223454L17.0201 0.21486ZM11.7058 0.601545C11.6714 0.489818 11.5511 0.421063 11.4393 0.464035L9.46146 1.1859C9.34966 1.22887 9.29812 1.35779 9.34966 1.46086L10.9577 4.96694L10.3472 5.19039C10.2354 5.23336 10.1838 5.36228 10.2354 5.46535L11.8778 8.91126C12.4798 8.57965 13.1253 8.33381 13.7954 8.18087L11.7144 0.601545H11.7058ZM6.8559 2.78421L11.4049 9.19475C10.8287 9.57291 10.3042 10.0198 9.85701 10.5354L7.13105 7.85428C7.04505 7.76833 7.05371 7.63082 7.13971 7.55347L7.6384 7.14101L4.92964 4.39971C4.8437 4.31376 4.8523 4.17631 4.9469 4.09897L6.55496 2.74983C6.6495 2.67248 6.7785 2.68967 6.8473 2.78421H6.8559ZM3.0379 6.49649C2.94323 6.42773 2.80569 6.46211 2.74549 6.56524L1.69638 8.38701C1.63618 8.49014 1.67918 8.61906 1.78239 8.67062L5.27365 10.3206L4.9469 10.8791C4.8867 10.9822 4.9297 11.1197 5.0415 11.1627L8.51556 12.7525C8.76491 12.1079 9.10025 11.5064 9.51306 10.965L3.0379 6.49649ZM0.466738 11.4462C0.483938 11.326 0.604279 11.2572 0.716082 11.283L8.32636 13.2681C8.12855 13.9126 8.01681 14.5914 7.99961 15.2961L4.19014 14.9867C4.16164 14.9848 4.1339 14.9767 4.1088 14.9631C4.0837 14.9495 4.06183 14.9306 4.0447 14.9077C4.02756 14.8849 4.01555 14.8587 4.00949 14.8308C4.00344 14.8029 4.00347 14.774 4.0096 14.7461L4.12134 14.1102L0.277533 13.7493C0.15713 13.7406 0.0797275 13.629 0.0969279 13.5086L0.458137 11.4376L0.466738 11.4462ZM0.18293 16.5851C0.062527 16.5937 -0.0148131 16.7054 0.00238732 16.8257L0.372135 18.8967C0.389336 19.017 0.509739 19.0857 0.62148 19.0599L4.35355 18.0889L4.46535 18.7248C4.48255 18.8451 4.60289 18.9139 4.71469 18.888L8.39516 17.874C8.18015 17.2382 8.04261 16.5593 8.00821 15.8633L0.17433 16.5851L0.18293 16.5851ZM1.40404 22.0332C1.34384 21.9302 1.38684 21.8012 1.49004 21.7497L8.59296 18.3811C8.85951 19.017 9.22066 19.6099 9.65061 20.1427L6.53776 22.3598C6.44309 22.4286 6.30555 22.4028 6.24535 22.2996L5.9186 21.7325L2.74549 23.9237C2.65089 23.9926 2.51334 23.9582 2.45314 23.855L1.39544 22.0332H1.40404ZM10.0118 20.5552L4.48255 26.1494C4.39655 26.2354 4.40515 26.3729 4.49975 26.4502L6.11635 27.7994C6.21101 27.8767 6.33995 27.8595 6.40875 27.765L8.6445 24.6198L9.14325 25.0409C9.23792 25.1182 9.37546 25.101 9.44426 24.998L11.6113 21.8528C11.0265 21.4919 10.4848 21.0536 10.0204 20.5552H10.0118ZM8.91971 29.5353C8.80791 29.4923 8.75637 29.3634 8.80791 29.2602L12.0842 22.1106C12.6861 22.42 13.3397 22.652 14.019 22.7809L13.0559 26.476C13.0301 26.5877 12.9011 26.6564 12.7893 26.6135L12.1788 26.3901L11.1555 30.111C11.1211 30.2227 11.0007 30.2914 10.8889 30.2485L8.91111 29.5267L8.91971 29.5353ZM14.5608 22.8754L13.9244 30.7125C13.9158 30.8328 14.0104 30.936 14.1222 30.936H16.229C16.3494 30.936 16.444 30.8328 16.4268 30.7125L16.1172 26.8713H16.7621C16.8825 26.8713 16.9771 26.7682 16.9685 26.6479L16.6074 22.8496C16.2376 22.9098 15.8592 22.9356 15.4723 22.9356C15.1627 22.9356 14.8617 22.9184 14.5608 22.8754ZM22.1453 1.65847C22.1969 1.5468 22.1453 1.42648 22.0334 1.38351L20.0556 0.661706C19.9438 0.618734 19.8234 0.687489 19.789 0.799216L18.7658 4.52015L18.1553 4.2967C18.0435 4.25373 17.9231 4.32248 17.8887 4.43415L16.9256 8.1293C17.6135 8.26681 18.2584 8.4988 18.8604 8.79954L22.1453 1.65847ZM26.4621 4.77792L20.9327 10.3722C20.4645 9.86885 19.9292 9.43222 19.3419 9.07456L21.5089 5.92938C21.5777 5.83491 21.7153 5.80912 21.8098 5.88641L22.3086 6.30747L24.5444 3.16236C24.6132 3.06782 24.7508 3.05064 24.8367 3.12799L26.4535 4.47712C26.548 4.55447 26.548 4.69198 26.4706 4.77792H26.4621ZM29.4545 9.17769C29.5663 9.12612 29.6007 8.99721 29.5405 8.89408L28.4828 7.07231C28.4226 6.96918 28.2851 6.9434 28.1905 7.00356L25.0174 9.19482L24.6906 8.6363C24.6304 8.53317 24.4928 8.4988 24.3982 8.57615L21.2853 10.7932C21.7153 11.326 22.0678 11.919 22.343 12.5549L29.4459 9.18628L29.4545 9.17769ZM30.5724 12.0307L30.9336 14.1017C30.9508 14.222 30.8734 14.3251 30.753 14.3423L22.9191 15.0727C22.8847 14.3681 22.7471 13.6978 22.5322 13.0619L26.2127 12.0478C26.3245 12.0135 26.4448 12.0908 26.462 12.2111L26.5738 12.8471L30.3059 11.876C30.4176 11.8502 30.538 11.919 30.5552 12.0392L30.5724 12.0307ZM30.2199 19.6358C30.3317 19.6615 30.452 19.5928 30.4692 19.4725L30.8304 17.4015C30.8476 17.2812 30.7702 17.1781 30.6498 17.1609L26.806 16.8L26.9178 16.1641C26.935 16.0437 26.8576 15.9407 26.7372 15.9235L22.9277 15.6141C22.9105 16.3188 22.7987 16.9976 22.601 17.6421L30.2113 19.6272L30.2199 19.6358ZM28.1905 24.3621C28.1303 24.4652 27.9927 24.491 27.8981 24.4309L21.4229 19.9623C21.8356 19.421 22.1711 18.8194 22.4204 18.1749L25.8945 19.7647C26.0063 19.8162 26.0493 19.9452 25.9891 20.0482L25.6623 20.6068L29.1536 22.2567C29.2568 22.3083 29.2998 22.4372 29.2396 22.5403L28.1905 24.3621ZM19.5311 21.724L24.08 28.1346C24.1488 28.2292 24.2864 28.2463 24.3723 28.1689L25.9804 26.8198C26.075 26.7425 26.075 26.6049 25.9976 26.5191L23.2888 23.7778L23.7876 23.3653C23.8822 23.2879 23.8822 23.1504 23.7962 23.0645L21.0703 20.3834C20.6145 20.899 20.0986 21.3544 19.5224 21.7239L19.5311 21.724ZM19.4881 30.4549C19.3763 30.4978 19.2559 30.4291 19.2215 30.3173L17.1405 22.738C17.8107 22.5851 18.4561 22.3392 19.0581 22.0076L20.7006 25.4535C20.7522 25.5653 20.7006 25.6941 20.5888 25.7285L19.9782 25.952L21.5863 29.458C21.6379 29.5698 21.5863 29.69 21.4745 29.733L19.4967 30.4549H19.4881Z" fill="white"/>
</svg>
