<svg preserveAspectRatio="none" width="100%" height="100%" overflow="visible" style="display: block;" viewBox="0 0 689 147" fill="none" xmlns="http://www.w3.org/2000/svg">
<g id="Group 1171276089">
<path id="Connector / left dashed horizontal" d="M8 59H291" stroke="var(--stroke-0, #004A36)" stroke-opacity="0.75" stroke-width="2" stroke-dasharray="6 6"/>
<path id="Connector / right dashed horizontal" d="M406 59H681" stroke="var(--stroke-0, #F45137)" stroke-opacity="0.75" stroke-width="2" stroke-dasharray="6 6"/>
<line id="Connector / left vertical drop" x1="7" y1="130" x2="7" y2="60" stroke="var(--stroke-0, #004A36)" stroke-opacity="0.75" stroke-width="2" stroke-dasharray="6 6"/>
<line id="Connector / right vertical drop" x1="680" y1="130" x2="680" y2="60" stroke="var(--stroke-0, #F45137)" stroke-opacity="0.75" stroke-width="2" stroke-dasharray="6 6"/>
<circle id="Connector / left dot" cx="8" cy="139" r="8" fill="var(--fill-0, #004A36)"/>
<circle id="Connector / right dot" cx="681" cy="139" r="8" fill="var(--fill-0, #F45137)"/>
<rect id="Rectangle 2622" opacity="0.1" x="291" width="114" height="114" rx="30" fill="var(--fill-0, #062A1C)"/>
<rect id="Rectangle 2623" x="300" y="9" width="96" height="96" rx="30" fill="var(--fill-0, #02563D)"/>
<g id="Icon">
<path id="Vector" d="M371 57.0004H357.5L353 50.2504H344L339.5 57.0004H326" stroke="var(--stroke-0, #B3CCC5)" stroke-width="3" stroke-linecap="round" stroke-linejoin="round"/>
<path id="Vector_2" d="M333.762 72.5028L326 57.0003V43.5003C326 42.3068 326.474 41.1622 327.318 40.3183C328.162 39.4744 329.307 39.0003 330.5 39.0003H366.5C367.693 39.0003 368.838 39.4744 369.682 40.3183C370.526 41.1622 371 42.3068 371 43.5003V57.0003L363.237 72.5028C362.865 73.2525 362.291 73.8835 361.579 74.3247C360.868 74.7659 360.047 74.9998 359.21 75.0003H337.79C336.953 74.9998 336.132 74.7659 335.421 74.3247C334.709 73.8835 334.135 73.2525 333.762 72.5028Z" stroke="var(--stroke-0, #B3CCC5)" stroke-width="3" stroke-linecap="round" stroke-linejoin="round"/>
</g>
</g>
</svg>
