<svg preserveAspectRatio="none" width="100%" height="100%" overflow="visible" style="display: block;" viewBox="0 0 36.9917 36.9917" fill="none" xmlns="http://www.w3.org/2000/svg">
<g id="SVG - banknote">
<path id="Vector" d="M30.8276 9.24797H6.16646C4.46397 9.24797 3.08382 10.6281 3.08382 12.3306V24.6612C3.08382 26.3637 4.46397 27.7438 6.16646 27.7438H30.8276C32.5301 27.7438 33.9102 26.3637 33.9102 24.6612V12.3306C33.9102 10.6281 32.5301 9.24797 30.8276 9.24797Z" stroke="var(--stroke-0, #015741)" stroke-width="2.62024" stroke-linecap="round" stroke-linejoin="round"/>
<path id="Vector_2" d="M18.495 22.3492C20.6231 22.3492 22.3483 20.624 22.3483 18.4959C22.3483 16.3677 20.6231 14.6426 18.495 14.6426C16.3669 14.6426 14.6417 16.3677 14.6417 18.4959C14.6417 20.624 16.3669 22.3492 18.495 22.3492Z" stroke="var(--stroke-0, #015741)" stroke-width="2.62024" stroke-linecap="round" stroke-linejoin="round"/>
<path id="Vector_3" d="M9.24901 18.4959H9.26442M27.7448 18.4959H27.7603" stroke="var(--stroke-0, #015741)" stroke-width="2.62024" stroke-linecap="round" stroke-linejoin="round"/>
</g>
</svg>
