<svg width="29" height="29" viewBox="0 0 29 29" fill="none" xmlns="http://www.w3.org/2000/svg">
<path d="M11.9609 21.5306V13.1576" stroke="white" stroke-width="1.36702" stroke-linecap="round" stroke-linejoin="round"/>
<path d="M13.2994 2.63755C13.6274 2.47662 13.9879 2.39294 14.3532 2.39294C14.7185 2.39294 15.079 2.47662 15.407 2.63755L24.7848 7.23793C24.9063 7.29744 25.0039 7.39635 25.0619 7.51852C25.1199 7.6407 25.1348 7.77893 25.1041 7.91065C25.0735 8.04237 24.9991 8.1598 24.893 8.24378C24.787 8.32777 24.6557 8.37334 24.5205 8.37307H4.18597C4.05083 8.37307 3.91967 8.3273 3.81387 8.24322C3.70807 8.15915 3.63386 8.04171 3.60334 7.91006C3.57282 7.77841 3.58779 7.64031 3.6458 7.51825C3.70382 7.3962 3.80146 7.29739 3.92281 7.23793L13.2994 2.63755Z" stroke="white" stroke-width="1.36702" stroke-linecap="round" stroke-linejoin="round"/>
<path d="M16.7461 21.5306V13.1576" stroke="white" stroke-width="1.36702" stroke-linecap="round" stroke-linejoin="round"/>
<path d="M21.5312 21.5306V13.1576" stroke="white" stroke-width="1.36702" stroke-linecap="round" stroke-linejoin="round"/>
<path d="M3.58789 26.3152H25.1185" stroke="white" stroke-width="1.36702" stroke-linecap="round" stroke-linejoin="round"/>
<path d="M7.17773 21.5306V13.1576" stroke="white" stroke-width="1.36702" stroke-linecap="round" stroke-linejoin="round"/>
</svg>
