<svg width="69" height="69" viewBox="0 0 69 69" fill="none" xmlns="http://www.w3.org/2000/svg">
<path d="M34.0317 68.0634C52.8269 68.0634 68.0634 52.8269 68.0634 34.0317C68.0634 15.2365 52.8269 0 34.0317 0C15.2365 0 0 15.2365 0 34.0317C0 52.8269 15.2365 68.0634 34.0317 68.0634Z" fill="#32D583" fill-opacity="0.3"/>
<path d="M18.0004 25.5867H48.3867V44.5933H18.0004V25.5867Z" fill="#F8D772"/>
<path d="M48.3867 25.5867L33.1936 35.0924L17.9954 25.5867" fill="#F8D772"/>
<path d="M48.3867 25.5867L33.1936 35.0924L17.9954 25.5867" stroke="black" stroke-width="0.734545" stroke-miterlimit="10"/>
<path d="M54.0547 19.9793L49.9372 24.0623" stroke="white" stroke-width="0.734545" stroke-miterlimit="10"/>
<path d="M44.2416 17.2115L45.8945 22.7471" stroke="white" stroke-width="0.734545" stroke-miterlimit="10"/>
<path d="M51.9829 28.5232L57.793 28.2189" stroke="white" stroke-width="0.734545" stroke-miterlimit="10"/>
<g clip-path="url(#clip0_1950_5530)">
<path d="M53.9005 53.2318C64.6906 42.4418 64.6906 24.9476 53.9005 14.1576C43.1104 3.36749 25.6163 3.36749 14.8262 14.1576C4.03614 24.9476 4.03614 42.4418 14.8262 53.2318C25.6163 64.0219 43.1104 64.0219 53.9005 53.2318Z" fill="white"/>
<path d="M41.1641 24.1041C41.1641 20.7904 38.4778 18.1041 35.1641 18.1041C31.8504 18.1041 29.1641 20.7904 29.1641 24.1041V30.1041C29.1641 33.4178 31.8504 36.1041 35.1641 36.1041C38.4778 36.1041 41.1641 33.4178 41.1641 30.1041V24.1041Z" fill="#32D583"/>
<path d="M25.1641 32.1041C25.1641 38.7708 28.4974 42.1041 35.1641 42.1041C41.8307 42.1041 45.1641 38.7708 45.1641 32.1041" stroke="#32D583" stroke-width="2.2" stroke-linecap="round"/>
<path d="M35.1641 42.1041V47.1041" stroke="#32D583" stroke-width="2.2" stroke-linecap="round"/>
</g>
<defs>
<clipPath id="clip0_1950_5530">
<rect width="55.2594" height="55.2594" fill="white" transform="translate(6.73828 6.06506)"/>
</clipPath>
</defs>
</svg>
