<svg width="180" height="53" viewBox="0 0 180 53" fill="none" xmlns="http://www.w3.org/2000/svg">
<circle cx="17.1368" cy="35.4161" r="15.2803" stroke="#02563D" stroke-width="3.71298"/>
<path d="M38.1281 52.2636V18.3474H42.2142V23.8079C44.7399 20.1619 48.5833 18.2795 53.8138 18.2795C56.6979 18.2795 59.2235 18.8674 61.3851 19.9245C63.3097 20.9815 64.7488 22.3947 65.8354 24.2771C66.8583 26.1594 67.3958 28.3357 67.3958 30.8624V52.2636H63.3097V30.8624C63.3097 28.1605 62.4081 26.0407 60.6048 24.5145C58.8016 22.9882 56.4551 22.1629 53.4497 22.1629C49.8433 22.1629 47.0806 23.1635 45.156 25.1589C43.1736 27.1599 42.2085 29.9806 42.2085 33.6266V52.2636H38.1223H38.1281Z" fill="#02563D"/>
<path d="M79.4837 50.1383C76.8887 48.6403 74.8832 46.5658 73.4094 43.9712C71.9356 41.3766 71.2305 38.4937 71.2305 35.3791C71.2305 32.2645 71.9356 29.4381 73.4094 26.8435C74.8832 24.2489 76.8887 22.1744 79.4837 20.6764C82.0209 19.1785 84.8471 18.3701 87.9161 18.3701C90.985 18.3701 93.7534 19.1785 96.2849 20.6764C98.8221 22.1744 100.822 24.2489 102.296 26.8435C103.769 29.4381 104.538 32.2645 104.538 35.3791C104.538 36.1874 104.48 36.7075 104.48 37.0523H75.3571C75.594 39.2455 76.2992 41.2014 77.4782 42.9311C78.6572 44.7174 80.131 46.1023 81.9574 47.0802C83.7259 48.1203 85.7314 48.5782 87.9103 48.5782C90.0892 48.5782 91.9791 48.1146 93.7477 47.1367C95.5162 46.2153 96.99 44.8869 98.169 43.2137H102.77C101.354 46.0401 99.2903 48.2899 96.6953 49.9009C94.0424 51.5741 91.0948 52.3824 87.9103 52.3824C84.7258 52.3824 82.0151 51.6306 79.4779 50.1326L79.4837 50.1383ZM100.469 33.3611C100.117 31.2865 99.4059 29.3816 98.2268 27.6519C97.0478 25.9221 95.5162 24.5937 93.7477 23.6158C91.9791 22.6944 90.0314 22.1744 87.9103 22.1744C85.7892 22.1744 83.7837 22.6944 82.0151 23.6158C80.2466 24.5937 78.7728 25.9221 77.5938 27.6519C76.4147 29.3816 75.646 31.2865 75.3513 33.3611H100.464H100.469Z" fill="#02563D"/>
<path d="M36.5593 18.348H38.8712V22.3049H36.5593V18.348Z" fill="#02563D"/>
<g clip-path="url(#clip0_1727_2995)">
<path d="M166.664 5.14099C166.664 10.7812 162.362 14.8835 156.978 14.8835C162.361 14.8835 166.664 18.9855 166.664 24.626C166.664 18.9858 170.966 14.8835 176.35 14.8835C170.966 14.8835 166.664 10.7815 166.664 5.14099Z" fill="#23A578"/>
</g>
<path d="M129.864 18.3763C143.387 18.3764 148.565 23.9827 148.565 32.3705V51.9818H135.478C136.162 50.9726 136.57 49.8556 136.583 48.7181V42.1703L132.09 42.2562C125.842 42.3419 120.278 44.1819 120.278 49.5736C120.278 50.4559 120.427 51.2611 120.7 51.9818H108.466C108.439 51.6008 108.424 51.2118 108.424 50.8148C108.424 41.1434 115.4 36.0076 131.062 35.8363L136.583 35.7513V33.098C136.583 28.9469 133.929 26.7642 129.264 26.807C125.67 26.85 121.947 28.4338 120.706 32.4135H110.306C110.777 23.2555 118.823 18.3765 129.864 18.3763ZM156.35 19.4506C160.697 20.1145 164.031 23.5293 164.372 28.1342V51.9818H155.45V19.4506H156.35Z" fill="url(#paint0_linear_1727_2995)"/>
<path d="M174.51 0C174.51 2.97653 172.353 5.14104 169.655 5.14104C172.353 5.14104 174.51 7.30584 174.51 10.2821C174.51 7.30555 176.667 5.14104 179.365 5.14104C176.667 5.14104 174.51 2.97624 174.51 0Z" fill="#25A468" fill-opacity="0.6"/>
<defs>
<linearGradient id="paint0_linear_1727_2995" x1="159.911" y1="19.451" x2="159.911" y2="63.4825" gradientUnits="userSpaceOnUse">
<stop stop-color="#02563D"/>
<stop offset="0.629808" stop-color="#23A578"/>
</linearGradient>
<clipPath id="clip0_1727_2995">
<rect width="25.7052" height="23.4203" fill="white" transform="translate(153.661 5.14099)"/>
</clipPath>
</defs>
</svg>
