<svg width="417" height="156" viewBox="0 0 417 156" fill="none" xmlns="http://www.w3.org/2000/svg">
<path d="M71.0376 82.3238C71.0376 65.0907 57.0671 51.1203 39.834 51.1203C22.601 51.1203 8.63053 65.0907 8.63053 82.3238C8.63058 99.5568 22.601 113.527 39.834 113.527V122.158L38.806 122.144C17.6231 121.608 0.55003 104.535 0.0133393 83.3519L0 82.3238C0 60.3241 17.8344 42.4897 39.834 42.4897L40.8621 42.5031C62.3866 43.0484 79.6681 60.6679 79.6681 82.3238L79.6547 83.3519C79.1094 104.876 61.4899 122.158 39.834 122.158V113.527C57.0671 113.527 71.0375 99.5568 71.0376 82.3238Z" fill="#02563D"/>
<path d="M88.6297 121.485V42.6474H98.1278V55.3402C103.999 46.8652 112.933 42.4897 125.091 42.4897C131.795 42.4897 137.665 43.8563 142.69 46.3134C147.164 48.7704 150.509 52.0553 153.034 56.4308C155.412 60.8063 156.662 65.865 156.662 71.7384V121.485H147.164V71.7384C147.164 65.4577 145.068 60.5303 140.876 56.9827C136.685 53.435 131.23 51.5166 124.244 51.5166C115.861 51.5166 109.44 53.8423 104.966 58.4806C100.358 63.132 98.1144 69.6886 98.1144 78.1636V121.485H88.6162H88.6297Z" fill="#02563D"/>
<path d="M184.758 116.545C178.726 113.063 174.064 108.241 170.638 102.209C167.212 96.1784 165.573 89.4772 165.573 82.2373C165.573 74.9975 167.212 68.4277 170.638 62.3966C174.064 56.3656 178.726 51.5434 184.758 48.0614C190.655 44.5794 197.225 42.7004 204.359 42.7004C211.492 42.7004 217.927 44.5794 223.812 48.0614C229.709 51.5434 234.358 56.3656 237.783 62.3966C241.209 68.4277 242.996 74.9975 242.996 82.2373C242.996 84.1163 242.862 85.3251 242.862 86.1267H175.165C175.716 91.2248 177.355 95.7711 180.096 99.7918C182.837 103.944 186.262 107.163 190.508 109.436C194.619 111.854 199.28 112.918 204.345 112.918C209.41 112.918 213.803 111.841 217.914 109.568C222.025 107.426 225.451 104.338 228.191 100.449H238.885C235.594 107.019 230.798 112.248 224.765 115.993C218.599 119.882 211.747 121.761 204.345 121.761C196.943 121.761 190.642 120.014 184.744 116.532L184.758 116.545ZM233.538 77.5465C232.719 72.7243 231.066 68.2963 228.326 64.2756C225.585 60.2549 222.025 57.1671 217.914 54.8939C213.803 52.7522 209.275 51.5434 204.345 51.5434C199.415 51.5434 194.753 52.7522 190.642 54.8939C186.531 57.1671 183.105 60.2549 180.365 64.2756C177.624 68.2963 175.837 72.7243 175.152 77.5465H233.525H233.538Z" fill="#02563D"/>
<path d="M84.9814 42.6487H90.3552V51.8464H84.9814V42.6487Z" fill="#02563D"/>
<g clip-path="url(#clip0_1981_2484)">
<path d="M387.402 11.9502C387.402 25.0608 377.401 34.5964 364.888 34.5964C377.4 34.5964 387.402 44.1314 387.402 57.2426C387.402 44.132 397.402 34.5964 409.916 34.5964C397.403 34.5964 387.402 25.0614 387.402 11.9502Z" fill="#23A578"/>
</g>
<path d="M301.861 42.7153C333.296 42.7153 345.332 55.7474 345.332 75.2446V120.83H314.918C316.506 118.484 317.45 115.886 317.479 113.244V98.0239L307.034 98.2231C292.511 98.4221 279.579 102.7 279.579 115.234C279.579 117.284 279.924 119.155 280.558 120.83H252.119C252.057 119.945 252.024 119.041 252.024 118.119C252.024 95.6372 268.239 83.6992 304.646 83.3013L317.479 83.103V76.9351C317.479 67.2861 311.312 62.2125 300.469 62.312C292.113 62.4115 283.458 66.0922 280.573 75.3433H256.401C257.496 54.0558 276.197 42.7154 301.861 42.7153ZM363.447 45.2134C373.527 46.7611 381.262 54.6751 382.075 65.3462V120.83H361.337V45.2134H363.447Z" fill="url(#paint0_linear_1981_2484)"/>
<path d="M405.643 0C405.643 6.91886 400.629 11.9502 394.356 11.9502C400.63 11.9502 405.643 16.9822 405.643 23.9004C405.643 16.9816 410.657 11.9502 416.929 11.9502C410.656 11.9502 405.643 6.91819 405.643 0Z" fill="#25A468" fill-opacity="0.6"/>
<path d="M273.479 139.23L277.858 149.169L282.236 139.23H283.834L276.413 156H274.814L277.069 150.965L271.881 139.23H273.479Z" fill="#02563D"/>
<path d="M264.926 151.885C262.671 151.885 260.986 150.965 259.847 149.192V151.622H258.358V134.108H259.847V141.661C260.986 139.888 262.671 138.968 264.926 138.968C268.473 138.968 271.275 141.814 271.275 145.426C271.275 149.039 268.473 151.885 264.926 151.885ZM264.817 150.44C267.619 150.44 269.808 148.229 269.808 145.426C269.808 142.624 267.619 140.413 264.817 140.413C262.036 140.413 259.847 142.624 259.847 145.426C259.847 148.229 262.036 150.44 264.817 150.44Z" fill="#02563D"/>
<path d="M243.073 151.885C239.526 151.885 236.724 149.039 236.724 145.426C236.724 141.814 239.526 138.968 243.073 138.968C245.327 138.968 247.013 139.888 248.152 141.661V134.108H249.64V151.622H248.152V149.192C247.013 150.965 245.327 151.885 243.073 151.885ZM243.182 150.44C245.962 150.44 248.152 148.229 248.152 145.426C248.152 142.624 245.962 140.413 243.182 140.413C240.38 140.413 238.19 142.624 238.19 145.426C238.19 148.229 240.38 150.44 243.182 150.44Z" fill="#02563D"/>
<path d="M228.918 151.884C225.459 151.884 222.723 149.038 222.723 145.426C222.723 141.814 225.459 138.968 228.918 138.968C232.377 138.968 235.092 141.814 235.092 145.426C235.092 145.645 235.092 145.864 235.07 146.061H224.255C224.54 148.557 226.488 150.439 228.918 150.439C230.516 150.439 231.896 149.651 232.728 148.403H234.435C233.406 150.483 231.348 151.884 228.918 151.884ZM224.255 144.66H233.581C233.231 142.23 231.305 140.412 228.918 140.412C226.532 140.412 224.605 142.23 224.255 144.66Z" fill="#02563D"/>
<path d="M216.94 151.622H215.451V139.231H216.94V141.113C217.224 140.566 217.619 140.106 218.078 139.778C218.713 139.318 219.501 139.055 220.377 139.055C221.056 139.055 221.734 139.209 222.369 139.559L221.537 141.004C221.078 140.675 220.574 140.544 220.071 140.544C219.261 140.544 218.604 140.829 218.078 141.288C217.356 141.967 216.94 143.04 216.94 144.266V151.622Z" fill="#02563D"/>
<path d="M206.879 151.884C203.42 151.884 200.684 149.038 200.684 145.426C200.684 141.814 203.42 138.968 206.879 138.968C210.338 138.968 213.053 141.814 213.053 145.426C213.053 145.645 213.053 145.864 213.031 146.061H202.216C202.501 148.557 204.449 150.439 206.879 150.439C208.477 150.439 209.857 149.651 210.689 148.403H212.396C211.367 150.483 209.309 151.884 206.879 151.884ZM202.216 144.66H211.542C211.192 142.23 209.266 140.412 206.879 140.412C204.493 140.412 202.566 142.23 202.216 144.66Z" fill="#02563D"/>
<path d="M187.496 151.884H187.015L181.979 139.23H183.512L187.234 148.644L190.78 138.968H191.262L194.809 148.622L198.53 139.23H200.063L195.028 151.884H194.546L191.021 142.383L187.496 151.884Z" fill="#02563D"/>
<path d="M174.898 151.884C171.286 151.884 168.439 149.038 168.439 145.426C168.439 141.814 171.286 138.968 174.898 138.968C178.51 138.968 181.356 141.814 181.356 145.426C181.356 149.038 178.51 151.884 174.898 151.884ZM174.898 150.439C177.7 150.439 179.889 148.228 179.889 145.426C179.889 142.624 177.7 140.412 174.898 140.412C172.117 140.412 169.928 142.624 169.928 145.426C169.928 148.228 172.117 150.439 174.898 150.439Z" fill="#02563D"/>
<path d="M159.541 151.623H158.009V136.298H162.387C165.365 136.298 167.204 137.918 167.204 140.567C167.204 143.216 165.365 144.836 162.387 144.836H159.541V151.623ZM159.541 137.743V143.391H162.387C164.445 143.391 165.671 142.34 165.671 140.567C165.671 138.793 164.445 137.743 162.387 137.743H159.541Z" fill="#02563D"/>
<path d="M291.754 140.597C291.816 140.494 291.882 140.388 291.952 140.285C291.888 140.388 291.827 140.496 291.767 140.601L291.754 140.595V140.597Z" fill="#02563D"/>
<path d="M298.39 144.342L300.446 145.359L298.746 151.8L297.94 155.446C293.717 154.186 290.324 150.424 290.324 145.768C290.324 144.842 290.448 143.946 290.685 143.091C290.776 143.126 290.864 143.166 290.947 143.212L293.015 144.336C293.508 144.605 294.087 144.693 294.638 144.586L296.842 144.144C297.366 144.039 297.912 144.112 298.387 144.344L298.39 144.342Z" fill="#02563D"/>
<path d="M297.452 141.861L300.925 143.577V143.581L298.569 142.539C297.996 142.289 297.342 142.266 296.756 142.483L294.72 143.233C294.132 143.452 293.48 143.429 292.908 143.177L290.941 142.304C291.049 142.009 291.17 141.719 291.307 141.439L292.08 141.859C292.573 142.126 293.15 142.212 293.703 142.1L295.909 141.658C296.431 141.555 296.974 141.626 297.45 141.863L297.452 141.861Z" fill="#02563D"/>
<path d="M311.708 145.595V145.662C311.706 146.267 311.646 146.859 311.543 147.434C311.532 147.494 311.519 147.55 311.51 147.608C311.501 147.656 311.49 147.703 311.479 147.751C311.464 147.819 311.448 147.886 311.433 147.953C311.085 149.361 310.429 150.666 309.537 151.797H303.277L302.784 147.449H308.577L309.222 145.117L300.917 141.495L297.621 140.058C297.051 139.806 296.399 139.785 295.813 140.002L293.776 140.754C293.189 140.971 292.539 140.952 291.966 140.698L291.762 140.607C291.823 140.5 291.883 140.396 291.947 140.291C293.801 137.242 297.198 135.202 301.084 135.202C302.022 135.202 302.929 135.321 303.795 135.545C303.797 135.545 303.801 135.545 303.804 135.545C308.183 136.677 311.455 140.472 311.693 145.054C311.701 145.233 311.708 145.412 311.708 145.593V145.595Z" fill="#02563D"/>
<path d="M317.596 151.784V138.863H321.182V143.911H325.93V138.863H329.516V151.784H325.93V146.736H321.182V151.784H317.596Z" fill="#02563D"/>
<path d="M330.858 151.784V138.863H336.561C337.541 138.863 338.4 139.037 339.135 139.386C339.87 139.735 340.443 140.239 340.85 140.894C341.26 141.551 341.462 142.337 341.462 143.254C341.462 144.171 341.251 144.96 340.83 145.595C340.414 146.23 339.826 146.71 339.069 147.033C338.316 147.356 337.437 147.52 336.431 147.52H333.025V144.794H335.709C336.13 144.794 336.488 144.744 336.786 144.643C337.087 144.537 337.316 144.372 337.475 144.146C337.638 143.919 337.719 143.622 337.719 143.256C337.719 142.89 337.638 142.584 337.475 142.354C337.316 142.119 337.085 141.947 336.786 141.837C336.488 141.723 336.13 141.667 335.709 141.667H334.445V151.786H330.858V151.784ZM338.6 145.853L341.903 151.784H338.006L334.78 145.853H338.598H338.6Z" fill="#02563D"/>
<path d="M345.684 150.92C344.677 150.348 343.894 149.562 343.308 148.56C342.722 147.578 342.449 146.486 342.449 145.306C342.449 144.126 342.742 143.036 343.326 142.035C343.911 141.051 344.697 140.265 345.719 139.694C346.725 139.121 347.839 138.837 349.064 138.837C350.288 138.837 351.384 139.124 352.408 139.694C353.414 140.267 354.218 141.053 354.801 142.035C355.387 143.036 355.678 144.126 355.678 145.306C355.678 146.486 355.385 147.593 354.801 148.577C354.216 149.579 353.432 150.348 352.426 150.918C351.402 151.491 350.288 151.775 349.064 151.775C347.839 151.775 346.688 151.489 345.682 150.918L345.684 150.92ZM351.805 149.865C352.608 149.4 353.249 148.756 353.705 147.953C354.161 147.167 354.399 146.273 354.399 145.308C354.399 144.344 354.161 143.467 353.705 142.664C353.229 141.878 352.591 141.234 351.787 140.769C350.964 140.304 350.05 140.054 349.064 140.054C348.077 140.054 347.146 140.286 346.34 140.752C345.536 141.217 344.895 141.861 344.422 142.664C343.946 143.469 343.728 144.344 343.728 145.308C343.728 146.273 343.949 147.186 344.422 147.972C344.878 148.776 345.519 149.402 346.322 149.867C347.126 150.333 348.04 150.565 349.064 150.565C350.087 150.565 351.001 150.333 351.805 149.867V149.865Z" fill="#02563D"/>
<path d="M356.976 151.784V138.863H358.533V140.943C359.495 139.554 360.959 138.837 362.952 138.837C364.05 138.837 365.013 139.061 365.836 139.464C366.569 139.867 367.117 140.405 367.531 141.122C367.921 141.839 368.126 142.668 368.126 143.631V151.784H366.569V143.631C366.569 142.601 366.226 141.794 365.539 141.212C364.852 140.631 363.958 140.317 362.813 140.317C361.439 140.317 360.386 140.698 359.653 141.458C358.898 142.22 358.53 143.295 358.53 144.684V151.784H356.974H356.976Z" fill="#02563D"/>
<path d="M372.727 150.974C371.739 150.404 370.975 149.613 370.413 148.625C369.852 147.636 369.583 146.538 369.583 145.351C369.583 144.165 369.852 143.088 370.413 142.1C370.975 141.111 371.739 140.321 372.727 139.75C373.694 139.18 374.771 138.872 375.94 138.872C377.109 138.872 378.164 139.18 379.128 139.75C380.095 140.321 380.856 141.111 381.418 142.1C381.979 143.088 382.272 144.165 382.272 145.351C382.272 145.659 382.25 145.858 382.25 145.989H371.155C371.245 146.824 371.514 147.57 371.963 148.229C372.412 148.909 372.974 149.437 373.67 149.809C374.343 150.205 375.107 150.38 375.937 150.38C376.768 150.38 377.488 150.203 378.161 149.831C378.835 149.48 379.397 148.974 379.846 148.336H381.598C381.059 149.413 380.273 150.27 379.284 150.884C378.274 151.521 377.151 151.829 375.937 151.829C374.724 151.829 373.692 151.543 372.725 150.972L372.727 150.974ZM380.722 144.583C380.588 143.792 380.317 143.067 379.868 142.408C379.419 141.749 378.835 141.243 378.161 140.87C377.488 140.519 376.746 140.321 375.937 140.321C375.129 140.321 374.365 140.519 373.692 140.87C373.018 141.243 372.456 141.749 372.007 142.408C371.558 143.067 371.265 143.792 371.153 144.583H380.72H380.722Z" fill="#02563D"/>
<path d="M356.376 138.863H357.257V140.37H356.376V138.863Z" fill="#02563D"/>
<defs>
<linearGradient id="paint0_linear_1981_2484" x1="371.706" y1="45.2132" x2="371.706" y2="147.562" gradientUnits="userSpaceOnUse">
<stop stop-color="#02563D"/>
<stop offset="0.629808" stop-color="#23A578"/>
</linearGradient>
<clipPath id="clip0_1981_2484">
<rect width="59.7511" height="54.4399" fill="white" transform="translate(357.178 11.9502)"/>
</clipPath>
</defs>
</svg>
