<svg width="39" height="34" viewBox="0 0 39 34" fill="none" xmlns="http://www.w3.org/2000/svg">
<g clip-path="url(#clip0_1981_2552)">
<path d="M11.2347 1.93809C11.6608 0.841817 12.6203 0.196706 13.7909 0.0495267C15.8241 -0.172912 17.7083 1.20299 18.1278 3.15699C18.2518 3.73529 18.2137 4.36448 18.2135 4.95399L18.2121 11.0909C18.2123 11.7531 18.2311 12.4177 18.2123 13.0795C18.8927 13.0119 19.3453 13.0205 20.0191 13.0186L20.0173 4.83176C20.0169 4.23302 19.9702 3.60658 20.1289 3.02356C20.9892 -0.139507 25.1866 -1.3189 27.0631 1.93809C29.7529 1.51051 32.2533 3.33305 32.0658 6.10509C35.6199 6.46252 37.5336 9.87593 35.8668 13.0186C39.218 15.0447 38.8537 19.3687 35.6418 21.4781C35.4104 23.4673 33.8833 24.8463 31.9032 25.1656C32.2226 26.4944 32.1015 27.8253 31.2802 28.9734C30.3603 30.2597 29.3762 30.5529 27.8861 30.807C26.4489 34.0742 22.1166 33.8952 20.3519 30.9485C19.9346 30.2515 19.9308 29.6588 19.9316 28.8775L19.9354 27.2963C19.937 26.8001 19.7835 24.8137 20.1482 24.6253C20.3826 24.5042 20.7062 24.5744 20.8258 24.818C21.3007 25.7858 20.6145 29.3063 21.1128 30.3C22.3436 32.7543 26.1966 32.8867 26.963 30.514C27.4662 28.9563 25.1736 29.0984 24.9612 28.6415C24.457 27.5576 27.1823 27.7229 27.9961 29.8567C30.7601 29.4893 32.1937 26.2696 30.22 24.1189C29.2072 23.0153 29.6911 23.1478 30.2885 21.4361C30.4934 20.8491 31.0486 21.0087 31.2467 21.4779C31.0939 22.079 30.8366 22.6522 30.6524 23.2445C30.9811 23.563 31.2419 23.8742 31.4703 24.2698C34.5288 23.9397 35.9284 20.4137 33.6087 18.7611C33.3875 18.6035 32.9779 18.4355 32.8536 18.1979C32.1895 16.9274 34.9345 17.477 35.6416 20.3504C37.0862 19.0977 37.6674 17.387 36.9063 15.5689C36.6095 14.8604 36.0041 14.1038 35.2715 13.8048C33.4943 15.1298 30.8436 15.2483 30.165 12.7655C30.5819 11.5666 31.1295 12.7845 31.3197 13.06C32.9698 15.4483 37.3168 11.9427 34.8604 8.61342C34.1352 7.63032 33.0869 7.19291 31.9028 7.00702C30.4302 10.1335 26.923 8.79793 27.5683 7.89206C27.9381 7.37291 28.4451 7.92232 28.8776 8.01763C30.7971 8.44069 32.2591 5.05833 29.8571 3.39082C29.1123 2.87383 28.1655 2.74119 27.2835 2.89309C27.0734 5.78793 23.0381 4.34248 24.0829 3.47846C24.505 3.12948 24.8265 3.64922 25.3113 3.69461C26.6693 3.82214 26.3887 2.33935 25.6641 1.60463C24.6567 0.582829 22.8493 0.908234 21.8993 1.8365C20.9589 2.75534 20.9525 3.572 20.9537 4.77635L20.9551 13.3508C21.3555 13.4961 21.718 13.7374 22.0604 13.9838C22.6929 13.2719 23.3711 12.5759 24.0457 11.9022C23.1543 10.0296 25.8763 8.75706 26.7608 10.5694C27.3724 11.8229 26.1191 12.9848 24.7866 12.4969C24.1469 13.231 23.3982 13.8771 22.7569 14.6138C23.3181 15.3766 23.74 16.1089 23.9548 17.0392H26.4281C27.1854 15.22 29.7666 16.175 29.2977 17.8918C28.931 19.2339 27.1906 19.4027 26.4281 17.9655C25.6348 17.9527 24.8394 17.9643 24.0459 17.9655C23.9169 19.0346 23.7535 19.551 23.2194 20.4911C23.7649 20.9688 24.2507 21.506 24.7868 21.9929C25.4491 21.6312 26.2665 21.8682 26.6571 22.5038C27.3815 23.6829 26.3044 25.0334 24.7868 24.6062C23.9947 24.2274 23.794 23.4394 24.0459 22.6552C23.6818 22.193 23.2366 21.7652 22.8171 21.351C22.2098 20.7517 21.9115 20.7532 22.4322 19.9482C24.2485 17.141 21.8166 13.4234 18.5429 13.9706C16.0004 14.3956 14.2499 17.308 15.5732 19.6387C15.7595 19.9668 16.3157 20.3484 16.0397 20.7499C15.6355 21.3382 14.7571 22.0112 14.2473 22.6553C14.94 24.4854 12.3728 25.4989 11.5705 23.8738C10.9647 22.6469 12.1482 21.4677 13.5321 21.9931C14.0237 21.4974 14.512 21 14.9899 20.4913C14.4701 19.733 14.2226 18.8792 14.2473 17.9657H11.7423C11.3168 19.159 9.70416 19.3714 9.05329 18.2274C8.11903 16.5854 10.6591 14.9557 11.7423 17.0394H14.2473C14.5297 16.117 14.8296 15.3449 15.4919 14.614C14.995 14.0651 13.8723 13.0364 13.5323 12.4971C10.2076 13.3941 11.0145 8.64446 13.4296 9.82975C14.1897 10.2029 14.4661 11.0486 14.1016 11.7938C14.8019 12.5326 15.5451 13.2361 16.2336 13.9838C16.5431 13.699 16.8811 13.5249 17.2633 13.3508L17.2651 4.95025C17.2675 3.52346 17.2641 2.22931 15.7894 1.40302C12.9123 -0.209265 11.099 2.97856 12.4731 3.63488C12.8983 3.83806 13.2901 3.56925 13.6821 3.4429C14.3816 3.21771 14.7409 4.28313 13.3332 4.57435C12.0637 4.83707 11.2205 4.07425 10.985 2.89289C9.26294 2.30987 7.34938 3.6052 7.09987 5.33539C6.89341 6.76651 7.96059 8.38941 9.50866 8.01134C9.76016 7.94983 10.0695 7.75844 10.3297 7.80148C10.8118 7.88125 10.8128 8.51713 10.4174 8.71697C8.75117 9.55917 7.09927 8.53148 6.32983 7.00683C3.04557 6.92941 1.18702 11.6635 3.97684 13.3723C6.22361 14.7482 6.94682 12.4517 7.41534 12.3542C8.21229 12.1882 7.91436 13.1925 7.58514 13.6295C6.39918 15.2029 4.37183 14.8788 2.94692 13.8046C0.555875 15.3998 0.189386 18.6739 2.64281 20.3502C2.87279 18.0211 5.72559 16.6644 5.39357 18.0468C5.3306 18.3097 4.92465 18.487 4.71341 18.6273C3.27097 19.584 3.16016 21.6483 4.09263 22.9831C4.69607 23.8471 5.58788 24.2293 6.60265 24.4091C6.80114 24.022 7.14531 23.6827 7.28999 23.279C7.65329 22.2655 6.83044 21.8576 6.91234 21.3606C6.95539 21.1002 7.21725 20.9876 7.46257 21.0423C8.30416 21.2299 8.48293 23.0721 8.20074 23.6754C8.10528 23.8795 7.95641 24.0556 7.82548 24.2382C6.18753 26.5205 7.43328 29.2929 10.1099 29.8565C10.8855 28.6476 11.3863 28.0646 12.9488 27.8652C13.2497 27.9811 13.4852 28.2794 13.3168 28.6011C13 29.2057 11.99 28.402 10.985 30.2918C12.0055 33.0322 16.3966 32.8233 17.2304 29.7759C17.5128 28.7437 17.3283 26.3354 17.3624 25.1509C17.3761 24.6762 17.9142 24.291 18.244 24.7876C18.4007 25.0234 18.3534 29.1342 18.2655 29.6541C17.6472 33.3086 12.9025 34.431 10.6352 31.5843C10.4389 31.3379 10.2911 31.0628 10.1101 30.8066L9.50726 30.6627C7.06779 30.0628 5.71562 27.6938 6.32983 25.3193C4.19566 24.8393 2.89033 23.7039 2.52723 21.4779C-0.248049 19.8033 -0.915662 16.1698 1.42098 13.8152C1.70556 13.5285 2.03359 13.2783 2.34348 13.0182C0.462609 10.3715 2.77693 6.08524 6.11759 6.10469C6.03269 3.09077 8.34083 1.44743 11.2347 1.9377V1.93809ZM12.6138 10.6332C12.0113 10.9693 12.1739 11.78 12.949 11.6497C13.5839 11.3554 13.3328 10.5216 12.6138 10.6332ZM25.2942 10.6332C24.5146 10.895 24.7242 11.6831 25.5092 11.7942C26.081 11.468 26.0284 10.6185 25.2942 10.6332ZM10.2259 17.0396C9.53456 17.1979 9.76494 18.1596 10.4642 17.9659C11.1637 17.8248 10.8949 16.9374 10.2259 17.0396ZM27.7102 17.0396C27.0067 17.2229 27.322 18.1455 27.9961 17.9659C28.6462 17.7468 28.428 16.9201 27.7102 17.0396ZM12.8463 22.7339C12.1968 22.9132 12.2309 23.7581 12.949 23.7622C13.618 23.5207 13.5275 22.7273 12.8463 22.7339ZM25.2942 22.7339C24.6834 23.0104 24.7414 23.8239 25.5092 23.7622C26.1418 23.4917 26.0684 22.7088 25.2942 22.7339Z" fill="white"/>
</g>
<defs>
<clipPath id="clip0_1981_2552">
<rect width="38.2203" height="33.2078" fill="white"/>
</clipPath>
</defs>
</svg>
