<svg width="32" height="32" viewBox="0 0 32 32" fill="none" xmlns="http://www.w3.org/2000/svg">
<path d="M2.74936 15.536C2.63824 15.8353 2.63824 16.1646 2.74936 16.464C3.83162 19.0882 5.66871 21.3319 8.02772 22.9108C10.3867 24.4897 13.1614 25.3325 16 25.3325C18.8386 25.3325 21.6133 24.4897 23.9723 22.9108C26.3313 21.3319 28.1684 19.0882 29.2507 16.464C29.3618 16.1646 29.3618 15.8353 29.2507 15.536C28.1684 12.9118 26.3313 10.668 23.9723 9.08919C21.6133 7.51034 18.8386 6.66748 16 6.66748C13.1614 6.66748 10.3867 7.51034 8.02772 9.08919C5.66871 10.668 3.83162 12.9118 2.74936 15.536Z" stroke="#02563D" stroke-width="2" stroke-linecap="round" stroke-linejoin="round"/>
<path d="M16 20C18.2091 20 20 18.2091 20 16C20 13.7909 18.2091 12 16 12C13.7909 12 12 13.7909 12 16C12 18.2091 13.7909 20 16 20Z" stroke="#02563D" stroke-width="2" stroke-linecap="round" stroke-linejoin="round"/>
</svg>
