<svg width="32" height="32" viewBox="0 0 32 32" fill="none" xmlns="http://www.w3.org/2000/svg">
<path d="M29.3327 16H21.3327L18.666 20H13.3327L10.666 16H2.66602" stroke="#02563D" stroke-width="2" stroke-linecap="round" stroke-linejoin="round"/>
<path d="M7.26602 6.81325L2.66602 15.9999V23.9999C2.66602 24.7072 2.94697 25.3854 3.44706 25.8855C3.94716 26.3856 4.62544 26.6666 5.33268 26.6666H26.666C27.3733 26.6666 28.0515 26.3856 28.5516 25.8855C29.0517 25.3854 29.3327 24.7072 29.3327 23.9999V15.9999L24.7327 6.81325C24.5119 6.36897 24.1716 5.99508 23.75 5.73362C23.3283 5.47217 22.8421 5.33352 22.346 5.33325H9.65268C9.15657 5.33352 8.67037 5.47217 8.24874 5.73362C7.82712 5.99508 7.48679 6.36897 7.26602 6.81325Z" stroke="#02563D" stroke-width="2" stroke-linecap="round" stroke-linejoin="round"/>
</svg>
