<svg width="32" height="32" viewBox="0 0 32 32" fill="none" xmlns="http://www.w3.org/2000/svg">
<path d="M5.33398 18.6667H13.334" stroke="#02563D" stroke-width="2" stroke-linecap="round" stroke-linejoin="round"/>
<path d="M5.33398 2.66675H18.6673" stroke="#02563D" stroke-width="2" stroke-linecap="round" stroke-linejoin="round"/>
<path d="M25.334 24H6.66732C5.93094 24 5.33398 24.597 5.33398 25.3333V28C5.33398 28.7364 5.93094 29.3333 6.66732 29.3333H25.334C26.0704 29.3333 26.6673 28.7364 26.6673 28V25.3333C26.6673 24.597 26.0704 24 25.334 24Z" stroke="#02563D" stroke-width="2" stroke-linecap="round" stroke-linejoin="round"/>
<path d="M25.334 8H6.66732C5.93094 8 5.33398 8.59695 5.33398 9.33333V12C5.33398 12.7364 5.93094 13.3333 6.66732 13.3333H25.334C26.0704 13.3333 26.6673 12.7364 26.6673 12V9.33333C26.6673 8.59695 26.0704 8 25.334 8Z" stroke="#02563D" stroke-width="2" stroke-linecap="round" stroke-linejoin="round"/>
</svg>
