<svg width="520" height="89" viewBox="0 0 520 89" fill="none" xmlns="http://www.w3.org/2000/svg">
<g clip-path="url(#clip0_1839_140)">
<path d="M34.1095 0.0159912H6.73403C3.01411 0.0159912 0 3.0301 0 6.75002V34.1255C0 37.8454 3.01411 40.8631 6.73403 40.8631H34.1095C37.8294 40.8631 40.8471 37.8454 40.8471 34.1255V6.75002C40.8471 3.0301 37.8294 0.0159912 34.1095 0.0159912ZM30.5012 22.8901H22.3303V31.0574H17.973V22.8901H9.80576V18.5328H17.973V10.3619H22.3303V18.5328H30.5012V22.8901Z" fill="white"/>
<path d="M80.4051 0.0168457H53.026C49.3068 0.0168457 46.292 3.03178 46.292 6.75088V34.1299C46.292 37.8491 49.3068 40.864 53.026 40.864H80.4051C84.1243 40.864 87.1391 37.8491 87.1391 34.1299V6.75088C87.1391 3.03178 84.1243 0.0168457 80.4051 0.0168457Z" fill="white"/>
<path d="M34.1131 47.3962H6.73403C3.01493 47.3962 0 50.4111 0 54.1303V81.5093C0 85.2285 3.01493 88.2434 6.73403 88.2434H34.1131C37.8323 88.2434 40.8471 85.2285 40.8471 81.5093V54.1303C40.8471 50.4111 37.8323 47.3962 34.1131 47.3962Z" fill="white"/>
<path d="M81.1905 67.3497C84.2587 66.5142 87.3484 65.5599 90.4057 64.7245L62.8322 52.9849L54.5785 49.5135C52.9796 48.8365 51.1539 48.0046 49.5586 47.3997C50.7181 52.0991 52.0974 56.8381 53.3613 61.5195L60.2214 87.3429C61.2513 85.7188 67.528 75.8158 68.3995 75.2433C68.6264 75.2216 68.8928 75.2397 69.0549 75.4053C70.1496 76.536 71.3128 77.9873 72.3103 79.1864C73.9524 81.167 75.5764 83.1584 77.1861 85.1606C77.8379 85.9673 79.0875 87.4329 79.6277 88.2432C81.457 86.8424 83.2936 85.4523 85.1409 84.0767L86.7974 82.8596L79.7033 74.3754C78.5149 72.9602 77.2798 71.581 76.1166 70.1441C75.8249 69.784 75.6377 69.3951 75.9114 68.9666C76.646 68.5524 80.1894 67.6198 81.1869 67.3497H81.1905Z" fill="white"/>
</g>
<path d="M142 67.2963C133.058 67.2963 123.527 63.2369 122.762 53.765H134.646C135.293 56.7654 137.941 58.5304 141.941 58.5304C145.53 58.5304 148.942 57.6479 148.942 54.6474C148.942 52.0588 145.412 51.4705 141.824 50.8822L135.175 49.7644C128.527 48.7054 124.115 44.4695 123.997 37.2331C123.88 28.6437 131.999 23.6429 141.824 23.6429C152.237 23.6429 159.591 30.0556 160.356 37.0566H148.766C148.413 33.7621 146.059 32.4677 142.059 32.4677C137.588 32.4677 136.234 34.2915 136.234 35.8212C136.234 37.7626 137.176 38.8804 140.882 39.5276L147.53 40.6454C159.885 42.7634 160.65 50.4115 160.65 54.6474C160.65 61.8838 152.649 67.2963 142 67.2963ZM165.645 34.2327V24.1724H201.356V34.2327H189.178V66.708H177.706V34.2327H165.645ZM243.346 49.1172C243.346 59.9423 238.698 67.2963 224.99 67.2963C211.282 67.2963 206.634 59.9423 206.634 49.1172V24.1724H218.224V49.5879C218.224 55.4711 221.401 57.7067 224.99 57.7067C228.52 57.7067 231.756 55.4711 231.756 49.5879V24.1724H243.346V49.1172ZM250.715 24.1724C251.95 24.1724 262.305 24.1136 266.011 24.2313C281.366 24.7607 288.014 33.2326 288.014 45.2931C288.014 57.7067 281.013 66.708 265.952 66.708H250.715V24.1724ZM262.187 33.1737V57.7067H266.305C270.659 57.7067 276.071 54.3533 276.071 45.1166C276.071 37.292 272.13 33.1737 266.305 33.1737H262.187ZM295.37 24.1724H306.842V66.708H295.37V24.1724ZM334.857 67.2963C322.209 67.2963 314.207 58.7657 314.207 45.5285C314.207 32.2324 322.444 23.5841 334.857 23.5841C347.212 23.5841 355.39 32.2324 355.39 45.5285C355.39 58.7068 347.389 67.2963 334.857 67.2963ZM334.857 58.1185C339.564 58.1185 342.976 54.8828 342.976 45.705C342.976 36.233 339.564 32.7619 334.857 32.7619C330.151 32.7619 326.68 36.233 326.68 45.705C326.68 54.8828 330.151 58.1185 334.857 58.1185Z" fill="white"/>
<path d="M381.618 56.509C378.001 56.509 376.551 54.2783 376.089 53.1788L375.818 56.1903H373.62V32.5129H376.504V42.5989C377.093 41.4676 378.543 39.3962 381.841 39.3962C386.366 39.3962 388.486 43.045 388.486 47.8889C388.486 53.1629 386.143 56.509 381.618 56.509ZM381.061 54.2783C383.722 54.2783 385.506 52.3662 385.506 47.857C385.506 43.8098 383.945 41.6588 381.029 41.6588C377.205 41.6588 376.599 44.7659 376.504 46.184V49.6097C376.551 52.2069 378.32 54.2783 381.061 54.2783ZM393.759 61.4484C391.847 61.4484 391.241 61.0501 391.241 61.0501V59.1699L392.93 59.2018C395.368 59.2814 395.974 58.2139 396.308 57.3853L396.898 55.8079L390.461 39.7149H393.377L398.268 52.5096L403.144 39.7149H405.948L399.001 57.465C397.742 60.5721 396.006 61.4484 393.759 61.4484ZM431.217 45.5466H420.414V56.1903H417.514V33.1502H420.414V42.9972H431.217V33.1502H434.117V56.1903H431.217V45.5466ZM456.598 56.1903H453.538L449.316 46.2318H443.07V56.1903H440.17V33.1502H449.077C454.032 33.1502 456.55 35.5084 456.55 39.4281C456.55 43.1725 454.255 44.8933 452.057 45.7059L456.598 56.1903ZM448.121 43.8258C451.61 43.8258 453.586 42.4077 453.586 39.5874C453.586 36.8787 451.802 35.5243 448.822 35.5243H443.07V43.8258H448.121ZM469.849 56.509C463.651 56.509 459.874 52.2547 459.874 44.7659C459.874 37.1814 463.714 32.8315 469.865 32.8315C475.967 32.8315 479.775 37.1496 479.775 44.7181C479.775 52.2228 475.999 56.509 469.849 56.509ZM469.897 53.9915C474.167 53.9915 476.605 51.1234 476.605 44.7499C476.605 38.2968 474.119 35.349 469.865 35.349C465.594 35.349 463.045 38.3127 463.045 44.7499C463.045 51.1075 465.594 53.9915 469.897 53.9915ZM483.848 56.1903V39.7149H486.653V42.0093C487.561 40.6231 489.186 39.4759 491.831 39.4759C494.986 39.4759 497.599 41.5313 497.599 45.3713V56.1903H494.715V45.6422C494.715 43.2044 493.233 41.8659 491.05 41.8659C488.788 41.8659 486.732 42.9335 486.732 45.1164V56.1903H483.848ZM504.36 48.6218C504.344 51.7767 505.905 54.2464 509.108 54.2464C511.227 54.2464 512.661 53.2904 513.298 51.3943H516.007C515.21 54.8359 512.342 56.509 509.172 56.509C504.583 56.509 501.444 53.37 501.444 48.1119C501.444 42.9175 504.2 39.3962 508.949 39.3962C513.553 39.3962 516.119 42.5511 516.119 47.5543V48.6218H504.36ZM504.376 46.662H513.346C513.346 43.7939 511.928 41.611 508.933 41.611C505.826 41.611 504.344 44.1922 504.376 46.662Z" fill="#D9D9D9"/>
<defs>
<clipPath id="clip0_1839_140">
<rect width="90.4053" height="88.2601" fill="white"/>
</clipPath>
</defs>
</svg>
