<svg width="32" height="32" viewBox="0 0 32 32" fill="none" xmlns="http://www.w3.org/2000/svg">
<path d="M12 4H5.33333C4.59695 4 4 4.59695 4 5.33333V12C4 12.7364 4.59695 13.3333 5.33333 13.3333H12C12.7364 13.3333 13.3333 12.7364 13.3333 12V5.33333C13.3333 4.59695 12.7364 4 12 4Z" stroke="#02563D" stroke-width="2" stroke-linecap="round" stroke-linejoin="round"/>
<path d="M26.666 4H19.9993C19.263 4 18.666 4.59695 18.666 5.33333V12C18.666 12.7364 19.263 13.3333 19.9993 13.3333H26.666C27.4024 13.3333 27.9993 12.7364 27.9993 12V5.33333C27.9993 4.59695 27.4024 4 26.666 4Z" stroke="#02563D" stroke-width="2" stroke-linecap="round" stroke-linejoin="round"/>
<path d="M26.666 18.6666H19.9993C19.263 18.6666 18.666 19.2636 18.666 20V26.6666C18.666 27.403 19.263 28 19.9993 28H26.666C27.4024 28 27.9993 27.403 27.9993 26.6666V20C27.9993 19.2636 27.4024 18.6666 26.666 18.6666Z" stroke="#02563D" stroke-width="2" stroke-linecap="round" stroke-linejoin="round"/>
<path d="M12 18.6666H5.33333C4.59695 18.6666 4 19.2636 4 20V26.6666C4 27.403 4.59695 28 5.33333 28H12C12.7364 28 13.3333 27.403 13.3333 26.6666V20C13.3333 19.2636 12.7364 18.6666 12 18.6666Z" stroke="#02563D" stroke-width="2" stroke-linecap="round" stroke-linejoin="round"/>
</svg>
