<svg width="24" height="24" viewBox="0 0 24 24" fill="none" xmlns="http://www.w3.org/2000/svg">
<path d="M12 23C18.0751 23 23 18.0751 23 12C23 5.92487 18.0751 1 12 1C5.92487 1 1 5.92487 1 12C1 18.0751 5.92487 23 12 23Z" stroke="#EE5A3C" stroke-width="2"/>
<path d="M12 17C14.7614 17 17 14.7614 17 12C17 9.23858 14.7614 7 12 7C9.23858 7 7 9.23858 7 12C7 14.7614 9.23858 17 12 17Z" stroke="#EE5A3C" stroke-width="2"/>
<path d="M12.0004 13.6C12.884 13.6 13.6004 12.8837 13.6004 12C13.6004 11.1164 12.884 10.4 12.0004 10.4C11.1167 10.4 10.4004 11.1164 10.4004 12C10.4004 12.8837 11.1167 13.6 12.0004 13.6Z" fill="#EE5A3C"/>
</svg>
