<svg width="38" height="38" viewBox="0 0 38 38" fill="none" xmlns="http://www.w3.org/2000/svg">
<path d="M19.0002 15.8333C18.1604 15.8333 17.3549 16.1669 16.761 16.7608C16.1672 17.3547 15.8335 18.1601 15.8335 19C15.8335 20.615 15.6752 22.9741 15.4219 25.3333" stroke="#015741" stroke-width="3.16667" stroke-linecap="round" stroke-linejoin="round"/>
<path d="M22.1673 20.7733C22.1673 24.5416 22.1673 30.875 20.584 34.8333" stroke="#015741" stroke-width="3.16667" stroke-linecap="round" stroke-linejoin="round"/>
<path d="M27.375 33.2817C27.565 32.3317 28.0558 29.64 28.1667 28.5" stroke="#015741" stroke-width="3.16667" stroke-linecap="round" stroke-linejoin="round"/>
<path d="M3.16602 19C3.16602 15.6769 4.21161 12.438 6.15468 9.74211C8.09776 7.04624 10.8398 5.03007 13.9924 3.9792C17.145 2.92833 20.5484 2.89604 23.7203 3.88689C26.8923 4.87774 29.6721 6.84151 31.666 9.50002" stroke="#015741" stroke-width="3.16667" stroke-linecap="round" stroke-linejoin="round"/>
<path d="M3.16602 25.3333H3.18102" stroke="#015741" stroke-width="3.16667" stroke-linecap="round" stroke-linejoin="round"/>
<path d="M34.5176 25.3333C34.8342 22.1666 34.725 16.8561 34.5176 15.8333" stroke="#015741" stroke-width="3.16667" stroke-linecap="round" stroke-linejoin="round"/>
<path d="M7.91602 30.875C8.70768 28.5 9.49935 23.75 9.49935 19C9.49775 17.9215 9.6798 16.8507 10.0377 15.8333" stroke="#015741" stroke-width="3.16667" stroke-linecap="round" stroke-linejoin="round"/>
<path d="M13.6973 34.8334C14.0298 33.7884 14.4098 32.7434 14.5998 31.6667" stroke="#015741" stroke-width="3.16667" stroke-linecap="round" stroke-linejoin="round"/>
<path d="M14.25 10.7667C15.6946 9.9326 17.3334 9.49363 19.0015 9.4939C20.6696 9.49416 22.3083 9.93366 23.7526 10.7682C25.197 11.6027 26.3962 12.8028 27.2295 14.2479C28.0629 15.6929 28.5011 17.3319 28.5 19V22.1667" stroke="#015741" stroke-width="3.16667" stroke-linecap="round" stroke-linejoin="round"/>
</svg>
