<svg width="108" height="86" viewBox="0 0 108 86" fill="none" xmlns="http://www.w3.org/2000/svg">
<path d="M47.8278 23.1427L52.9293 25.7165L48.7126 42.0266L46.7135 51.2586C36.2373 48.0685 27.8203 38.5421 27.8203 26.7526C27.8203 24.4078 28.1262 22.1393 28.7161 19.9745C28.94 20.0617 29.1585 20.1653 29.3661 20.2799L34.4949 23.1263C35.7184 23.808 37.155 24.0315 38.5205 23.7589L43.988 22.641C45.2879 22.3738 46.6425 22.5592 47.8223 23.1482L47.8278 23.1427Z" fill="white"/>
<path d="M45.495 16.8607L54.1087 21.2068V21.2177L48.2643 18.5784C46.8442 17.9459 45.2219 17.8859 43.769 18.4367L38.7166 20.3343C37.2583 20.8905 35.6415 20.8305 34.2214 20.1925L29.3438 17.9841C29.6114 17.237 29.9118 16.5008 30.2505 15.7919L32.1676 16.8553C33.3911 17.5315 34.8222 17.7496 36.1932 17.466L41.6661 16.3481C42.9606 16.0864 44.3098 16.2663 45.4896 16.8662L45.495 16.8607Z" fill="white"/>
<path d="M80.8791 26.3164V26.4854C80.8737 28.0177 80.7262 29.5173 80.4695 30.9732C80.4422 31.1259 80.4094 31.2677 80.3875 31.4149C80.3657 31.5349 80.3384 31.6549 80.3111 31.7748C80.2728 31.9493 80.2346 32.1184 80.1964 32.2874C79.3334 35.8537 77.7057 39.1583 75.4935 42.0211H59.9649L58.7415 31.0114H73.1121L74.7125 25.1058L54.1096 15.9338L45.9329 12.2966C44.5183 11.6586 42.9015 11.6041 41.4486 12.1548L36.3962 14.0579C34.9378 14.6087 33.3265 14.5596 31.9064 13.9161L31.3984 13.6871C31.5514 13.4145 31.6988 13.1527 31.8572 12.8855C36.4563 5.16403 44.8842 0 54.5247 0C56.8516 0 59.1019 0.299917 61.2485 0.867033C61.254 0.867033 61.2649 0.867033 61.2704 0.867033C72.1344 3.73533 80.251 13.3436 80.8409 24.9476C80.8627 25.4002 80.8791 25.8528 80.8791 26.3109V26.3164Z" fill="white"/>
<path d="M0 85.5848V63.6319H5.97006V72.2082H13.8715V63.6319H19.8416V85.5848H13.8715V77.0085H5.97006V85.5848H0Z" fill="white"/>
<path d="M22.0703 85.5848V63.6319H31.5623C33.1932 63.6319 34.6225 63.9283 35.8465 64.521C37.0706 65.1137 38.0235 65.9699 38.7015 67.0822C39.3831 68.1981 39.7203 69.5336 39.7203 71.0922C39.7203 72.6509 39.3685 73.99 38.6685 75.0694C37.9758 76.1487 36.9973 76.9646 35.7366 77.5135C34.4832 78.0623 33.0209 78.3403 31.3461 78.3403H25.6765V73.7083H30.144C30.844 73.7083 31.4414 73.6241 31.9361 73.4522C32.4382 73.2729 32.8194 72.9912 33.0832 72.607C33.3544 72.2228 33.49 71.7179 33.49 71.0959C33.49 70.4739 33.3544 69.9543 33.0832 69.5628C32.8194 69.164 32.4346 68.8713 31.9361 68.6847C31.4414 68.4908 30.844 68.3957 30.144 68.3957H28.0404V85.5885H22.0703V85.5848ZM34.956 75.5084L40.4533 85.5848H33.9665L28.5974 75.5084H34.9523H34.956Z" fill="white"/>
<path d="M46.7489 84.1248C45.0741 83.1516 43.7694 81.8161 42.7945 80.1148C41.8197 78.4464 41.3652 76.5913 41.3652 74.5863C41.3652 72.5813 41.8527 70.7299 42.8238 69.0286C43.7987 67.3565 45.1071 66.021 46.8076 65.0514C48.4824 64.0782 50.3368 63.5952 52.3745 63.5952C54.4122 63.5952 56.2373 64.0818 57.9414 65.0514C59.6163 66.0247 60.9539 67.3601 61.9251 69.0286C62.9 70.7299 63.3837 72.5813 63.3837 74.5863C63.3837 76.5913 62.8963 78.472 61.9251 80.1441C60.9503 81.8454 59.6456 83.1516 57.9707 84.1212C56.2666 85.0944 54.4122 85.5774 52.3745 85.5774C50.3368 85.5774 48.4201 85.0908 46.7453 84.1212L46.7489 84.1248ZM56.9372 82.332C58.2749 81.5417 59.3414 80.4477 60.1 79.083C60.8586 77.7475 61.2545 76.2291 61.2545 74.59C61.2545 72.9508 60.8586 71.4617 60.1 70.0969C59.3084 68.7615 58.2456 67.6675 56.9079 66.8772C55.5373 66.0869 54.0163 65.6624 52.3745 65.6624C50.7326 65.6624 49.1824 66.0576 47.8411 66.8479C46.5034 67.6382 45.4369 68.7322 44.649 70.0969C43.8573 71.4653 43.4945 72.9508 43.4945 74.59C43.4945 76.2291 43.861 77.7805 44.649 79.1159C45.4076 80.4807 46.4741 81.5454 47.8117 82.3357C49.1494 83.126 50.6703 83.5211 52.3745 83.5211C54.0786 83.5211 55.5996 83.126 56.9372 82.3357V82.332Z" fill="white"/>
<path d="M65.5408 85.5848V63.6319H68.1318V67.1663C69.7334 64.8063 72.1705 63.588 75.4872 63.588C77.316 63.588 78.9175 63.9685 80.2882 64.6527C81.5086 65.3369 82.4211 66.2516 83.1101 67.47C83.7588 68.6883 84.0996 70.097 84.0996 71.7325V85.5848H81.5086V71.7325C81.5086 69.9836 80.9369 68.6115 79.7934 67.6236C78.65 66.6357 77.1621 66.1016 75.2563 66.1016C72.9695 66.1016 71.2176 66.7492 69.9972 68.0407C68.7402 69.336 68.1282 71.1617 68.1282 73.5216V85.5848H65.5371H65.5408Z" fill="white"/>
<path d="M91.7647 84.2127C90.1192 83.2431 88.8474 81.9003 87.9129 80.2209C86.9784 78.5415 86.5312 76.6755 86.5312 74.6595C86.5312 72.6435 86.9784 70.8141 87.9129 69.1347C88.8474 67.4553 90.1192 66.1125 91.7647 65.1429C93.3736 64.1734 95.1657 63.6501 97.1117 63.6501C99.0578 63.6501 100.813 64.1734 102.418 65.1429C104.027 66.1125 105.295 67.4553 106.23 69.1347C107.164 70.8141 107.652 72.6435 107.652 74.6595C107.652 75.1827 107.615 75.5194 107.615 75.7425H89.148C89.2982 77.1622 89.7453 78.4281 90.493 79.5477C91.2406 80.7039 92.1751 81.6003 93.3332 82.2333C94.4547 82.9065 95.7264 83.2029 97.108 83.2029C98.4897 83.2029 99.6881 82.9029 100.81 82.2699C101.931 81.6735 102.866 80.8137 103.613 79.7307H106.53C105.633 81.5601 104.324 83.0163 102.679 84.059C100.996 85.142 99.1274 85.6653 97.108 85.6653C95.0887 85.6653 93.3699 85.1786 91.761 84.209L91.7647 84.2127ZM105.072 73.3533C104.848 72.0105 104.397 70.7775 103.65 69.6579C102.902 68.5383 101.931 67.6785 100.81 67.0455C99.6881 66.4491 98.453 66.1125 97.108 66.1125C95.763 66.1125 94.4913 66.4491 93.3699 67.0455C92.2484 67.6785 91.3139 68.5383 90.5663 69.6579C89.8186 70.7775 89.3312 72.0105 89.1443 73.3533H105.068H105.072Z" fill="white"/>
<path d="M64.5508 63.6319H66.0167V66.1931H64.5508V63.6319Z" fill="white"/>
</svg>
