<svg width="33" height="33" viewBox="0 0 33 33" fill="none" xmlns="http://www.w3.org/2000/svg">
<path d="M23.375 4.125C24.1043 4.125 24.8038 4.41473 25.3195 4.93046C25.8353 5.44618 26.125 6.14565 26.125 6.875V27.5C26.1249 27.7408 26.0616 27.9773 25.9414 28.186C25.8212 28.3946 25.6483 28.568 25.4401 28.6889C25.2318 28.8097 24.9954 28.8737 24.7546 28.8745C24.5139 28.8754 24.2771 28.8129 24.068 28.6935L17.864 25.1488C17.4486 24.9115 16.9784 24.7866 16.5 24.7866C16.0216 24.7866 15.5514 24.9115 15.136 25.1488L8.932 28.6935C8.72292 28.8129 8.48614 28.8754 8.24535 28.8745C8.00457 28.8737 7.76822 28.8097 7.55995 28.6889C7.35168 28.568 7.17879 28.3946 7.05859 28.186C6.93839 27.9773 6.87508 27.7408 6.875 27.5V6.875C6.875 6.14565 7.16473 5.44618 7.68046 4.93046C8.19618 4.41473 8.89565 4.125 9.625 4.125H23.375Z" stroke="#27D77C" stroke-width="2" stroke-linecap="round" stroke-linejoin="round"/>
<path d="M12.375 13.75L15.125 16.5L20.625 11" stroke="#27D77C" stroke-width="2" stroke-linecap="round" stroke-linejoin="round"/>
</svg>
