<svg width="16" height="16" viewBox="0 0 16 16" fill="none" xmlns="http://www.w3.org/2000/svg">
<path d="M12.6667 8.66658H3.33333V13.3333H12.6667V8.66658ZM12.6667 7.33325C12.6667 4.75593 10.5773 2.66659 8 2.66659C5.42267 2.66659 3.33333 4.75593 3.33333 7.33325H12.6667ZM4.25487 2.64532C5.28133 1.82423 6.58333 1.33325 8 1.33325C9.41667 1.33325 10.7187 1.82423 11.7451 2.64532L12.7141 1.6764L13.6569 2.61921L12.6879 3.58813C13.509 4.61458 14 5.91658 14 7.33325V13.9999C14 14.3681 13.7015 14.6666 13.3333 14.6666H2.66667C2.29848 14.6666 2 14.3681 2 13.9999V7.33325C2 5.91658 2.49098 4.61458 3.31207 3.58813L2.34315 2.61921L3.28595 1.6764L4.25487 2.64532ZM6 5.99992C5.63181 5.99992 5.33333 5.70144 5.33333 5.33325C5.33333 4.96507 5.63181 4.66659 6 4.66659C6.36819 4.66659 6.66667 4.96507 6.66667 5.33325C6.66667 5.70144 6.36819 5.99992 6 5.99992ZM10 5.99992C9.6318 5.99992 9.33333 5.70144 9.33333 5.33325C9.33333 4.96507 9.6318 4.66659 10 4.66659C10.3682 4.66659 10.6667 4.96507 10.6667 5.33325C10.6667 5.70144 10.3682 5.99992 10 5.99992Z" fill="#D9EEE5"/>
</svg>
