<svg width="16" height="16" viewBox="0 0 16 16" fill="none" xmlns="http://www.w3.org/2000/svg">
<path d="M7.78357 4.81465C7.19957 4.81465 6.29555 4.15065 5.34355 4.17465C4.08755 4.19065 2.93555 4.90265 2.28755 6.03065C0.983554 8.29467 1.95155 11.6387 3.22355 13.4787C3.84755 14.3747 4.58355 15.3827 5.55955 15.3507C6.49555 15.3107 6.84757 14.7427 7.98357 14.7427C9.11157 14.7427 9.43157 15.3507 10.4236 15.3267C11.4316 15.3107 12.0716 14.4147 12.6876 13.5107C13.3996 12.4707 13.6956 11.4627 13.7116 11.4067C13.6876 11.3987 11.7516 10.6547 11.7276 8.41467C11.7116 6.54265 13.2556 5.64665 13.3276 5.60665C12.4476 4.31865 11.0956 4.17465 10.6236 4.14265C9.39157 4.04665 8.35957 4.81465 7.78357 4.81465ZM9.86357 2.92665C10.3836 2.30265 10.7276 1.43065 10.6316 0.56665C9.88757 0.59865 8.99157 1.06265 8.45557 1.68665C7.97557 2.23865 7.55957 3.12665 7.67157 3.97465C8.49557 4.03865 9.34357 3.55065 9.86357 2.92665Z" fill="#D9EEE5"/>
</svg>
