<svg width="16" height="16" viewBox="0 0 16 16" fill="none" xmlns="http://www.w3.org/2000/svg">
<g clip-path="url(#clip0_1974_1811)">
<path d="M7.05936 7.99991C7.05936 6.31004 5.23003 5.25388 3.76656 6.09881C2.30309 6.94374 2.30309 9.05608 3.76656 9.90101C4.10027 10.0937 4.47882 10.1951 4.86416 10.1951C6.07653 10.1951 7.05936 9.21228 7.05936 7.99991ZM3.29616 7.99991C3.29616 6.79286 4.60282 6.03846 5.64816 6.64198C6.69349 7.2455 6.69349 8.75432 5.64816 9.35783C5.40979 9.49546 5.1394 9.56791 4.86416 9.56791C3.99818 9.56791 3.29616 8.86589 3.29616 7.99991ZM15.5266 6.43191H13.9586V1.10071C13.9586 0.927516 13.8182 0.787109 13.645 0.787109H6.11856C5.94536 0.787109 5.80496 0.927516 5.80496 1.10071V3.29591H1.10096C0.581369 3.29591 0.160156 3.71712 0.160156 4.23671V11.7631C0.160156 12.2827 0.581381 12.7039 1.10096 12.7039H3.92336V14.2719C3.92336 14.7915 4.34457 15.2127 4.86416 15.2127H14.8994C15.4189 15.2127 15.8402 14.7915 15.8402 14.2719V6.74551C15.8402 6.57232 15.6997 6.43192 15.5266 6.43191ZM15.213 14.2852L10.4172 10.8223L15.213 7.3586V14.2719C15.2133 14.2763 15.2133 14.2808 15.213 14.2852ZM14.5568 7.05911L13.9586 7.49109V7.05911H14.5568ZM6.43216 1.41431H13.3314V7.94425L9.88176 10.4358L9.56816 10.2092V4.23671C9.56816 3.71712 9.14694 3.29591 8.62736 3.29591H6.43216V1.41431ZM0.787356 11.7631V4.23671C0.787356 4.06351 0.927756 3.9231 1.10096 3.92311H8.62736C8.80055 3.92312 8.94096 4.06352 8.94096 4.23671V11.7631C8.94096 11.9363 8.80055 12.0767 8.62736 12.0767H1.10096C0.927756 12.0767 0.787356 11.9363 0.787356 11.7631ZM4.55056 14.2719V12.7039H8.62736C9.14693 12.7039 9.56816 12.2827 9.56816 11.7631V10.983L14.5568 14.5855H4.86416C4.69096 14.5855 4.55056 14.4451 4.55056 14.2719Z" fill="#D9EEE5"/>
</g>
<defs>
<clipPath id="clip0_1974_1811">
<rect width="16" height="16" fill="white"/>
</clipPath>
</defs>
</svg>
