<svg width="32" height="32" viewBox="0 0 32 32" fill="none" xmlns="http://www.w3.org/2000/svg">
<path d="M26.666 14.6667V22.6667" stroke="#02563D" stroke-width="2" stroke-linecap="round" stroke-linejoin="round"/>
<path d="M26.666 17.3333H29.3327" stroke="#02563D" stroke-width="2" stroke-linecap="round" stroke-linejoin="round"/>
<path d="M4 28V25.3333C4 23.9188 4.5619 22.5623 5.5621 21.5621C6.56229 20.5619 7.91885 20 9.33333 20H17.3333C18.3073 19.9998 19.2628 20.2663 20.096 20.7707" stroke="#02563D" stroke-width="2" stroke-linecap="round" stroke-linejoin="round"/>
<path d="M13.3333 14.6667C16.2789 14.6667 18.6667 12.2789 18.6667 9.33333C18.6667 6.38781 16.2789 4 13.3333 4C10.3878 4 8 6.38781 8 9.33333C8 12.2789 10.3878 14.6667 13.3333 14.6667Z" stroke="#02563D" stroke-width="2" stroke-linecap="round" stroke-linejoin="round"/>
<path d="M26.6667 28.0001C28.1394 28.0001 29.3333 26.8062 29.3333 25.3334C29.3333 23.8607 28.1394 22.6667 26.6667 22.6667C25.1939 22.6667 24 23.8607 24 25.3334C24 26.8062 25.1939 28.0001 26.6667 28.0001Z" stroke="#02563D" stroke-width="2" stroke-linecap="round" stroke-linejoin="round"/>
</svg>
