<svg width="30" height="30" viewBox="0 0 30 30" fill="none" xmlns="http://www.w3.org/2000/svg">
<path d="M21.9078 23.6308L19.6924 13.5385L24.0001 9.23078C25.8462 7.38462 26.4616 4.92309 25.8462 3.69232C24.6155 3.07693 22.1539 3.69232 20.3078 5.53847L16.0001 9.84616L5.90777 7.63078C5.29238 7.5077 4.80008 7.75386 4.55392 8.24616L4.18469 8.86155C3.93854 9.47693 4.06161 10.0923 4.55392 10.4615L11.077 14.7692L8.61546 18.4615H4.92315L3.69238 19.6923L7.38469 22.1539L9.84623 25.8462L11.077 24.6154V20.9231L14.7693 18.4615L19.077 24.9846C19.4462 25.4769 20.0616 25.6 20.677 25.3539L21.2924 25.1077C21.7847 24.7385 22.0308 24.2462 21.9078 23.6308Z" stroke="white" stroke-width="2" stroke-linecap="round" stroke-linejoin="round"/>
</svg>
