<svg width="33" height="33" viewBox="0 0 33 33" fill="none" xmlns="http://www.w3.org/2000/svg">
<path d="M15.0378 20.5054H17.7718C18.4969 20.5054 19.1923 20.2173 19.7051 19.7046C20.2178 19.1919 20.5059 18.4965 20.5059 17.7713C20.5059 17.0462 20.2178 16.3508 19.7051 15.8381C19.1923 15.3253 18.4969 15.0373 17.7718 15.0373H13.6707C12.8505 15.0373 12.167 15.3107 11.7569 15.8575L4.10156 23.2394" stroke="white" stroke-width="2.05054" stroke-linecap="round" stroke-linejoin="round"/>
<path d="M9.57031 28.7075L11.7576 26.7937C12.1677 26.2469 12.8512 25.9735 13.6714 25.9735H19.1395C20.6432 25.9735 22.0102 25.4267 22.9671 24.3331L29.2555 18.3182C29.783 17.8196 30.0909 17.132 30.1114 16.4065C30.1319 15.6809 29.8633 14.977 29.3648 14.4495C28.8663 13.922 28.1787 13.6141 27.4531 13.5936C26.7276 13.5731 26.0237 13.8416 25.4961 14.3401L19.7546 19.6715" stroke="white" stroke-width="2.05054" stroke-linecap="round" stroke-linejoin="round"/>
<path d="M2.73438 21.8724L10.9365 30.0745" stroke="white" stroke-width="2.05054" stroke-linecap="round" stroke-linejoin="round"/>
<path d="M21.8726 16.2675C24.062 16.2675 25.8369 14.4926 25.8369 12.3032C25.8369 10.1137 24.062 8.33881 21.8726 8.33881C19.6831 8.33881 17.9082 10.1137 17.9082 12.3032C17.9082 14.4926 19.6831 16.2675 21.8726 16.2675Z" stroke="white" stroke-width="2.05054" stroke-linecap="round" stroke-linejoin="round"/>
<path d="M8.20264 10.9362C10.4676 10.9362 12.3037 9.1001 12.3037 6.83514C12.3037 4.57018 10.4676 2.73407 8.20264 2.73407C5.93768 2.73407 4.10156 4.57018 4.10156 6.83514C4.10156 9.1001 5.93768 10.9362 8.20264 10.9362Z" stroke="white" stroke-width="2.05054" stroke-linecap="round" stroke-linejoin="round"/>
</svg>
