<svg width="33" height="33" viewBox="0 0 33 33" fill="none" xmlns="http://www.w3.org/2000/svg">
<g clip-path="url(#clip0_1989_269)">
<path d="M4.10156 10.9363V5.46825C4.10156 4.74313 4.38961 4.04772 4.90235 3.53499C5.41508 3.02225 6.1105 2.7342 6.83561 2.7342H12.167C12.6243 2.72972 13.0753 2.83999 13.4789 3.05493C13.8825 3.26987 14.2258 3.58261 14.4773 3.96452L15.5846 5.60495C15.8335 5.98298 16.1724 6.29328 16.5709 6.50801C16.9693 6.72275 17.4149 6.8352 17.8675 6.83527H28.708C29.4331 6.83527 30.1285 7.12332 30.6413 7.63606C31.154 8.14879 31.442 8.84421 31.442 9.56932V23.2396C31.442 23.9647 31.154 24.6601 30.6413 25.1728C30.1285 25.6856 29.4331 25.9736 28.708 25.9736H6.83561C6.1105 25.9736 5.41508 25.6856 4.90235 25.1728C4.38961 24.6601 4.10156 23.9647 4.10156 23.2396V21.8725" stroke="white" stroke-width="2.05054" stroke-linecap="round" stroke-linejoin="round"/>
<path d="M4.10156 16.4045H17.7718" stroke="white" stroke-width="2.05054" stroke-linecap="round" stroke-linejoin="round"/>
<path d="M13.668 20.5056L17.769 16.4045L13.668 12.3034" stroke="white" stroke-width="2.05054" stroke-linecap="round" stroke-linejoin="round"/>
</g>
<defs>
<clipPath id="clip0_1989_269">
<rect width="32.8086" height="32.8086" fill="white"/>
</clipPath>
</defs>
</svg>
