<svg width="23" height="28" viewBox="0 0 23 28" fill="none" xmlns="http://www.w3.org/2000/svg">
<path d="M1.1001 7.5174C1.97758 5.60256 3.38637 3.97995 5.15906 2.84235C6.93174 1.70474 8.99378 1.09998 11.1001 1.09998C13.2064 1.09998 15.2685 1.70474 17.0411 2.84235C18.8138 3.97995 20.2226 5.60256 21.1001 7.5174" stroke="#EE5A3C" stroke-width="2.2" stroke-linecap="round"/>
<path d="M19.1001 4.51746L21.1001 7.51746L18.1001 9.51746" stroke="#EE5A3C" stroke-width="2.2" stroke-linecap="round" stroke-linejoin="round"/>
<path d="M21.1001 19.5175C20.2226 21.4323 18.8138 23.0549 17.0411 24.1925C15.2685 25.3301 13.2064 25.9349 11.1001 25.9349C8.99378 25.9349 6.93174 25.3301 5.15906 24.1925C3.38637 23.0549 1.97758 21.4323 1.1001 19.5175" stroke="#EE5A3C" stroke-width="2.2" stroke-linecap="round"/>
<path d="M3.1001 22.5175L1.1001 19.5175L4.1001 17.5175" stroke="#EE5A3C" stroke-width="2.2" stroke-linecap="round" stroke-linejoin="round"/>
</svg>
