<svg width="29" height="29" viewBox="0 0 29 29" fill="none" xmlns="http://www.w3.org/2000/svg">
<path d="M23 4H3C1.89543 4 1 4.89543 1 6V24C1 25.1046 1.89543 26 3 26H23C24.1046 26 25 25.1046 25 24V6C25 4.89543 24.1046 4 23 4Z" stroke="#EE5A3C" stroke-width="2"/>
<path d="M1 10H25" stroke="#EE5A3C" stroke-width="2"/>
<path d="M7 1V7" stroke="#EE5A3C" stroke-width="2" stroke-linecap="round"/>
<path d="M19 1V7" stroke="#EE5A3C" stroke-width="2" stroke-linecap="round"/>
<path d="M22 28C25.3137 28 28 25.3137 28 22C28 18.6863 25.3137 16 22 16C18.6863 16 16 18.6863 16 22C16 25.3137 18.6863 28 22 28Z" fill="#FDE2DA" stroke="#EE5A3C" stroke-width="2"/>
<path d="M22 22V19" stroke="#EE5A3C" stroke-width="1.5" stroke-linecap="round"/>
<path d="M22 22H25" stroke="#EE5A3C" stroke-width="1.5" stroke-linecap="round"/>
</svg>
