<svg width="53" height="46" viewBox="0 0 53 46" fill="none" xmlns="http://www.w3.org/2000/svg">
<g clip-path="url(#clip0_1727_3218)">
<path d="M16.3434 13.2847H16.3305C7.32613 13.2847 0 20.623 0 29.6424C0 38.6617 7.32613 46.0001 16.3305 46.0001C25.3348 46.0001 32.6609 38.6617 32.6609 29.6424C32.6609 20.6274 25.3423 13.2922 16.3434 13.2847ZM23.3931 30.9859H17.6717V36.7168C17.6717 37.4589 17.0713 38.0603 16.3305 38.0603C15.5896 38.0603 14.9892 37.4589 14.9892 36.7168V30.9859H9.26782C8.527 30.9859 7.92657 30.3844 7.92657 29.6424C7.92657 28.9003 8.527 28.2989 9.26782 28.2989H14.9892V22.568C14.9892 21.8259 15.5896 21.2245 16.3305 21.2245C17.0713 21.2245 17.6717 21.8259 17.6717 22.568V28.2989H23.3931C24.1339 28.2989 24.7343 28.9003 24.7343 29.6424C24.7343 30.3844 24.1339 30.9859 23.3931 30.9859Z" fill="#009F78"/>
<path d="M53 6.36374V31.6965C53 35.2055 50.1502 38.0602 46.6469 38.0602H33.3823C33.8078 37.2002 34.1696 36.3024 34.4622 35.3743C35.0335 33.5646 35.3424 31.6391 35.3424 29.6423C35.3424 19.5985 27.5378 11.345 17.6847 10.6463C17.2376 10.6149 16.7862 10.5987 16.3305 10.5987C15.8748 10.5987 15.4406 10.6138 15.0022 10.6452V6.36374C15.0022 2.85465 17.8532 0 21.3564 0H46.6469C50.1502 0 53 2.85465 53 6.36374Z" fill="#009F78"/>
</g>
<defs>
<clipPath id="clip0_1727_3218">
<rect width="53" height="46" fill="white"/>
</clipPath>
</defs>
</svg>
