<svg width="44" height="44" viewBox="0 0 44 44" fill="none" xmlns="http://www.w3.org/2000/svg">
<path d="M24.6079 2.75061C24.797 2.68194 25.0035 2.75848 25.105 2.92346L25.1421 2.99963C25.1587 3.04538 25.1665 3.09377 25.1665 3.14221V12.5826L25.5083 12.6969L37.0884 16.5563C37.6329 16.7378 38.0005 17.248 38.0005 17.8219V35.3336H41.6665V37.9996H2.3335V35.3336H6.00049V10.4508C6.00052 9.89028 6.35075 9.38957 6.87744 9.19788L24.6079 2.75061ZM21.8296 6.59827L8.99561 11.2653L8.6665 11.3844V35.3336H22.5005V6.35413L21.8296 6.59827ZM35.3335 18.7828L34.9917 18.6686L25.8247 15.6129L25.1665 15.3932V35.3336H35.3335V18.7828Z" fill="#02563D" stroke="white"/>
</svg>
