<svg width="68" height="70" viewBox="0 0 68 70" fill="none" xmlns="http://www.w3.org/2000/svg">
<path d="M68 69.3428C68 50.195 52.7778 34.6729 34 34.6729C15.2222 34.6729 0 50.195 0 69.3428H68Z" fill="#EE8F7E"/>
<path d="M33.9928 36.8104C43.9613 36.8104 52.0424 28.5701 52.0424 18.4052C52.0424 8.2403 43.9613 0 33.9928 0C24.0243 0 15.9432 8.2403 15.9432 18.4052C15.9432 28.5701 24.0243 36.8104 33.9928 36.8104Z" fill="#EE8F7E"/>
<path d="M42.9423 64.8958L34.0318 55.7806C32.4182 53.9313 30.8045 51.4414 32.1183 48.1069C33.1464 45.4859 35.5026 43.7094 38.1015 43.5929C39.8864 43.5201 41.6286 44.1317 42.9423 45.3257C44.1704 44.2191 45.784 43.5784 47.4404 43.5784C51.196 43.5784 54.2376 46.6944 54.2376 50.5094C54.2376 51.3103 53.9662 52.2422 53.4236 53.3197C52.8239 54.4992 52.0099 55.6204 51.0103 56.6542L42.9423 64.8812V64.8958ZM38.4442 46.0246C38.3728 46.0246 38.3014 46.0246 38.23 46.0246C36.5593 46.112 35.0313 47.2769 34.3602 49.0097C33.5891 50.9754 34.3745 52.4606 35.8024 54.106L42.9709 61.4303L49.3396 54.936C50.1678 54.0915 50.839 53.1741 51.3245 52.2131C51.81 51.2666 51.8814 50.7424 51.8814 50.5094C51.8814 48.0341 49.9108 46.0246 47.4833 46.0246C46.0838 46.0246 44.7844 46.6944 43.9419 47.8448L42.9709 49.1698L41.9998 47.8448C41.1573 46.6944 39.8436 46.0246 38.4585 46.0246H38.4442Z" fill="black"/>
</svg>
