<svg width="44" height="44" viewBox="0 0 44 44" fill="none" xmlns="http://www.w3.org/2000/svg">
<path d="M18.333 6H25.667C26.4031 6.00018 26.9998 6.59689 27 7.33301V14.667C26.9998 15.4031 26.4031 15.9998 25.667 16H23.333V20.667H38V23.333H32.5V28H34.833C35.5693 28 36.1668 28.5967 36.167 29.333V36.667C36.1668 37.4033 35.5693 38 34.833 38H27.5C26.7637 38 26.1672 37.4033 26.167 36.667V29.333C26.1672 28.5967 26.7637 28 27.5 28H29.833V23.333H14.167V28H16.5C17.2363 28 17.8328 28.5968 17.833 29.333V36.667C17.8328 37.4032 17.2363 38 16.5 38H9.16699C8.43072 38 7.83318 37.4032 7.83301 36.667V29.3574L7.84082 29.1895C7.91225 28.5211 8.47912 28 9.16699 28H11.5V23.333H6V20.667H20.667V16H18.333C17.5969 15.9998 17.0002 15.4031 17 14.667V7.33301C17.0002 6.64272 17.5249 6.07499 18.1973 6.00684L18.333 6ZM10.5 35.333H15.167V30.667H10.5V35.333ZM28.833 35.333H33.5V30.667H28.833V35.333ZM19.667 13.333H24.333V8.66699H19.667V13.333Z" fill="#EE5A3C" stroke="#FDF5E7"/>
</svg>
