<svg width="44" height="44" viewBox="0 0 44 44" fill="none" xmlns="http://www.w3.org/2000/svg">
<path d="M34.3105 28.2704C34.4639 27.9006 34.9609 27.9006 35.1143 28.2704L35.5791 29.3905C36.4201 31.4184 37.9901 33.0416 39.9688 33.9207L41.2852 34.5057C41.621 34.6549 41.6418 35.134 41.3477 35.3241L41.2852 35.3582L39.8906 35.9774C37.9617 36.8345 36.4191 38.3998 35.5635 40.3612L35.1113 41.3983C34.9546 41.7575 34.47 41.7572 34.3135 41.3983L33.8613 40.3612C33.0056 38.3997 31.4626 36.8345 29.5332 35.9774L28.1396 35.3582C27.7818 35.1992 27.7818 34.6647 28.1396 34.5057L29.4561 33.9207C31.4347 33.0416 33.0049 31.4184 33.8457 29.3905L34.3105 28.2704ZM34.3652 33.5409L33.334 34.5643L32.9717 34.9247L33.3389 35.2791L34.3701 36.2743L34.7217 36.6131L35.0684 36.2704L36.0791 35.2752L36.4346 34.9247L36.084 34.5682L35.0742 33.5438L34.7217 33.1873L34.3652 33.5409ZM16.7109 3.1561C17.1451 2.10981 18.5765 2.1098 19.0107 3.1561L20.6406 7.08286C22.0962 10.5903 24.8115 13.3942 28.2285 14.911L32.5186 16.8153C33.5304 17.2644 33.5303 18.7509 32.5186 19.2L28.0898 21.1659C24.8628 22.5984 22.259 25.1802 20.7529 28.4237L20.6104 28.7401L19.002 32.4256C18.5579 33.4419 17.1647 33.4417 16.7207 32.4256L15.1113 28.7401L14.9697 28.4237C13.4637 25.1801 10.8591 22.5984 7.63184 21.1659L3.20312 19.2C2.1913 18.7509 2.19129 17.2645 3.20312 16.8153L7.49414 14.911C10.911 13.3942 13.6255 10.5902 15.0811 7.08286L16.7109 3.1561ZM17.4033 8.43539C15.5787 12.5922 12.258 15.7138 8.12012 17.5506L7.08984 18.0077L8.12012 18.4647C12.2151 20.2825 15.5245 23.2596 17.4072 27.3416L17.8613 28.326L18.3154 27.3416C20.1983 23.2596 23.5075 20.2825 27.6025 18.4647L28.6318 18.0077L27.6025 17.5506C23.4645 15.7138 20.144 12.5923 18.3193 8.43539L17.8613 7.39243L17.4033 8.43539Z" fill="#EE5A3C" stroke="#FDF5E7"/>
</svg>
