<svg width="44" height="44" viewBox="0 0 44 44" fill="none" xmlns="http://www.w3.org/2000/svg">
<path d="M32.0835 22.5C36.3636 22.5002 39.8335 25.9699 39.8335 30.25V38H24.3335V30.25C24.3335 25.9698 27.8033 22.5 32.0835 22.5ZM11.9165 22.5C16.1967 22.5 19.6665 25.9698 19.6665 30.25V38H4.1665V30.25C4.1665 25.9698 7.6363 22.5 11.9165 22.5ZM11.9165 25.167C9.10906 25.167 6.8335 27.4426 6.8335 30.25V35.333H16.9995V30.25C16.9995 27.4426 14.7239 25.167 11.9165 25.167ZM32.0835 25.167C29.2761 25.167 26.9995 27.4426 26.9995 30.25V35.333H37.1665V30.25C37.1665 27.4427 34.8908 25.1672 32.0835 25.167ZM11.9165 6C15.6903 6 18.7493 9.05921 18.7495 12.833C18.7495 16.607 15.6905 19.667 11.9165 19.667C8.14256 19.667 5.0835 16.607 5.0835 12.833C5.08367 9.05921 8.14266 6 11.9165 6ZM32.0835 6C35.8571 6.00018 38.9163 9.05932 38.9165 12.833C38.9165 16.6068 35.8572 19.6668 32.0835 19.667C28.3096 19.667 25.2495 16.607 25.2495 12.833C25.2497 9.05921 28.3097 6 32.0835 6ZM11.9165 8.66699C9.61542 8.66699 7.74969 10.532 7.74951 12.833C7.74951 15.1342 9.61532 17 11.9165 17C14.2177 17 16.0835 15.1342 16.0835 12.833C16.0833 10.532 14.2176 8.66699 11.9165 8.66699ZM32.0835 8.66699C29.7824 8.66699 27.9167 10.532 27.9165 12.833C27.9165 15.1342 29.7822 17 32.0835 17C34.3846 16.9998 36.2495 15.1341 36.2495 12.833C36.2493 10.5321 34.3845 8.66717 32.0835 8.66699Z" fill="#EE5A3C" stroke="#FDF5E7"/>
</svg>
