<svg width="62" height="72" viewBox="0 0 62 72" fill="none" xmlns="http://www.w3.org/2000/svg">
<path d="M46.1342 71.8449L0 71.8068V59.6573H1.26777C2.92855 59.6573 4.50059 58.9725 5.67962 57.7423C6.884 56.4868 7.54324 54.8254 7.54324 53.0372C7.54324 49.3847 4.72879 46.4171 1.26777 46.4044H0.0126777V34.2422L46.1469 34.2802V71.8449H46.1342ZM2.53554 69.2704L43.5987 69.3085V36.8167L2.54822 36.7786V43.9567C6.80794 44.6035 10.0915 48.4209 10.0788 53.0245C10.0788 55.4595 9.16599 57.755 7.51789 59.4798C6.14869 60.9128 4.41185 61.8133 2.53554 62.0923V69.2704Z" fill="black"/>
<path d="M44.4667 64.3114C48.8278 64.3114 52.3522 67.6976 52.3522 71.8573H61.9746L61.9999 0.0126822H52.3776C52.3776 4.17244 48.8405 7.54591 44.4793 7.54591C40.1182 7.54591 36.6065 4.17244 36.6065 0H26.9841L26.946 71.8446H36.5684C36.5684 67.6849 40.1055 64.3114 44.4667 64.3114Z" fill="#EE8F7E"/>
<path d="M24.3432 43.4878H21.8076V62.4096H24.3432V43.4878Z" fill="black"/>
<path d="M31.7542 51.6807H14.3857V54.2171H31.7542V51.6807Z" fill="black"/>
</svg>
