<svg width="54" height="54" viewBox="0 0 54 54" fill="none" xmlns="http://www.w3.org/2000/svg">
<path d="M52 26.9995H38.5L34 33.7495H25L20.5 26.9995H7" stroke="#B3CCC5" stroke-width="3" stroke-linecap="round" stroke-linejoin="round"/>
<path d="M14.7625 11.4973L7 26.9998V40.4998C7 41.6932 7.47411 42.8378 8.31802 43.6817C9.16193 44.5257 10.3065 44.9998 11.5 44.9998H47.5C48.6935 44.9998 49.8381 44.5257 50.682 43.6817C51.5259 42.8378 52 41.6932 52 40.4998V26.9998L44.2375 11.4973C43.8649 10.7475 43.2906 10.1166 42.5791 9.67539C41.8677 9.23418 41.0472 9.0002 40.21 8.99976H18.79C17.9528 9.0002 17.1323 9.23418 16.4208 9.67539C15.7094 10.1166 15.135 10.7475 14.7625 11.4973Z" stroke="#B3CCC5" stroke-width="3" stroke-linecap="round" stroke-linejoin="round"/>
</svg>
