<svg width="52" height="49" viewBox="0 0 52 49" fill="none" xmlns="http://www.w3.org/2000/svg">
<g clip-path="url(#clip0_1727_2985)">
<path d="M50.8085 9.93398L45.3323 1.25371C44.8449 0.478516 43.9752 0 43.0482 0H8.94856C8.02152 0 7.15183 0.478516 6.66442 1.25371L1.17866 9.93398C-1.65023 14.4129 0.853721 20.6432 6.13878 21.3609C6.52106 21.4088 6.9129 21.4375 7.29519 21.4375C9.78958 21.4375 12.0068 20.3465 13.5264 18.6621C15.046 20.3465 17.2632 21.4375 19.7576 21.4375C22.252 21.4375 24.4692 20.3465 25.9888 18.6621C27.5084 20.3465 29.7256 21.4375 32.22 21.4375C34.7144 21.4375 36.9317 20.3465 38.4512 18.6621C39.9804 20.3465 42.188 21.4375 44.6824 21.4375C45.0743 21.4375 45.4566 21.4088 45.8388 21.3609C51.143 20.6527 53.6565 14.4225 50.8181 9.93398H50.8085ZM46.2307 24.3947H46.2211C45.7146 24.4617 45.1985 24.5 44.6729 24.5C43.4878 24.5 42.3505 24.3182 41.2897 23.9928V36.75H10.7071V23.9832C9.63667 24.3182 8.48982 24.5 7.30474 24.5C6.7791 24.5 6.25346 24.4617 5.74694 24.3947H5.73738C5.34554 24.3373 4.96326 24.2703 4.59053 24.1746V36.75V42.875C4.59053 46.2533 7.33341 49 10.7071 49H41.2897C44.6633 49 47.4062 46.2533 47.4062 42.875V24.1746C47.0239 24.2703 46.6416 24.3469 46.2307 24.3947Z" fill="#009F78"/>
</g>
<defs>
<clipPath id="clip0_1727_2985">
<rect width="52" height="49" fill="white"/>
</clipPath>
</defs>
</svg>
