<svg width="68" height="68" viewBox="0 0 68 68" fill="none" xmlns="http://www.w3.org/2000/svg">
<path d="M0 67.8904C0 50.1065 14.6696 35.6914 32.7674 35.6914C50.8652 35.6914 65.5347 50.1065 65.5347 67.8904" fill="#EC8D7E"/>
<path d="M32.7678 40.2958C42.3779 40.2958 50.1684 32.6404 50.1684 23.197C50.1684 13.7536 42.3779 6.09827 32.7678 6.09827C23.1577 6.09827 15.3672 13.7536 15.3672 23.197C15.3672 32.6404 23.1577 40.2958 32.7678 40.2958Z" fill="#EC8D7E"/>
<path d="M32.5153 47.3426C26.3441 47.3426 20.1729 45.0346 15.4729 40.4162C6.07543 31.1817 6.07543 16.1594 15.4729 6.92497C24.8704 -2.30714 40.1578 -2.3095 49.5553 6.92497C58.9528 16.1594 58.9528 31.1817 49.5553 40.4162C44.8578 45.0346 38.6865 47.3426 32.5153 47.3426ZM32.5153 2.39869C26.9691 2.39869 21.423 4.47284 17.199 8.62351C8.75357 16.9225 8.75357 30.4234 17.199 38.7224C25.6445 47.019 39.3861 47.019 47.8292 38.7224C56.2747 30.4234 56.2747 16.9225 47.8292 8.62351C43.6077 4.4752 38.0591 2.39869 32.5129 2.39869H32.5153Z" fill="black"/>
<path d="M46.5767 41.327L44.6833 42.8396L65.499 67.9999L67.3923 66.4874L46.5767 41.327Z" fill="black"/>
</svg>
