<svg width="67" height="68" viewBox="0 0 67 68" fill="none" xmlns="http://www.w3.org/2000/svg">
<path d="M31.8894 68.0033C49.5014 68.0033 63.7787 53.4824 63.7787 35.5699C63.7787 17.6574 49.5014 3.13647 31.8894 3.13647C14.2774 3.13647 0 17.6574 0 35.5699C0 53.4824 14.2774 68.0033 31.8894 68.0033Z" fill="#E98A7E"/>
<path d="M32.9291 39.9158L17.9902 30.8597L19.2 28.7995L32.479 36.8399L65.2546 0L66.9988 1.61666L32.9291 39.9158Z" fill="black"/>
<path d="M33.8779 8.7561H31.5146V15.652H33.8779V8.7561Z" fill="black"/>
<path d="M33.8779 55.4849H31.5146V62.3807H33.8779V55.4849Z" fill="black"/>
<path d="M58.248 31.5446H51.4678V33.9481H58.248V31.5446Z" fill="black"/>
<path d="M12.3046 31.5446H5.52441V33.9481H12.3046V31.5446Z" fill="black"/>
</svg>
